<?xml version="1.0" standalone="no"?>
<!DOCTYPE svg PUBLIC "-//W3C//DTD SVG 20010904//EN"
 "http://www.w3.org/TR/2001/REC-SVG-20010904/DTD/svg10.dtd">
<svg version="1.0" xmlns="http://www.w3.org/2000/svg"
 width="500.000000pt" height="500.000000pt" viewBox="0 0 500.000000 500.000000"
 preserveAspectRatio="xMidYMid meet">
<metadata>
Created by potrace 1.11, written by Peter Selinger 2001-2013
</metadata>
<g transform="translate(0.000000,500.000000) scale(0.100000,-0.100000)"
fill="#000000" stroke="none">
<path d="M2318 4992 c-17 -3 -18 -112 -18 -2113 l0 -2109 -802 0 -802 0 35
-36 c68 -72 253 -225 352 -292 106 -72 292 -182 307 -182 5 0 26 -9 46 -21 67
-37 338 -138 415 -154 8 -2 44 -10 80 -19 74 -18 88 -21 229 -43 114 -17 444
-24 585 -11 160 15 438 74 550 117 28 11 84 32 125 47 175 65 517 262 639 369
102 89 208 185 225 204 l19 21 -801 0 -802 0 0 2109 c0 2000 -1 2109 -17 2113
-22 6 -341 6 -365 0z"/>
<path d="M1925 4935 c-5 -2 -29 -9 -52 -15 l-43 -11 0 -1834 0 -1835 -744 -2
-744 -3 34 -53 34 -52 765 0 765 0 0 1905 c0 1048 -1 1905 -2 1904 -2 0 -7 -2
-13 -4z"/>
<path d="M3060 3035 l0 -1905 765 0 765 0 34 53 34 52 -744 3 -744 2 0 1835 0
1834 -42 11 c-24 6 -49 13 -55 15 -10 4 -13 -381 -13 -1900z"/>
<path d="M1355 4722 c-257 -135 -425 -260 -637 -474 -371 -373 -609 -850 -692
-1388 -32 -205 -27 -579 10 -789 22 -118 64 -282 101 -386 l28 -80 653 -3 652
-2 0 1590 c0 874 -1 1590 -2 1590 -2 0 -52 -26 -113 -58z"/>
<path d="M3530 3190 l0 -1590 652 2 652 3 19 50 c49 132 108 371 122 500 4 33
9 69 12 80 9 38 11 400 3 480 -14 137 -21 199 -26 217 -3 10 -7 30 -10 45 -10
61 -67 279 -75 288 -5 5 -9 16 -9 25 0 28 -96 255 -155 368 -85 161 -199 331
-315 467 -33 39 -212 218 -270 270 -117 105 -327 246 -492 331 l-108 55 0
-1591z"/>
</g>
</svg>
