<?xml version="1.0" encoding="UTF-8"?>
<svg width="110px" height="110px" viewBox="0 0 110 110" version="1.1" xmlns="http://www.w3.org/2000/svg" xmlns:xlink="http://www.w3.org/1999/xlink">
    <!-- Generator: Sketch 48.2 (47327) - http://www.bohemiancoding.com/sketch -->
    <title>efikecoattempts5</title>
    <desc>Created with Sketch.</desc>
    <defs></defs>
    <g id="efikeco" stroke="none" stroke-width="1" fill="none" fill-rule="evenodd">
        <g id="efikecoattempts5">
            <g id="Gray-Logo">
                <path d="M3.65896818,75.0333002 C1.89014958,70.52186 0.701137581,65.7203332 0.183396561,60.72 L65.091551,60.72 L62.2879085,75.1434901 L3.65896818,75.0333002 Z M8.46598633,84.48 L60.4730748,84.48 L55.5129428,109.997667 C55.3421448,109.999221 55.1711611,110 54.9999951,110 C35.4313027,110 18.2447318,99.8214757 8.46599461,84.480013 Z M106.264991,75.2261426 L71.6974132,75.1611747 L74.5044933,60.72 L109.816594,60.72 C109.291469,65.7916455 108.07579,70.6587735 106.264991,75.2261426 Z M101.534004,84.48 C93.4800524,97.1155246 80.4010071,106.248779 65.1047376,109.077551 L69.8860171,84.48 L101.534004,84.48 Z M4.72538675e-15,51.48 C0.314877798,46.504758 1.29257081,41.7091059 2.84594724,37.18 L69.6672635,37.18 L66.887625,51.48 L2.22044605e-15,51.48 Z M109.99999,51.48 L76.3005673,51.48 L79.0802057,37.18 L107.154043,37.18 C108.707419,41.7091059 109.685112,46.504758 109.99999,51.48 Z M7.00950302,27.9399871 C16.4741277,11.2581144 34.4196702,0 54.9999951,0 C62.4680664,0 69.5891954,1.48244337 76.0840393,4.1685501 L71.4633375,27.94 L7.00949571,27.94 Z M102.990495,27.94 L80.8762798,27.94 L84.6319832,8.61858116 C92.2202859,13.4571129 98.5421123,20.0994996 102.990495,27.94 Z" id="Combined-Shape" fill="#AEAEAE"></path>
                <path d="M12.6335616,46.4347826 L12.6335616,44.3347826 L2,44.3347826 L2,64.6347826 L12.6335616,64.6347826 L12.6335616,62.5347826 L4.31164384,62.5347826 L4.31164384,54.5913043 L12.4178082,54.5913043 L12.4178082,52.4913043 L4.31164384,52.4913043 L4.31164384,46.4347826 L12.6335616,46.4347826 Z M26.1952055,46.4347826 L26.1952055,44.3347826 L16.8561644,44.3347826 L16.8561644,64.6347826 L19.1678082,64.6347826 L19.1678082,54.5913043 L25.9794521,54.5913043 L25.9794521,52.4913043 L19.1678082,52.4913043 L19.1678082,46.4347826 L26.1952055,46.4347826 Z M32.5136986,44.3347826 L30.2020548,44.3347826 L30.2020548,64.6347826 L32.5136986,64.6347826 L32.5136986,44.3347826 Z M40.1575342,53.0391304 L40.1575342,44.3347826 L37.8458904,44.3347826 L37.8458904,64.6347826 L40.1575342,64.6347826 L40.1575342,55.9 L40.7431507,55.3217391 L49.1575342,64.6347826 L52.3013699,64.6347826 L42.3458904,53.8 L51.9931507,44.3347826 L48.9109589,44.3347826 L40.1575342,53.0391304 Z M66.0171233,46.4347826 L66.0171233,44.3347826 L55.3835616,44.3347826 L55.3835616,64.6347826 L66.0171233,64.6347826 L66.0171233,62.5347826 L57.6952055,62.5347826 L57.6952055,54.5913043 L65.8013699,54.5913043 L65.8013699,52.4913043 L57.6952055,52.4913043 L57.6952055,46.4347826 L66.0171233,46.4347826 Z M85.8047945,46.0086957 C83.739726,44.5782609 82.0136986,44 79.7328767,44 C73.8150685,44 68.9760274,48.7478261 68.9760274,54.5608696 C68.9760274,60.2521739 73.8150685,65 79.609589,65 C81.8287671,65 83.7705479,64.3913043 85.8047945,63.0217391 L85.8047945,60.2217391 C83.8321918,62.0478261 81.890411,62.8695652 79.609589,62.8695652 C75.0479452,62.8695652 71.2876712,59.126087 71.2876712,54.5913043 C71.2876712,49.9652174 75.0479452,46.1304348 79.5787671,46.1304348 C81.890411,46.1304348 83.8013699,46.9521739 85.8047945,48.8086957 L85.8047945,46.0086957 Z M99.3356164,44 C93.5410959,44 88.609589,48.7782609 88.609589,54.3782609 C88.609589,57.1173913 89.5342466,59.5217391 91.260274,61.4391304 C93.2945205,63.6608696 96.2842466,65 99.2123288,65 C105.160959,65 110,60.3130435 110,54.5 C110,48.7478261 105.160959,44 99.3356164,44 Z M99.3047945,46.1304348 C103.958904,46.1304348 107.688356,49.873913 107.688356,54.5 C107.688356,59.1565217 103.928082,62.8695652 99.2431507,62.8695652 C97.2089041,62.8695652 95.1130137,62.0173913 93.5410959,60.5565217 C91.8150685,58.9434783 90.9212329,56.873913 90.9212329,54.3782609 C90.9212329,49.873913 94.7123288,46.1304348 99.3047945,46.1304348 Z" id="EFIKECO" fill="#000000"></path>
            </g>
        </g>
    </g>
</svg>