<?xml version="1.0" encoding="UTF-8"?>
<svg width="241px" height="73px" viewBox="0 0 241 73" version="1.1" xmlns="http://www.w3.org/2000/svg" xmlns:xlink="http://www.w3.org/1999/xlink">
    <!-- Generator: Sketch 48.2 (47327) - http://www.bohemiancoding.com/sketch -->
    <title>efikecoattempts1</title>
    <desc>Created with Sketch.</desc>
    <defs>
        <radialGradient cx="70.2860507%" cy="50%" fx="70.2860507%" fy="50%" r="86.4361248%" gradientTransform="translate(0.702861,0.500000),scale(1.000000,0.992063),rotate(180.000000),translate(-0.702861,-0.500000)" id="radialGradient-1">
            <stop stop-color="#383971" offset="0%"></stop>
            <stop stop-color="#140244" offset="100%"></stop>
        </radialGradient>
    </defs>
    <g id="efikeco" stroke="none" stroke-width="1" fill="none" fill-rule="evenodd">
        <g id="efikecoattempts1">
            <path d="M97.9420913,23.173913 L97.9420913,19.573913 L82,19.573913 L82,54.373913 L85.9460622,54.373913 L85.9460622,37.1565217 L97.5737922,37.1565217 L97.5737922,33.5565217 L85.9460622,33.5565217 L85.9460622,23.173913 L97.9420913,23.173913 Z M108.727995,19.573913 L104.781932,19.573913 L104.781932,54.373913 L108.727995,54.373913 L108.727995,19.573913 Z M121.776307,34.4956522 L121.776307,19.573913 L117.830245,19.573913 L117.830245,54.373913 L121.776307,54.373913 L121.776307,39.4 L122.775976,38.4086957 L137.139643,54.373913 L142.506287,54.373913 L125.511913,35.8 L141.980146,19.573913 L136.718729,19.573913 L121.776307,34.4956522 Z M165.91959,23.173913 L165.91959,19.573913 L147.767704,19.573913 L147.767704,54.373913 L165.91959,54.373913 L165.91959,50.773913 L151.713766,50.773913 L151.713766,37.1565217 L165.551291,37.1565217 L165.551291,33.5565217 L151.713766,33.5565217 L151.713766,23.173913 L165.91959,23.173913 Z M199.697882,22.4434783 C196.172733,19.9913043 193.22634,19 189.332892,19 C179.230973,19 170.970549,27.1391304 170.970549,37.1043478 C170.970549,46.8608696 179.230973,55 189.122435,55 C192.910655,55 196.225347,53.9565217 199.697882,51.6086957 L199.697882,46.8086957 C196.330576,49.9391304 193.015884,51.3478261 189.122435,51.3478261 C181.335539,51.3478261 174.916612,44.9304348 174.916612,37.1565217 C174.916612,29.226087 181.335539,22.6521739 189.069821,22.6521739 C193.015884,22.6521739 196.277962,24.0608696 199.697882,27.2434783 L199.697882,22.4434783 Z M222.7955,19 C212.904037,19 204.485771,27.1913043 204.485771,36.7913043 C204.485771,41.4869565 206.064196,45.6086957 209.010589,48.8956522 C212.483124,52.7043478 217.586698,55 222.585043,55 C232.739576,55 241,46.9652174 241,37 C241,27.1391304 232.739576,19 222.7955,19 Z M222.742886,22.6521739 C230.687624,22.6521739 237.053938,29.0695652 237.053938,37 C237.053938,44.9826087 230.63501,51.3478261 222.637657,51.3478261 C219.165122,51.3478261 215.587359,49.8869565 212.904037,47.3826087 C209.957644,44.6173913 208.431833,41.0695652 208.431833,36.7913043 C208.431833,29.0695652 214.903375,22.6521739 222.742886,22.6521739 Z" id="EFIKECO" fill="#201553"></path>
            <path d="M2.39509326,49.508337 C1.23725715,46.5316066 0.458951762,43.3634719 0.120048015,40.064161 L42.5783002,40.064161 L40.7284222,49.5809587 L2.39509326,49.508337 Z M5.54167891,55.7414414 L39.5309456,55.7414414 L36.258035,72.5791068 C36.172755,72.5797032 36.0874047,72.5800018 36.001985,72.5800018 C23.192679,72.5800018 11.9426658,65.8640263 5.54168433,55.74145 Z M69.559108,49.6355779 L46.9369665,49.5927207 L48.7891308,40.064161 L71.8839221,40.064161 C71.540185,43.410525 70.744424,46.6219446 69.559108,49.6355779 Z M66.4622878,55.7414467 C61.1849731,64.0870471 52.611652,70.1170974 42.5858998,71.9770181 L45.7417762,55.7414414 L66.4622912,55.7414414 Z M6.63358257e-15,33.9674409 C0.206113214,30.6846856 0.846093072,27.5204271 1.86290471,24.5320406 L45.5974386,24.5320406 L43.7633826,33.9674409 L6.66133815e-15,33.9674409 Z M72.0039764,33.9674409 L49.9742132,33.9674409 L51.8082692,24.5320406 L70.1410654,24.5320406 C71.157877,27.5204271 71.7978569,30.6846856 72.0039701,33.9674409 Z M4.58829173,18.435312 C10.7836609,7.42830877 22.5304829,0 36.001985,0 C40.9004223,0 45.5708298,0.982139115 49.8292332,2.76134488 L46.782521,18.4353205 L4.58828694,18.4353205 Z M67.4156831,18.4353205 L52.9933516,18.4353205 L55.4633202,5.72843344 C60.401685,8.91739687 64.5165217,13.2845218 67.4156831,18.4353205 Z" id="Combined-Shape" fill="url(#radialGradient-1)"></path>
        </g>
    </g>
</svg>