<?xml version="1.0" encoding="UTF-8"?>
<svg width="313px" height="126px" viewBox="0 0 313 126" version="1.1" xmlns="http://www.w3.org/2000/svg" xmlns:xlink="http://www.w3.org/1999/xlink">
    <!-- Generator: Sketch 48.2 (47327) - http://www.bohemiancoding.com/sketch -->
    <title>efikecologo1</title>
    <desc>Created with Sketch.</desc>
    <defs>
        <radialGradient cx="70.2860507%" cy="50%" fx="70.2860507%" fy="50%" r="86.4361248%" gradientTransform="translate(0.702861,0.500000),scale(1.000000,0.992063),rotate(180.000000),translate(-0.702861,-0.500000)" id="radialGradient-1">
            <stop stop-color="#383971" offset="0%"></stop>
            <stop stop-color="#140244" offset="100%"></stop>
        </radialGradient>
        <linearGradient x1="50%" y1="0%" x2="50%" y2="100%" id="linearGradient-2">
            <stop stop-color="#2D2561" offset="0%"></stop>
            <stop stop-color="#140244" offset="100%"></stop>
        </linearGradient>
        <linearGradient x1="50%" y1="50%" x2="50%" y2="0%" id="linearGradient-3">
            <stop stop-color="#2D2561" offset="0%"></stop>
            <stop stop-color="#140244" offset="100%"></stop>
        </linearGradient>
    </defs>
    <g id="efikeco" stroke="none" stroke-width="1" fill="none" fill-rule="evenodd">
        <g id="efikecologo1">
            <g id="Group">
                <path d="M4.15791875,85.9472348 C2.14789744,80.7795851 0.796747322,75.2796544 0.208405202,69.552 L73.9165844,69.552 L70.7051676,86.0733072 L4.15791875,85.9472348 Z M9.62043987,96.768 L68.6263299,96.768 L62.9445067,125.998446 C62.7964593,125.999482 62.6482898,126 62.5,126 C40.2628475,126 20.7326516,114.340963 9.62044927,96.7680149 Z M120.755682,86.1681269 L81.483296,86.0937262 L84.6986819,69.552 L124.791595,69.552 C124.194862,75.3613393 122.813409,80.9364132 120.755682,86.1681269 Z M115.379554,96.7680092 C106.218055,111.2561 91.3346374,121.72436 73.9297774,124.953211 L79.4084274,96.768 L115.37956,96.768 Z M1.71668235e-14,58.968 C0.357815711,53.2690864 1.46883059,47.7758849 3.23403125,42.588 L79.157855,42.588 L75.9739056,58.968 L1.42108547e-14,58.968 Z M125,58.968 L86.7560031,58.968 L89.9399525,42.588 L121.765969,42.588 C123.531169,47.7758849 124.642184,53.2690864 125,58.968 Z M7.96534505,32.0039852 C18.7206013,12.8956583 39.1132651,0 62.5,0 C71.0037625,0 79.1116618,1.70500862 86.5043155,4.7937372 L81.2151762,32.004 L7.96533673,32.004 Z M117.034663,32.004 L91.9972737,32.004 L96.285178,9.94464515 C104.858255,15.4807386 112.001674,23.0621344 117.034663,32.004 Z" id="Combined-Shape" fill="url(#radialGradient-1)"></path>
                <path d="M153.328767,36.173913 L153.328767,32.573913 L136,32.573913 L136,67.373913 L153.328767,67.373913 L153.328767,63.773913 L139.767123,63.773913 L139.767123,50.1565217 L152.977169,50.1565217 L152.977169,46.5565217 L139.767123,46.5565217 L139.767123,36.173913 L153.328767,36.173913 Z M175.429224,36.173913 L175.429224,32.573913 L160.210046,32.573913 L160.210046,67.373913 L163.977169,67.373913 L163.977169,50.1565217 L175.077626,50.1565217 L175.077626,46.5565217 L163.977169,46.5565217 L163.977169,36.173913 L175.429224,36.173913 Z M185.726027,32.573913 L181.958904,32.573913 L181.958904,67.373913 L185.726027,67.373913 L185.726027,32.573913 Z M198.182648,47.4956522 L198.182648,32.573913 L194.415525,32.573913 L194.415525,67.373913 L198.182648,67.373913 L198.182648,52.4 L199.136986,51.4086957 L212.849315,67.373913 L217.972603,67.373913 L201.748858,48.8 L217.47032,32.573913 L212.447489,32.573913 L198.182648,47.4956522 Z M240.324201,36.173913 L240.324201,32.573913 L222.995434,32.573913 L222.995434,67.373913 L240.324201,67.373913 L240.324201,63.773913 L226.762557,63.773913 L226.762557,50.1565217 L239.972603,50.1565217 L239.972603,46.5565217 L226.762557,46.5565217 L226.762557,36.173913 L240.324201,36.173913 Z M272.570776,35.4434783 C269.205479,32.9913043 266.392694,32 262.675799,32 C253.031963,32 245.146119,40.1391304 245.146119,50.1043478 C245.146119,59.8608696 253.031963,68 262.474886,68 C266.091324,68 269.255708,66.9565217 272.570776,64.6086957 L272.570776,59.8086957 C269.356164,62.9391304 266.191781,64.3478261 262.474886,64.3478261 C255.041096,64.3478261 248.913242,57.9304348 248.913242,50.1565217 C248.913242,42.226087 255.041096,35.6521739 262.424658,35.6521739 C266.191781,35.6521739 269.305936,37.0608696 272.570776,40.2434783 L272.570776,35.4434783 Z M294.621005,32 C285.178082,32 277.141553,40.1913043 277.141553,49.7913043 C277.141553,54.4869565 278.648402,58.6086957 281.461187,61.8956522 C284.776256,65.7043478 289.648402,68 294.420091,68 C304.114155,68 312,59.9652174 312,50 C312,40.1391304 304.114155,32 294.621005,32 Z M294.570776,35.6521739 C302.155251,35.6521739 308.232877,42.0695652 308.232877,50 C308.232877,57.9826087 302.105023,64.3478261 294.47032,64.3478261 C291.155251,64.3478261 287.739726,62.8869565 285.178082,60.3826087 C282.365297,57.6173913 280.908676,54.0695652 280.908676,49.7913043 C280.908676,42.0695652 287.086758,35.6521739 294.570776,35.6521739 Z" id="EFIKECO" fill="url(#linearGradient-2)"></path>
                <path d="M150.063586,75.6173913 C148.632177,73.2173913 146.592421,72 143.90853,72 C140.079513,72 137.216697,74.573913 137.216697,77.9826087 C137.216697,80.5217391 138.61232,82.1913043 142.0477,83.6869565 C145.375724,85.1478261 145.375724,85.1478261 146.270354,85.7043478 C147.594406,86.5043478 148.23854,87.5826087 148.23854,89.0086957 C148.23854,91.5478261 146.091428,93.5652174 143.443323,93.5652174 C141.868774,93.5652174 140.40158,92.8695652 139.542735,91.6869565 C139.077528,91.0608696 138.862816,90.5043478 138.576535,89.3217391 L136,90.0173913 C136.89463,93.8086957 139.578521,96 143.335967,96 C147.594406,96 150.922431,92.8695652 150.922431,88.8695652 C150.922431,85.9478261 149.347882,84.1043478 145.518865,82.4695652 C142.262411,81.0782609 142.262411,81.0782609 141.403566,80.5217391 C140.40158,79.8608696 139.900587,79.026087 139.900587,78.0173913 C139.900587,75.9652174 141.618277,74.4347826 143.83696,74.4347826 C145.697791,74.4347826 146.735562,75.0608696 147.952259,76.9391304 L150.063586,75.6173913 Z M166.882632,72 C160.155014,72 154.429381,77.4608696 154.429381,83.8608696 C154.429381,86.9913043 155.502937,89.7391304 157.506909,91.9304348 C159.868732,94.4695652 163.339897,96 166.739492,96 C173.646036,96 179.264313,90.6434783 179.264313,84 C179.264313,77.426087 173.646036,72 166.882632,72 Z M166.918417,74.4347826 C172.321983,74.4347826 176.651993,78.7130435 176.651993,84 C176.651993,89.3217391 172.286198,93.5652174 166.846847,93.5652174 C164.485023,93.5652174 162.051629,92.5913043 160.226584,90.9217391 C158.222612,89.0782609 157.184841,86.7130435 157.184841,83.8608696 C157.184841,78.7130435 161.586422,74.4347826 166.918417,74.4347826 Z M186.90323,72.4907683 L184.219339,72.4907683 L184.219339,95.6907683 L193.451922,95.6907683 L193.451922,93.2907683 L186.90323,93.2907683 L186.90323,72.4907683 Z M198.768721,72.2453842 L196.084831,72.2453842 L196.084831,87.1671233 C196.084831,89.7062537 196.514254,91.2366885 197.65938,92.6627755 C199.198144,94.6453842 201.882034,95.8627755 204.60171,95.8627755 C207.321385,95.8627755 209.933705,94.6453842 211.508254,92.6627755 C212.653381,91.2366885 213.082803,89.6714711 213.082803,87.1671233 L213.082803,72.2453842 L210.398913,72.2453842 L210.398913,86.4714711 C210.398913,88.8714711 210.219987,89.9149494 209.611639,90.923645 C208.681223,92.3845146 206.605681,93.4279929 204.60171,93.4279929 C202.561953,93.4279929 200.486411,92.3845146 199.555996,90.923645 C198.947647,89.9149494 198.768721,88.8714711 198.768721,86.4714711 L198.768721,72.2453842 Z M225.231636,74.8907683 L231.028839,74.8907683 L231.028839,72.4907683 L216.786327,72.4907683 L216.786327,74.8907683 L222.547745,74.8907683 L222.547745,95.6907683 L225.231636,95.6907683 L225.231636,74.8907683 Z M237.394684,72.4907683 L234.710794,72.4907683 L234.710794,95.6907683 L237.394684,95.6907683 L237.394684,72.4907683 Z M254.485306,72 C247.757688,72 242.032055,77.4608696 242.032055,83.8608696 C242.032055,86.9913043 243.105611,89.7391304 245.109582,91.9304348 C247.471406,94.4695652 250.942571,96 254.342165,96 C261.24871,96 266.866987,90.6434783 266.866987,84 C266.866987,77.426087 261.24871,72 254.485306,72 Z M254.556385,74.4347826 C259.95995,74.4347826 264.28996,78.7130435 264.28996,84 C264.28996,89.3217391 259.924165,93.5652174 254.484814,93.5652174 C252.122991,93.5652174 249.689597,92.5913043 247.864551,90.9217391 C245.86058,89.0782609 244.822809,86.7130435 244.822809,83.8608696 C244.822809,78.7130435 249.224389,74.4347826 254.556385,74.4347826 Z M271.822013,96 L274.505903,96 L274.505903,76.7960161 L290.394534,96 L293.078425,96 L293.078425,72 L290.394534,72 L290.394534,91.1938454 L274.505903,72 L271.822013,72 L271.822013,96 Z M312.141155,75.6173913 C310.709747,73.2173913 308.66999,72 305.9861,72 C302.157083,72 299.294266,74.573913 299.294266,77.9826087 C299.294266,80.5217391 300.689889,82.1913043 304.125269,83.6869565 C307.453293,85.1478261 307.453293,85.1478261 308.347923,85.7043478 C309.671976,86.5043478 310.31611,87.5826087 310.31611,89.0086957 C310.31611,91.5478261 308.168997,93.5652174 305.520892,93.5652174 C303.946343,93.5652174 302.47915,92.8695652 301.620305,91.6869565 C301.155097,91.0608696 300.940386,90.5043478 300.654104,89.3217391 L298.077569,90.0173913 C298.9722,93.8086957 301.65609,96 305.413537,96 C309.671976,96 313,92.8695652 313,88.8695652 C313,85.9478261 311.425451,84.1043478 307.596434,82.4695652 C304.33998,81.0782609 304.33998,81.0782609 303.481135,80.5217391 C302.47915,79.8608696 301.978157,79.026087 301.978157,78.0173913 C301.978157,75.9652174 303.695847,74.4347826 305.914529,74.4347826 C307.77536,74.4347826 308.813131,75.0608696 310.029828,76.9391304 L312.141155,75.6173913 Z" id="SOLUTIONS" fill="url(#linearGradient-3)"></path>
            </g>
        </g>
    </g>
</svg>