<?xml version="1.0" encoding="UTF-8"?>
<svg width="94px" height="110px" viewBox="0 0 94 110" version="1.1" xmlns="http://www.w3.org/2000/svg" xmlns:xlink="http://www.w3.org/1999/xlink">
    <!-- Generator: Sketch 48.2 (47327) - http://www.bohemiancoding.com/sketch -->
    <title>efikecoattempts4</title>
    <desc>Created with Sketch.</desc>
    <defs></defs>
    <g id="efikeco" stroke="none" stroke-width="1" fill="none" fill-rule="evenodd">
        <g id="efikecoattempts4" fill="#000000">
            <g id="Stacked-with-solutions">
                <g id="Stacked-Black">
                    <path d="M15.6396255,46.141196 C14.5614971,43.3669179 13.8367717,40.414253 13.5211988,37.3393335 L53.0534624,37.3393335 L51.3293991,46.2088699 L15.6396255,46.141196 Z M18.569594,51.9503771 L50.2133632,51.9503771 L47.1630373,67.6429434 C47.0864032,67.643461 47.0097081,67.6437202 46.9329529,67.6437202 C35.0054646,67.6437202 24.5299244,61.3845088 18.569599,51.9503851 Z M78.1799378,46.2597831 L57.1156885,46.2198417 L58.8418845,37.3393335 L80.3447071,37.3393335 C80.0246336,40.458106 79.2836542,43.4511118 78.1799378,46.2597831 Z M75.2963087,51.950382 C70.3817354,59.7292702 62.3973603,65.3496012 53.06043,67.0823382 L56.0017853,51.9503771 L75.2963119,51.9503771 Z M13.4094151,31.657261 C13.6013391,28.5977712 14.1972615,25.648719 15.1440738,22.8635774 L55.8672643,22.8635774 L54.1579454,31.657261 L13.4094151,31.657261 Z M80.4564967,31.657261 L59.9463675,31.657261 L61.6556864,22.8635774 L78.721832,22.8635774 C79.6686444,25.648719 80.2645668,28.5977712 80.4564907,31.657261 Z M17.6818399,17.181497 C23.4507077,6.92309764 34.3888555,0 46.9329529,0 C51.4952153,0 55.8450488,0.915760981 59.8110266,2.57467918 L56.9717473,17.1815049 L17.6818354,17.1815049 Z M76.1840705,17.1815049 L62.7601694,17.1815049 L65.0613009,5.34320987 C69.65669,8.31490537 73.4858177,12.383376 76.1840705,17.1815049 Z" id="Combined-Shape"></path>
                    <path d="M9.25249643,74.5281899 L9.25249643,72.6649852 L0,72.6649852 L0,90.6759644 L9.25249643,90.6759644 L9.25249643,88.8127596 L2.01141227,88.8127596 L2.01141227,81.7649852 L9.06476462,81.7649852 L9.06476462,79.9017804 L2.01141227,79.9017804 L2.01141227,74.5281899 L9.25249643,74.5281899 Z M21.0527817,74.5281899 L21.0527817,72.6649852 L12.9266762,72.6649852 L12.9266762,90.6759644 L14.9380884,90.6759644 L14.9380884,81.7649852 L20.8650499,81.7649852 L20.8650499,79.9017804 L14.9380884,79.9017804 L14.9380884,74.5281899 L21.0527817,74.5281899 Z M26.5506419,72.6649852 L24.5392297,72.6649852 L24.5392297,90.6759644 L26.5506419,90.6759644 L26.5506419,72.6649852 Z M33.2017118,80.3878338 L33.2017118,72.6649852 L31.1902996,72.6649852 L31.1902996,90.6759644 L33.2017118,90.6759644 L33.2017118,82.9261128 L33.7112696,82.4130564 L41.0328103,90.6759644 L43.768331,90.6759644 L35.1058488,81.062908 L43.5001427,72.6649852 L40.8182596,72.6649852 L33.2017118,80.3878338 Z M55.7027104,74.5281899 L55.7027104,72.6649852 L46.450214,72.6649852 L46.450214,90.6759644 L55.7027104,90.6759644 L55.7027104,88.8127596 L48.4616262,88.8127596 L48.4616262,81.7649852 L55.5149786,81.7649852 L55.5149786,79.9017804 L48.4616262,79.9017804 L48.4616262,74.5281899 L55.7027104,74.5281899 Z M72.9203994,74.1501484 C71.1235378,72.8810089 69.6216833,72.3679525 67.6370899,72.3679525 C62.4878745,72.3679525 58.2773181,76.5804154 58.2773181,81.7379822 C58.2773181,86.7875371 62.4878745,91 67.5298146,91 C69.4607703,91 71.1503566,90.4599407 72.9203994,89.2448071 L72.9203994,86.7605341 C71.2039943,88.3807122 69.514408,89.1097923 67.5298146,89.1097923 C63.5606277,89.1097923 60.2887304,85.7884273 60.2887304,81.7649852 C60.2887304,77.6605341 63.5606277,74.2581602 67.5029957,74.2581602 C69.514408,74.2581602 71.1771755,74.9872404 72.9203994,76.6344214 L72.9203994,74.1501484 Z M84.6938659,72.3679525 C79.6519258,72.3679525 75.360913,76.6074184 75.360913,81.5759644 C75.360913,84.0062315 76.1654779,86.1394659 77.6673324,87.8406528 C79.4373752,89.8118694 82.0388017,91 84.5865906,91 C89.7626248,91 93.9731812,86.841543 93.9731812,81.6839763 C93.9731812,76.5804154 89.7626248,72.3679525 84.6938659,72.3679525 Z M84.6670471,74.2581602 C88.7166904,74.2581602 91.9617689,77.5795252 91.9617689,81.6839763 C91.9617689,85.8154303 88.6898716,89.1097923 84.6134094,89.1097923 C82.8433666,89.1097923 81.0196862,88.3537092 79.6519258,87.0575668 C78.1500713,85.6264095 77.3723252,83.7902077 77.3723252,81.5759644 C77.3723252,77.5795252 80.6710414,74.2581602 84.6670471,74.2581602 Z" id="EFIKECO"></path>
                </g>
                <path d="M7.47208738,98.3365517 C6.71156958,97.0041379 5.62783172,96.3282759 4.20186084,96.3282759 C2.16747573,96.3282759 0.646440129,97.7572414 0.646440129,99.6496552 C0.646440129,101.05931 1.38794498,101.986207 3.2131877,102.816552 C4.98139159,103.627586 4.98139159,103.627586 5.45671521,103.936552 C6.16019417,104.38069 6.50242718,104.97931 6.50242718,105.771034 C6.50242718,107.18069 5.36165049,108.30069 3.95469256,108.30069 C3.11812298,108.30069 2.33859223,107.914483 1.88228155,107.257931 C1.63511327,106.910345 1.5210356,106.601379 1.36893204,105.944828 L0,106.331034 C0.475323625,108.435862 1.9012945,109.652414 3.89765372,109.652414 C6.16019417,109.652414 7.92839806,107.914483 7.92839806,105.693793 C7.92839806,104.071724 7.09182848,103.048276 5.05744337,102.14069 C3.32726537,101.368276 3.32726537,101.368276 2.87095469,101.05931 C2.33859223,100.692414 2.072411,100.228966 2.072411,99.6689655 C2.072411,98.5296552 2.98503236,97.68 4.16383495,97.68 C5.15250809,97.68 5.7038835,98.0275862 6.35032362,99.0703448 L7.47208738,98.3365517 Z M16.4461974,96.3282759 C12.8717638,96.3282759 9.82969256,99.36 9.82969256,102.913103 C9.82969256,104.651034 10.4000809,106.176552 11.4648058,107.393103 C12.7196602,108.802759 14.5639159,109.652414 16.3701456,109.652414 C20.039644,109.652414 23.0246764,106.678621 23.0246764,102.990345 C23.0246764,99.3406897 20.039644,96.3282759 16.4461974,96.3282759 Z M16.4271845,97.68 C19.2981392,97.68 21.5987055,100.055172 21.5987055,102.990345 C21.5987055,105.944828 19.2791262,108.30069 16.3891586,108.30069 C15.1343042,108.30069 13.8414239,107.76 12.8717638,106.833103 C11.8070388,105.809655 11.2556634,104.496552 11.2556634,102.913103 C11.2556634,100.055172 13.5942557,97.68 16.4271845,97.68 Z M27.0554207,96.5406897 L25.6294498,96.5406897 L25.6294498,109.42069 L30.5347896,109.42069 L30.5347896,108.088276 L27.0554207,108.088276 L27.0554207,96.5406897 Z M33.3867314,96.5406897 L31.9607605,96.5406897 L31.9607605,104.824828 C31.9607605,106.234483 32.1889159,107.084138 32.7973301,107.875862 C33.6148867,108.976552 35.0408576,109.652414 36.4858414,109.652414 C37.9308252,109.652414 39.3187702,108.976552 40.1553398,107.875862 C40.763754,107.084138 40.9919094,106.215172 40.9919094,104.824828 L40.9919094,96.5406897 L39.5659385,96.5406897 L39.5659385,104.438621 C39.5659385,105.771034 39.4708738,106.350345 39.1476537,106.910345 C38.6533172,107.721379 37.5505663,108.30069 36.4858414,108.30069 C35.4021036,108.30069 34.2993528,107.721379 33.8050162,106.910345 C33.4817961,106.350345 33.3867314,105.771034 33.3867314,104.438621 L33.3867314,96.5406897 Z M47.3802589,97.8731034 L50.460356,97.8731034 L50.460356,96.5406897 L42.8932039,96.5406897 L42.8932039,97.8731034 L45.954288,97.8731034 L45.954288,109.42069 L47.3802589,109.42069 L47.3802589,97.8731034 Z M53.8066343,96.5406897 L52.3806634,96.5406897 L52.3806634,109.42069 L53.8066343,109.42069 L53.8066343,96.5406897 Z M63.0088997,96.3282759 C59.434466,96.3282759 56.3923948,99.36 56.3923948,102.913103 C56.3923948,104.651034 56.9627832,106.176552 58.0275081,107.393103 C59.2823625,108.802759 61.1266181,109.652414 62.9328479,109.652414 C66.6023463,109.652414 69.5873786,106.678621 69.5873786,102.990345 C69.5873786,99.3406897 66.6023463,96.3282759 63.0088997,96.3282759 Z M62.9898867,97.68 C65.8608414,97.68 68.1614078,100.055172 68.1614078,102.990345 C68.1614078,105.944828 65.8418285,108.30069 62.9518608,108.30069 C61.6970065,108.30069 60.4041262,107.76 59.434466,106.833103 C58.3697411,105.809655 57.8183657,104.496552 57.8183657,102.913103 C57.8183657,100.055172 60.1569579,97.68 62.9898867,97.68 Z M72.1921521,109.42069 L73.618123,109.42069 L73.618123,99.4951724 L83.4858414,110 L83.4858414,96.5406897 L82.0598706,96.5406897 L82.0598706,106.524138 L72.1921521,96 L72.1921521,109.42069 Z M93.5436893,98.3365517 C92.7831715,97.0041379 91.6994337,96.3282759 90.2734628,96.3282759 C88.2390777,96.3282759 86.7180421,97.7572414 86.7180421,99.6496552 C86.7180421,101.05931 87.4595469,101.986207 89.2847896,102.816552 C91.0529935,103.627586 91.0529935,103.627586 91.5283172,103.936552 C92.2317961,104.38069 92.5740291,104.97931 92.5740291,105.771034 C92.5740291,107.18069 91.4332524,108.30069 90.0262945,108.30069 C89.1897249,108.30069 88.4101942,107.914483 87.9538835,107.257931 C87.7067152,106.910345 87.5926375,106.601379 87.440534,105.944828 L86.0716019,106.331034 C86.5469256,108.435862 87.9728964,109.652414 89.9692557,109.652414 C92.2317961,109.652414 94,107.914483 94,105.693793 C94,104.071724 93.1634304,103.048276 91.1290453,102.14069 C89.3988673,101.368276 89.3988673,101.368276 88.9425566,101.05931 C88.4101942,100.692414 88.1440129,100.228966 88.1440129,99.6689655 C88.1440129,98.5296552 89.0566343,97.68 90.2354369,97.68 C91.22411,97.68 91.7754854,98.0275862 92.4219256,99.0703448 L93.5436893,98.3365517 Z" id="SOLUTIONS"></path>
            </g>
        </g>
    </g>
</svg>