<?xml version="1.0" encoding="UTF-8"?>
<svg width="199px" height="40px" viewBox="0 0 199 40" version="1.1" xmlns="http://www.w3.org/2000/svg" xmlns:xlink="http://www.w3.org/1999/xlink">
    <!-- Generator: Sketch 48.2 (47327) - http://www.bohemiancoding.com/sketch -->
    <title>efikecoattempts2</title>
    <desc>Created with Sketch.</desc>
    <defs></defs>
    <g id="efikeco" stroke="none" stroke-width="1" fill="none" fill-rule="evenodd">
        <g id="efikecoattempts2" fill="#000000">
            <g id="EfikecO">
                <path d="M160.330534,27.2848364 C159.687327,25.6443127 159.254959,23.898303 159.06669,22.08 L182.669655,22.08 L181.650149,27.3249055 L160.330534,27.2848364 Z M162.07854,30.72 L180.990209,30.72 L179.186525,39.9991517 C179.124416,39.9997168 179.06224,40 178.999998,40 C171.88411,40 165.634448,36.2987184 162.078543,30.7200047 Z M197.641815,27.3549609 L185.071787,27.3313363 L186.092543,22.08 L198.933307,22.08 C198.742352,23.9242347 198.300287,25.6940994 197.641815,27.3549609 Z M195.921456,30.72 C192.992746,35.3147362 188.23673,38.6359195 182.67445,39.6645639 L184.413097,30.72 L195.921456,30.72 Z M159,18.72 C159.114501,16.9108211 159.470026,15.1669476 160.03489,13.52 L184.33355,13.52 L183.322773,18.72 L159,18.72 Z M199,18.72 L186.745661,18.72 L187.756438,13.52 L197.965107,13.52 C198.529971,15.1669476 198.885495,16.9108211 198.999996,18.72 Z M161.54891,10.1599953 C164.990592,4.09385979 171.516244,0 178.999998,0 C181.715661,0 184.305162,0.539070316 186.666923,1.5158364 L184.986668,10.16 L161.548908,10.16 Z M196.451089,10.16 L188.409556,10.16 L189.775266,3.13403061 C192.534649,4.89349548 194.833495,7.30890888 196.451089,10.16 Z" id="Combined-Shape"></path>
                <path d="M19.4133873,4.4057971 L19.4133873,0.605797101 L0,0.605797101 L0,37.3391304 L19.4133873,37.3391304 L19.4133873,33.5391304 L4.22030158,33.5391304 L4.22030158,19.1652174 L19.0194925,19.1652174 L19.0194925,15.3652174 L4.22030158,15.3652174 L4.22030158,4.4057971 L19.4133873,4.4057971 Z M44.1724899,4.4057971 L44.1724899,0.605797101 L27.1224715,0.605797101 L27.1224715,37.3391304 L31.3427731,37.3391304 L31.3427731,19.1652174 L43.7785951,19.1652174 L43.7785951,15.3652174 L31.3427731,15.3652174 L31.3427731,4.4057971 L44.1724899,4.4057971 Z M55.7079809,0.605797101 L51.4876793,0.605797101 L51.4876793,37.3391304 L55.7079809,37.3391304 L55.7079809,0.605797101 Z M69.6631114,16.3565217 L69.6631114,0.605797101 L65.4428099,0.605797101 L65.4428099,37.3391304 L69.6631114,37.3391304 L69.6631114,21.5333333 L70.7322545,20.4869565 L86.0941523,37.3391304 L91.8337624,37.3391304 L73.6583303,17.7333333 L91.2710555,0.605797101 L85.6439868,0.605797101 L69.6631114,16.3565217 Z M116.874218,4.4057971 L116.874218,0.605797101 L97.4608312,0.605797101 L97.4608312,37.3391304 L116.874218,37.3391304 L116.874218,33.5391304 L101.681133,33.5391304 L101.681133,19.1652174 L116.480324,19.1652174 L116.480324,15.3652174 L101.681133,15.3652174 L101.681133,4.4057971 L116.874218,4.4057971 Z M153,3.63478261 C149.229864,1.04637681 146.078705,0 141.914675,0 C131.110702,0 122.276204,8.59130435 122.276204,19.1101449 C122.276204,29.4086957 131.110702,38 141.689592,38 C145.741081,38 149.286135,36.8985507 153,34.4202899 L153,29.3536232 C149.398676,32.657971 145.853623,34.1449275 141.689592,34.1449275 C133.36153,34.1449275 126.496506,27.3710145 126.496506,19.1652174 C126.496506,10.7942029 133.36153,3.85507246 141.633321,3.85507246 C145.853623,3.85507246 149.342405,5.34202899 153,8.70144928 L153,3.63478261 Z" id="EFIKECO"></path>
            </g>
        </g>
    </g>
</svg>