<?xml version="1.0" encoding="UTF-8"?>
<svg width="115px" height="110px" viewBox="0 0 115 110" version="1.1" xmlns="http://www.w3.org/2000/svg" xmlns:xlink="http://www.w3.org/1999/xlink">
    <!-- Generator: Sketch 48.2 (47327) - http://www.bohemiancoding.com/sketch -->
    <title>efikecoattempts3</title>
    <desc>Created with Sketch.</desc>
    <defs></defs>
    <g id="efikeco" stroke="none" stroke-width="1" fill="none" fill-rule="evenodd">
        <g id="efikecoattempts3" fill="#000000">
            <g id="Stacked-Black">
                <path d="M19.6943311,55.9339147 C18.3918374,52.5708411 17.5162922,48.9915211 17.1350466,45.264 L64.8799569,45.264 L62.7899972,56.0159106 L19.6943311,55.9339147 Z M23.2340445,62.976 L61.4370928,62.976 L57.7393375,81.9993019 C57.6596114,81.9997671 57.5798308,82 57.4999964,82 C43.0903229,82 30.434757,74.4123728 23.2340506,62.9760097 Z M95.2496749,56.0776699 L69.8043236,56.0292564 L71.8968775,45.264 L97.8649463,45.264 C97.4782635,49.0446812 96.5830817,52.6729039 95.2496749,56.0776699 Z M91.7659446,62.976006 C85.8260262,72.4099524 76.1742232,79.2249384 64.8878693,81.3222214 L68.4540134,62.976 L91.7659483,62.976 Z M17,38.376 C17.2318646,34.6671832 17.9518021,31.0922426 19.0956521,27.716 L68.2909425,27.716 L66.2188485,38.376 L17,38.376 Z M98,38.376 L73.235769,38.376 L75.3078631,27.716 L95.9043408,27.716 C97.0481907,31.0922426 97.7681283,34.6671832 97.9999928,38.376 Z M22.1615431,20.8279904 C29.1309486,8.39241256 42.3453935,0 57.4999964,0 C63.0165253,0 68.2759675,1.11206328 73.070676,3.12640307 L69.6298341,20.828 L22.1615377,20.828 Z M92.8384551,20.828 L76.6467547,20.828 L79.4323071,6.49757547 C84.9700958,10.0981785 89.5848148,15.0224944 92.8384551,20.828 Z" id="Combined-Shape"></path>
                <path d="M11.322774,90.5507246 L11.322774,88.3507246 L0,88.3507246 L0,109.617391 L11.322774,109.617391 L11.322774,107.417391 L2.4614726,107.417391 L2.4614726,99.0956522 L11.0930365,99.0956522 L11.0930365,96.8956522 L2.4614726,96.8956522 L2.4614726,90.5507246 L11.322774,90.5507246 Z M25.7634132,90.5507246 L25.7634132,88.3507246 L15.8190639,88.3507246 L15.8190639,109.617391 L18.2805365,109.617391 L18.2805365,99.0956522 L25.5336758,99.0956522 L25.5336758,96.8956522 L18.2805365,96.8956522 L18.2805365,90.5507246 L25.7634132,90.5507246 Z M32.4914384,88.3507246 L30.0299658,88.3507246 L30.0299658,109.617391 L32.4914384,109.617391 L32.4914384,88.3507246 Z M40.6307078,97.4695652 L40.6307078,88.3507246 L38.1692352,88.3507246 L38.1692352,109.617391 L40.6307078,109.617391 L40.6307078,100.466667 L41.2542808,99.8608696 L50.2140411,109.617391 L53.5616438,109.617391 L42.9609018,98.2666667 L53.2334475,88.3507246 L49.951484,88.3507246 L40.6307078,97.4695652 Z M68.1663813,90.5507246 L68.1663813,88.3507246 L56.8436073,88.3507246 L56.8436073,109.617391 L68.1663813,109.617391 L68.1663813,107.417391 L59.3050799,107.417391 L59.3050799,99.0956522 L67.9366438,99.0956522 L67.9366438,96.8956522 L59.3050799,96.8956522 L59.3050799,90.5507246 L68.1663813,90.5507246 Z M89.2365868,90.1043478 C87.0376712,88.6057971 85.1997717,88 82.7711187,88 C76.4697489,88 71.3170662,92.973913 71.3170662,99.0637681 C71.3170662,105.026087 76.4697489,110 82.6398402,110 C85.0028539,110 87.0704909,109.362319 89.2365868,107.927536 L89.2365868,104.994203 C87.1361301,106.907246 85.0684932,107.768116 82.6398402,107.768116 C77.7825342,107.768116 73.7785388,103.846377 73.7785388,99.0956522 C73.7785388,94.2492754 77.7825342,90.2318841 82.6070205,90.2318841 C85.0684932,90.2318841 87.1033105,91.0927536 89.2365868,93.0376812 L89.2365868,90.1043478 Z M103.644406,88 C97.4743151,88 92.2231735,93.0057971 92.2231735,98.8724638 C92.2231735,101.742029 93.2077626,104.26087 95.0456621,106.269565 C97.211758,108.597101 100.395263,110 103.513128,110 C109.847317,110 115,105.089855 115,99 C115,92.973913 109.847317,88 103.644406,88 Z M103.611587,90.2318841 C108.567352,90.2318841 112.538527,94.1536232 112.538527,99 C112.538527,103.878261 108.534532,107.768116 103.545947,107.768116 C101.379852,107.768116 99.1481164,106.875362 97.4743151,105.344928 C95.6364155,103.655072 94.6846461,101.486957 94.6846461,98.8724638 C94.6846461,94.1536232 98.7214612,90.2318841 103.611587,90.2318841 Z" id="EFIKECO"></path>
            </g>
        </g>
    </g>
</svg>