<?xml version="1.0" encoding="UTF-8"?>
<svg width="312px" height="126px" viewBox="0 0 312 126" version="1.1" xmlns="http://www.w3.org/2000/svg" xmlns:xlink="http://www.w3.org/1999/xlink">
    <!-- Generator: Sketch 48.2 (47327) - http://www.bohemiancoding.com/sketch -->
    <title>efikecologo2</title>
    <desc>Created with Sketch.</desc>
    <defs></defs>
    <g id="efikeco" stroke="none" stroke-width="1" fill="none" fill-rule="evenodd">
        <g id="efikecologo2" fill="#000000">
            <g id="Group">
                <path d="M4.1911821,85.9472348 C2.16508062,80.7795851 0.8031213,75.2796544 0.210072443,69.552 L74.5594201,69.552 L71.3479751,86.0734523 L4.1911821,85.9472348 Z M9.69740338,96.768 L69.2691656,96.768 L63.5875599,125.997328 C63.3919179,125.999108 63.1960633,126 63,126 C40.5849503,126 20.8985128,114.340963 9.69741286,96.7680149 Z M121.721727,86.1681269 L82.1261351,86.0937092 L85.3415176,69.552 L125.789928,69.552 C125.188421,75.3613393 123.795916,80.9364132 121.721727,86.1681269 Z M116.302597,96.768 C107.07716,111.241419 92.0957076,121.703146 74.5745248,124.943376 L80.0512631,96.768 L116.302597,96.768 Z M6.42541576e-15,58.968 C0.360678237,53.2690864 1.48058124,47.7758849 3.2599035,42.588 L79.8006908,42.588 L76.6167413,58.968 L3.55271368e-15,58.968 Z M126,58.968 L87.3988388,58.968 L90.5827883,42.588 L122.740097,42.588 C124.519419,47.7758849 125.639322,53.2690864 126,58.968 Z M8.02906781,32.0039852 C18.8703661,12.8956583 39.4261712,0 63,0 C71.5543367,0 79.7112669,1.69807142 87.1508159,4.77488446 L81.858012,32.004 L8.02905943,32.004 Z M117.970941,32.004 L92.6401095,32.004 L96.9420964,9.87219563 C105.634154,15.41451 112.87552,23.0230625 117.970941,32.004 Z" id="Combined-Shape"></path>
                <path d="M152.328767,36.057971 L152.328767,32.557971 L135,32.557971 L135,66.3913043 L152.328767,66.3913043 L152.328767,62.8913043 L138.767123,62.8913043 L138.767123,49.6521739 L151.977169,49.6521739 L151.977169,46.1521739 L138.767123,46.1521739 L138.767123,36.057971 L152.328767,36.057971 Z M174.429224,36.057971 L174.429224,32.557971 L159.210046,32.557971 L159.210046,66.3913043 L162.977169,66.3913043 L162.977169,49.6521739 L174.077626,49.6521739 L174.077626,46.1521739 L162.977169,46.1521739 L162.977169,36.057971 L174.429224,36.057971 Z M184.726027,32.557971 L180.958904,32.557971 L180.958904,66.3913043 L184.726027,66.3913043 L184.726027,32.557971 Z M197.182648,47.0652174 L197.182648,32.557971 L193.415525,32.557971 L193.415525,66.3913043 L197.182648,66.3913043 L197.182648,51.8333333 L198.136986,50.8695652 L211.849315,66.3913043 L216.972603,66.3913043 L200.748858,48.3333333 L216.47032,32.557971 L211.447489,32.557971 L197.182648,47.0652174 Z M239.324201,36.057971 L239.324201,32.557971 L221.995434,32.557971 L221.995434,66.3913043 L239.324201,66.3913043 L239.324201,62.8913043 L225.762557,62.8913043 L225.762557,49.6521739 L238.972603,49.6521739 L238.972603,46.1521739 L225.762557,46.1521739 L225.762557,36.057971 L239.324201,36.057971 Z M271.570776,35.3478261 C268.205479,32.9637681 265.392694,32 261.675799,32 C252.031963,32 244.146119,39.9130435 244.146119,49.6014493 C244.146119,59.0869565 252.031963,67 261.474886,67 C265.091324,67 268.255708,65.9855072 271.570776,63.7028986 L271.570776,59.0362319 C268.356164,62.0797101 265.191781,63.4492754 261.474886,63.4492754 C254.041096,63.4492754 247.913242,57.2101449 247.913242,49.6521739 C247.913242,41.942029 254.041096,35.5507246 261.424658,35.5507246 C265.191781,35.5507246 268.305936,36.9202899 271.570776,40.0144928 L271.570776,35.3478261 Z M293.621005,32 C284.178082,32 276.141553,39.9637681 276.141553,49.2971014 C276.141553,53.8623188 277.648402,57.8695652 280.461187,61.0652174 C283.776256,64.7681159 288.648402,67 293.420091,67 C303.114155,67 311,59.1884058 311,49.5 C311,39.9130435 303.114155,32 293.621005,32 Z M293.570776,35.5507246 C301.155251,35.5507246 307.232877,41.7898551 307.232877,49.5 C307.232877,57.2608696 301.105023,63.4492754 293.47032,63.4492754 C290.155251,63.4492754 286.739726,62.0289855 284.178082,59.5942029 C281.365297,56.9057971 279.908676,53.4565217 279.908676,49.2971014 C279.908676,41.7898551 286.086758,35.5507246 293.570776,35.5507246 Z" id="EFIKECO"></path>
                <path d="M149.063586,75.7681159 C147.632177,73.2681159 145.592421,72 142.90853,72 C139.079513,72 136.216697,74.6811594 136.216697,78.2318841 C136.216697,80.8768116 137.61232,82.615942 141.0477,84.173913 C144.375724,85.6956522 144.375724,85.6956522 145.270354,86.2753623 C146.594406,87.1086957 147.23854,88.2318841 147.23854,89.7173913 C147.23854,92.3623188 145.091428,94.4637681 142.443323,94.4637681 C140.868774,94.4637681 139.40158,93.7391304 138.542735,92.5072464 C138.077528,91.8550725 137.862816,91.2753623 137.576535,90.0434783 L135,90.7681159 C135.89463,94.7173913 138.578521,97 142.335967,97 C146.594406,97 149.922431,93.7391304 149.922431,89.5724638 C149.922431,86.5289855 148.347882,84.6086957 144.518865,82.9057971 C141.262411,81.4565217 141.262411,81.4565217 140.403566,80.8768116 C139.40158,80.1884058 138.900587,79.3188406 138.900587,78.2681159 C138.900587,76.1304348 140.618277,74.5362319 142.83696,74.5362319 C144.697791,74.5362319 145.735562,75.1884058 146.952259,77.1449275 L149.063586,75.7681159 Z M165.882632,72 C159.155014,72 153.429381,77.6884058 153.429381,84.3550725 C153.429381,87.615942 154.502937,90.4782609 156.506909,92.7608696 C158.868732,95.4057971 162.339897,97 165.739492,97 C172.646036,97 178.264313,91.4202899 178.264313,84.5 C178.264313,77.6521739 172.646036,72 165.882632,72 Z M165.918417,74.5362319 C171.321983,74.5362319 175.651993,78.9927536 175.651993,84.5 C175.651993,90.0434783 171.286198,94.4637681 165.846847,94.4637681 C163.485023,94.4637681 161.051629,93.4492754 159.226584,91.7101449 C157.222612,89.7898551 156.184841,87.326087 156.184841,84.3550725 C156.184841,78.9927536 160.586422,74.5362319 165.918417,74.5362319 Z M185.90323,72.511217 L183.219339,72.511217 L183.219339,96.6778837 L192.451922,96.6778837 L192.451922,94.1778837 L185.90323,94.1778837 L185.90323,72.511217 Z M197.768721,72.2556085 L195.084831,72.2556085 L195.084831,87.7990868 C195.084831,90.4440143 195.514254,92.0382172 196.65938,93.5237244 C198.198144,95.5889418 200.882034,96.8570578 203.60171,96.8570578 C206.321385,96.8570578 208.933705,95.5889418 210.508254,93.5237244 C211.653381,92.0382172 212.082803,90.4077824 212.082803,87.7990868 L212.082803,72.2556085 L209.398913,72.2556085 L209.398913,87.0744491 C209.398913,89.5744491 209.219987,90.6614056 208.611639,91.7121302 C207.681223,93.2338694 205.605681,94.3208259 203.60171,94.3208259 C201.561953,94.3208259 199.486411,93.2338694 198.555996,91.7121302 C197.947647,90.6614056 197.768721,89.5744491 197.768721,87.0744491 L197.768721,72.2556085 Z M224.231636,75.011217 L230.028839,75.011217 L230.028839,72.511217 L215.786327,72.511217 L215.786327,75.011217 L221.547745,75.011217 L221.547745,96.6778837 L224.231636,96.6778837 L224.231636,75.011217 Z M236.394684,72.511217 L233.710794,72.511217 L233.710794,96.6778837 L236.394684,96.6778837 L236.394684,72.511217 Z M253.485306,72 C246.757688,72 241.032055,77.6884058 241.032055,84.3550725 C241.032055,87.615942 242.105611,90.4782609 244.109582,92.7608696 C246.471406,95.4057971 249.942571,97 253.342165,97 C260.24871,97 265.866987,91.4202899 265.866987,84.5 C265.866987,77.6521739 260.24871,72 253.485306,72 Z M253.556385,74.5362319 C258.95995,74.5362319 263.28996,78.9927536 263.28996,84.5 C263.28996,90.0434783 258.924165,94.4637681 253.484814,94.4637681 C251.122991,94.4637681 248.689597,93.4492754 246.864551,91.7101449 C244.86058,89.7898551 243.822809,87.326087 243.822809,84.3550725 C243.822809,78.9927536 248.224389,74.5362319 253.556385,74.5362319 Z M270.822013,97 L273.505903,97 L273.505903,76.9958501 L289.394534,97 L292.078425,97 L292.078425,72 L289.394534,72 L289.394534,91.993589 L273.505903,72 L270.822013,72 L270.822013,97 Z M311.141155,75.7681159 C309.709747,73.2681159 307.66999,72 304.9861,72 C301.157083,72 298.294266,74.6811594 298.294266,78.2318841 C298.294266,80.8768116 299.689889,82.615942 303.125269,84.173913 C306.453293,85.6956522 306.453293,85.6956522 307.347923,86.2753623 C308.671976,87.1086957 309.31611,88.2318841 309.31611,89.7173913 C309.31611,92.3623188 307.168997,94.4637681 304.520892,94.4637681 C302.946343,94.4637681 301.47915,93.7391304 300.620305,92.5072464 C300.155097,91.8550725 299.940386,91.2753623 299.654104,90.0434783 L297.077569,90.7681159 C297.9722,94.7173913 300.65609,97 304.413537,97 C308.671976,97 312,93.7391304 312,89.5724638 C312,86.5289855 310.425451,84.6086957 306.596434,82.9057971 C303.33998,81.4565217 303.33998,81.4565217 302.481135,80.8768116 C301.47915,80.1884058 300.978157,79.3188406 300.978157,78.2681159 C300.978157,76.1304348 302.695847,74.5362319 304.914529,74.5362319 C306.77536,74.5362319 307.813131,75.1884058 309.029828,77.1449275 L311.141155,75.7681159 Z" id="SOLUTIONS"></path>
            </g>
        </g>
    </g>
</svg>