<?xml version="1.0" encoding="UTF-8"?>
<svg width="655px" height="126px" viewBox="0 0 655 126" version="1.1" xmlns="http://www.w3.org/2000/svg" xmlns:xlink="http://www.w3.org/1999/xlink">
    <!-- Generator: Sketch 47.1 (45422) - http://www.bohemiancoding.com/sketch -->
    <title>efikecologos</title>
    <desc>Created with Sketch.</desc>
    <defs>
        <radialGradient cx="70.2860507%" cy="50%" fx="70.2860507%" fy="50%" r="86.4361248%" gradientTransform="translate(0.702861,0.500000),scale(1.000000,0.992063),rotate(180.000000),translate(-0.702861,-0.500000)" id="radialGradient-1">
            <stop stop-color="#383971" offset="0%"></stop>
            <stop stop-color="#140244" offset="100%"></stop>
        </radialGradient>
        <linearGradient x1="50%" y1="0%" x2="50%" y2="100%" id="linearGradient-2">
            <stop stop-color="#2D2561" offset="0%"></stop>
            <stop stop-color="#140244" offset="100%"></stop>
        </linearGradient>
        <linearGradient x1="50%" y1="50%" x2="50%" y2="0%" id="linearGradient-3">
            <stop stop-color="#2D2561" offset="0%"></stop>
            <stop stop-color="#140244" offset="100%"></stop>
        </linearGradient>
    </defs>
    <g id="efikeco" stroke="none" stroke-width="1" fill="none" fill-rule="evenodd">
        <g id="efikecologos">
            <g id="Group">
                <path d="M4.15791875,85.9472348 C2.14789744,80.7795851 0.796747322,75.2796544 0.208405202,69.552 L73.9165844,69.552 L70.7051676,86.0733072 L4.15791875,85.9472348 Z M9.62044927,96.7680149 C20.7326516,114.340963 40.2628475,126 62.5,126 C62.6482898,126 62.7964593,125.999482 62.9445067,125.998446 L68.6263299,96.768 L9.62043987,96.768 Z M120.755682,86.1681269 C122.813409,80.9364132 124.194862,75.3613393 124.791595,69.552 L84.6986819,69.552 L81.483296,86.0937262 L120.755682,86.1681269 Z M115.379554,96.7680092 C106.218055,111.2561 91.3346374,121.72436 73.9297774,124.953211 L79.4084274,96.768 L115.37956,96.768 Z M1.71668235e-14,58.968 C0.357815711,53.2690864 1.46883059,47.7758849 3.23403125,42.588 L79.157855,42.588 L75.9739056,58.968 L1.48769885e-14,58.968 Z M125,58.968 C124.642184,53.2690864 123.531169,47.7758849 121.765969,42.588 L89.9399525,42.588 L86.7560031,58.968 L125,58.968 Z M7.96534505,32.0039852 C18.7206013,12.8956583 39.1132651,0 62.5,0 C71.0037625,0 79.1116618,1.70500862 86.5043155,4.7937372 L81.2151762,32.004 L7.96533673,32.004 Z M117.034663,32.004 C112.001674,23.0621344 104.858255,15.4807386 96.2851779,9.944649 L91.9972737,32.004 L117.034663,32.004 Z" id="Combined-Shape" fill="url(#radialGradient-1)"></path>
                <path d="M153.328767,36.173913 L153.328767,32.573913 L136,32.573913 L136,67.373913 L153.328767,67.373913 L153.328767,63.773913 L139.767123,63.773913 L139.767123,50.1565217 L152.977169,50.1565217 L152.977169,46.5565217 L139.767123,46.5565217 L139.767123,36.173913 L153.328767,36.173913 Z M175.429224,36.173913 L175.429224,32.573913 L160.210046,32.573913 L160.210046,67.373913 L163.977169,67.373913 L163.977169,50.1565217 L175.077626,50.1565217 L175.077626,46.5565217 L163.977169,46.5565217 L163.977169,36.173913 L175.429224,36.173913 Z M185.726027,32.573913 L181.958904,32.573913 L181.958904,67.373913 L185.726027,67.373913 L185.726027,32.573913 Z M198.182648,47.4956522 L198.182648,32.573913 L194.415525,32.573913 L194.415525,67.373913 L198.182648,67.373913 L198.182648,52.4 L199.136986,51.4086957 L212.849315,67.373913 L217.972603,67.373913 L201.748858,48.8 L217.47032,32.573913 L212.447489,32.573913 L198.182648,47.4956522 Z M240.324201,36.173913 L240.324201,32.573913 L222.995434,32.573913 L222.995434,67.373913 L240.324201,67.373913 L240.324201,63.773913 L226.762557,63.773913 L226.762557,50.1565217 L239.972603,50.1565217 L239.972603,46.5565217 L226.762557,46.5565217 L226.762557,36.173913 L240.324201,36.173913 Z M272.570776,35.4434783 C269.205479,32.9913043 266.392694,32 262.675799,32 C253.031963,32 245.146119,40.1391304 245.146119,50.1043478 C245.146119,59.8608696 253.031963,68 262.474886,68 C266.091324,68 269.255708,66.9565217 272.570776,64.6086957 L272.570776,59.8086957 C269.356164,62.9391304 266.191781,64.3478261 262.474886,64.3478261 C255.041096,64.3478261 248.913242,57.9304348 248.913242,50.1565217 C248.913242,42.226087 255.041096,35.6521739 262.424658,35.6521739 C266.191781,35.6521739 269.305936,37.0608696 272.570776,40.2434783 L272.570776,35.4434783 Z M294.621005,32 C285.178082,32 277.141553,40.1913043 277.141553,49.7913043 C277.141553,54.4869565 278.648402,58.6086957 281.461187,61.8956522 C284.776256,65.7043478 289.648402,68 294.420091,68 C304.114155,68 312,59.9652174 312,50 C312,40.1391304 304.114155,32 294.621005,32 Z M294.570776,35.6521739 C302.155251,35.6521739 308.232877,42.0695652 308.232877,50 C308.232877,57.9826087 302.105023,64.3478261 294.47032,64.3478261 C291.155251,64.3478261 287.739726,62.8869565 285.178082,60.3826087 C282.365297,57.6173913 280.908676,54.0695652 280.908676,49.7913043 C280.908676,42.0695652 287.086758,35.6521739 294.570776,35.6521739 Z" id="EFIKECO" fill="url(#linearGradient-2)"></path>
                <path d="M150.063586,75.6173913 C148.632177,73.2173913 146.592421,72 143.90853,72 C140.079513,72 137.216697,74.573913 137.216697,77.9826087 C137.216697,80.5217391 138.61232,82.1913043 142.0477,83.6869565 C145.375724,85.1478261 145.375724,85.1478261 146.270354,85.7043478 C147.594406,86.5043478 148.23854,87.5826087 148.23854,89.0086957 C148.23854,91.5478261 146.091428,93.5652174 143.443323,93.5652174 C141.868774,93.5652174 140.40158,92.8695652 139.542735,91.6869565 C139.077528,91.0608696 138.862816,90.5043478 138.576535,89.3217391 L136,90.0173913 C136.89463,93.8086957 139.578521,96 143.335967,96 C147.594406,96 150.922431,92.8695652 150.922431,88.8695652 C150.922431,85.9478261 149.347882,84.1043478 145.518865,82.4695652 C142.262411,81.0782609 142.262411,81.0782609 141.403566,80.5217391 C140.40158,79.8608696 139.900587,79.026087 139.900587,78.0173913 C139.900587,75.9652174 141.618277,74.4347826 143.83696,74.4347826 C145.697791,74.4347826 146.735562,75.0608696 147.952259,76.9391304 L150.063586,75.6173913 Z M166.882632,72 C160.155014,72 154.429381,77.4608696 154.429381,83.8608696 C154.429381,86.9913043 155.502937,89.7391304 157.506909,91.9304348 C159.868732,94.4695652 163.339897,96 166.739492,96 C173.646036,96 179.264313,90.6434783 179.264313,84 C179.264313,77.426087 173.646036,72 166.882632,72 Z M166.918417,74.4347826 C172.321983,74.4347826 176.651993,78.7130435 176.651993,84 C176.651993,89.3217391 172.286198,93.5652174 166.846847,93.5652174 C164.485023,93.5652174 162.051629,92.5913043 160.226584,90.9217391 C158.222612,89.0782609 157.184841,86.7130435 157.184841,83.8608696 C157.184841,78.7130435 161.586422,74.4347826 166.918417,74.4347826 Z M186.90323,72.4907683 L184.219339,72.4907683 L184.219339,95.6907683 L193.451922,95.6907683 L193.451922,93.2907683 L186.90323,93.2907683 L186.90323,72.4907683 Z M198.768721,72.2453842 L196.084831,72.2453842 L196.084831,87.1671233 C196.084831,89.7062537 196.514254,91.2366885 197.65938,92.6627755 C199.198144,94.6453842 201.882034,95.8627755 204.60171,95.8627755 C207.321385,95.8627755 209.933705,94.6453842 211.508254,92.6627755 C212.653381,91.2366885 213.082803,89.6714711 213.082803,87.1671233 L213.082803,72.2453842 L210.398913,72.2453842 L210.398913,86.4714711 C210.398913,88.8714711 210.219987,89.9149494 209.611639,90.923645 C208.681223,92.3845146 206.605681,93.4279929 204.60171,93.4279929 C202.561953,93.4279929 200.486411,92.3845146 199.555996,90.923645 C198.947647,89.9149494 198.768721,88.8714711 198.768721,86.4714711 L198.768721,72.2453842 Z M225.231636,74.8907683 L231.028839,74.8907683 L231.028839,72.4907683 L216.786327,72.4907683 L216.786327,74.8907683 L222.547745,74.8907683 L222.547745,95.6907683 L225.231636,95.6907683 L225.231636,74.8907683 Z M237.394684,72.4907683 L234.710794,72.4907683 L234.710794,95.6907683 L237.394684,95.6907683 L237.394684,72.4907683 Z M254.485306,72 C247.757688,72 242.032055,77.4608696 242.032055,83.8608696 C242.032055,86.9913043 243.105611,89.7391304 245.109582,91.9304348 C247.471406,94.4695652 250.942571,96 254.342165,96 C261.24871,96 266.866987,90.6434783 266.866987,84 C266.866987,77.426087 261.24871,72 254.485306,72 Z M254.556385,74.4347826 C259.95995,74.4347826 264.28996,78.7130435 264.28996,84 C264.28996,89.3217391 259.924165,93.5652174 254.484814,93.5652174 C252.122991,93.5652174 249.689597,92.5913043 247.864551,90.9217391 C245.86058,89.0782609 244.822809,86.7130435 244.822809,83.8608696 C244.822809,78.7130435 249.224389,74.4347826 254.556385,74.4347826 Z M271.822013,96 L274.505903,96 L274.505903,76.7960161 L290.394534,96 L293.078425,96 L293.078425,72 L290.394534,72 L290.394534,91.1938454 L274.505903,72 L271.822013,72 L271.822013,96 Z M312.141155,75.6173913 C310.709747,73.2173913 308.66999,72 305.9861,72 C302.157083,72 299.294266,74.573913 299.294266,77.9826087 C299.294266,80.5217391 300.689889,82.1913043 304.125269,83.6869565 C307.453293,85.1478261 307.453293,85.1478261 308.347923,85.7043478 C309.671976,86.5043478 310.31611,87.5826087 310.31611,89.0086957 C310.31611,91.5478261 308.168997,93.5652174 305.520892,93.5652174 C303.946343,93.5652174 302.47915,92.8695652 301.620305,91.6869565 C301.155097,91.0608696 300.940386,90.5043478 300.654104,89.3217391 L298.077569,90.0173913 C298.9722,93.8086957 301.65609,96 305.413537,96 C309.671976,96 313,92.8695652 313,88.8695652 C313,85.9478261 311.425451,84.1043478 307.596434,82.4695652 C304.33998,81.0782609 304.33998,81.0782609 303.481135,80.5217391 C302.47915,79.8608696 301.978157,79.026087 301.978157,78.0173913 C301.978157,75.9652174 303.695847,74.4347826 305.914529,74.4347826 C307.77536,74.4347826 308.813131,75.0608696 310.029828,76.9391304 L312.141155,75.6173913 Z" id="SOLUTIONS" fill="url(#linearGradient-3)"></path>
            </g>
            <g id="Group" transform="translate(343.000000, 0.000000)" fill="#000000">
                <path d="M4.1911821,85.9472348 C2.16508062,80.7795851 0.8031213,75.2796544 0.210072443,69.552 L74.5594201,69.552 L71.3479751,86.0734523 L4.1911821,85.9472348 Z M9.69741286,96.7680149 C20.8985128,114.340963 40.5849503,126 63,126 C63.1960633,126 63.3919179,125.999108 63.5875599,125.997328 L69.2691656,96.768 L9.69740338,96.768 Z M121.721727,86.1681269 C123.795916,80.9364132 125.188421,75.3613393 125.789928,69.552 L85.3415176,69.552 L82.1261351,86.0937092 L121.721727,86.1681269 Z M116.302597,96.768 C107.07716,111.241419 92.0957076,121.703146 74.5745248,124.943376 L80.0512631,96.768 L116.302597,96.768 Z M5.5788707e-15,58.968 C0.360678237,53.2690864 1.48058124,47.7758849 3.2599035,42.588 L79.8006908,42.588 L76.6167413,58.968 L3.77475828e-15,58.968 Z M126,58.968 C125.639322,53.2690864 124.519419,47.7758849 122.740097,42.588 L90.5827883,42.588 L87.3988388,58.968 L126,58.968 Z M8.02906781,32.0039852 C18.8703661,12.8956583 39.4261712,0 63,0 C71.5543367,0 79.7112669,1.69807142 87.1508159,4.77488446 L81.858012,32.004 L8.02905943,32.004 Z M117.970941,32.004 C112.87552,23.0230625 105.634154,15.41451 96.9420964,9.87219563 L92.6401095,32.004 L117.970941,32.004 Z" id="Combined-Shape"></path>
                <path d="M152.328767,36.057971 L152.328767,32.557971 L135,32.557971 L135,66.3913043 L152.328767,66.3913043 L152.328767,62.8913043 L138.767123,62.8913043 L138.767123,49.6521739 L151.977169,49.6521739 L151.977169,46.1521739 L138.767123,46.1521739 L138.767123,36.057971 L152.328767,36.057971 Z M174.429224,36.057971 L174.429224,32.557971 L159.210046,32.557971 L159.210046,66.3913043 L162.977169,66.3913043 L162.977169,49.6521739 L174.077626,49.6521739 L174.077626,46.1521739 L162.977169,46.1521739 L162.977169,36.057971 L174.429224,36.057971 Z M184.726027,32.557971 L180.958904,32.557971 L180.958904,66.3913043 L184.726027,66.3913043 L184.726027,32.557971 Z M197.182648,47.0652174 L197.182648,32.557971 L193.415525,32.557971 L193.415525,66.3913043 L197.182648,66.3913043 L197.182648,51.8333333 L198.136986,50.8695652 L211.849315,66.3913043 L216.972603,66.3913043 L200.748858,48.3333333 L216.47032,32.557971 L211.447489,32.557971 L197.182648,47.0652174 Z M239.324201,36.057971 L239.324201,32.557971 L221.995434,32.557971 L221.995434,66.3913043 L239.324201,66.3913043 L239.324201,62.8913043 L225.762557,62.8913043 L225.762557,49.6521739 L238.972603,49.6521739 L238.972603,46.1521739 L225.762557,46.1521739 L225.762557,36.057971 L239.324201,36.057971 Z M271.570776,35.3478261 C268.205479,32.9637681 265.392694,32 261.675799,32 C252.031963,32 244.146119,39.9130435 244.146119,49.6014493 C244.146119,59.0869565 252.031963,67 261.474886,67 C265.091324,67 268.255708,65.9855072 271.570776,63.7028986 L271.570776,59.0362319 C268.356164,62.0797101 265.191781,63.4492754 261.474886,63.4492754 C254.041096,63.4492754 247.913242,57.2101449 247.913242,49.6521739 C247.913242,41.942029 254.041096,35.5507246 261.424658,35.5507246 C265.191781,35.5507246 268.305936,36.9202899 271.570776,40.0144928 L271.570776,35.3478261 Z M293.621005,32 C284.178082,32 276.141553,39.9637681 276.141553,49.2971014 C276.141553,53.8623188 277.648402,57.8695652 280.461187,61.0652174 C283.776256,64.7681159 288.648402,67 293.420091,67 C303.114155,67 311,59.1884058 311,49.5 C311,39.9130435 303.114155,32 293.621005,32 Z M293.570776,35.5507246 C301.155251,35.5507246 307.232877,41.7898551 307.232877,49.5 C307.232877,57.2608696 301.105023,63.4492754 293.47032,63.4492754 C290.155251,63.4492754 286.739726,62.0289855 284.178082,59.5942029 C281.365297,56.9057971 279.908676,53.4565217 279.908676,49.2971014 C279.908676,41.7898551 286.086758,35.5507246 293.570776,35.5507246 Z" id="EFIKECO"></path>
                <path d="M149.063586,75.7681159 C147.632177,73.2681159 145.592421,72 142.90853,72 C139.079513,72 136.216697,74.6811594 136.216697,78.2318841 C136.216697,80.8768116 137.61232,82.615942 141.0477,84.173913 C144.375724,85.6956522 144.375724,85.6956522 145.270354,86.2753623 C146.594406,87.1086957 147.23854,88.2318841 147.23854,89.7173913 C147.23854,92.3623188 145.091428,94.4637681 142.443323,94.4637681 C140.868774,94.4637681 139.40158,93.7391304 138.542735,92.5072464 C138.077528,91.8550725 137.862816,91.2753623 137.576535,90.0434783 L135,90.7681159 C135.89463,94.7173913 138.578521,97 142.335967,97 C146.594406,97 149.922431,93.7391304 149.922431,89.5724638 C149.922431,86.5289855 148.347882,84.6086957 144.518865,82.9057971 C141.262411,81.4565217 141.262411,81.4565217 140.403566,80.8768116 C139.40158,80.1884058 138.900587,79.3188406 138.900587,78.2681159 C138.900587,76.1304348 140.618277,74.5362319 142.83696,74.5362319 C144.697791,74.5362319 145.735562,75.1884058 146.952259,77.1449275 L149.063586,75.7681159 Z M165.882632,72 C159.155014,72 153.429381,77.6884058 153.429381,84.3550725 C153.429381,87.615942 154.502937,90.4782609 156.506909,92.7608696 C158.868732,95.4057971 162.339897,97 165.739492,97 C172.646036,97 178.264313,91.4202899 178.264313,84.5 C178.264313,77.6521739 172.646036,72 165.882632,72 Z M165.918417,74.5362319 C171.321983,74.5362319 175.651993,78.9927536 175.651993,84.5 C175.651993,90.0434783 171.286198,94.4637681 165.846847,94.4637681 C163.485023,94.4637681 161.051629,93.4492754 159.226584,91.7101449 C157.222612,89.7898551 156.184841,87.326087 156.184841,84.3550725 C156.184841,78.9927536 160.586422,74.5362319 165.918417,74.5362319 Z M185.90323,72.511217 L183.219339,72.511217 L183.219339,96.6778837 L192.451922,96.6778837 L192.451922,94.1778837 L185.90323,94.1778837 L185.90323,72.511217 Z M197.768721,72.2556085 L195.084831,72.2556085 L195.084831,87.7990868 C195.084831,90.4440143 195.514254,92.0382172 196.65938,93.5237244 C198.198144,95.5889418 200.882034,96.8570578 203.60171,96.8570578 C206.321385,96.8570578 208.933705,95.5889418 210.508254,93.5237244 C211.653381,92.0382172 212.082803,90.4077824 212.082803,87.7990868 L212.082803,72.2556085 L209.398913,72.2556085 L209.398913,87.0744491 C209.398913,89.5744491 209.219987,90.6614056 208.611639,91.7121302 C207.681223,93.2338694 205.605681,94.3208259 203.60171,94.3208259 C201.561953,94.3208259 199.486411,93.2338694 198.555996,91.7121302 C197.947647,90.6614056 197.768721,89.5744491 197.768721,87.0744491 L197.768721,72.2556085 Z M224.231636,75.011217 L230.028839,75.011217 L230.028839,72.511217 L215.786327,72.511217 L215.786327,75.011217 L221.547745,75.011217 L221.547745,96.6778837 L224.231636,96.6778837 L224.231636,75.011217 Z M236.394684,72.511217 L233.710794,72.511217 L233.710794,96.6778837 L236.394684,96.6778837 L236.394684,72.511217 Z M253.485306,72 C246.757688,72 241.032055,77.6884058 241.032055,84.3550725 C241.032055,87.615942 242.105611,90.4782609 244.109582,92.7608696 C246.471406,95.4057971 249.942571,97 253.342165,97 C260.24871,97 265.866987,91.4202899 265.866987,84.5 C265.866987,77.6521739 260.24871,72 253.485306,72 Z M253.556385,74.5362319 C258.95995,74.5362319 263.28996,78.9927536 263.28996,84.5 C263.28996,90.0434783 258.924165,94.4637681 253.484814,94.4637681 C251.122991,94.4637681 248.689597,93.4492754 246.864551,91.7101449 C244.86058,89.7898551 243.822809,87.326087 243.822809,84.3550725 C243.822809,78.9927536 248.224389,74.5362319 253.556385,74.5362319 Z M270.822013,97 L273.505903,97 L273.505903,76.9958501 L289.394534,97 L292.078425,97 L292.078425,72 L289.394534,72 L289.394534,91.993589 L273.505903,72 L270.822013,72 L270.822013,97 Z M311.141155,75.7681159 C309.709747,73.2681159 307.66999,72 304.9861,72 C301.157083,72 298.294266,74.6811594 298.294266,78.2318841 C298.294266,80.8768116 299.689889,82.615942 303.125269,84.173913 C306.453293,85.6956522 306.453293,85.6956522 307.347923,86.2753623 C308.671976,87.1086957 309.31611,88.2318841 309.31611,89.7173913 C309.31611,92.3623188 307.168997,94.4637681 304.520892,94.4637681 C302.946343,94.4637681 301.47915,93.7391304 300.620305,92.5072464 C300.155097,91.8550725 299.940386,91.2753623 299.654104,90.0434783 L297.077569,90.7681159 C297.9722,94.7173913 300.65609,97 304.413537,97 C308.671976,97 312,93.7391304 312,89.5724638 C312,86.5289855 310.425451,84.6086957 306.596434,82.9057971 C303.33998,81.4565217 303.33998,81.4565217 302.481135,80.8768116 C301.47915,80.1884058 300.978157,79.3188406 300.978157,78.2681159 C300.978157,76.1304348 302.695847,74.5362319 304.914529,74.5362319 C306.77536,74.5362319 307.813131,75.1884058 309.029828,77.1449275 L311.141155,75.7681159 Z" id="SOLUTIONS"></path>
            </g>
        </g>
    </g>
</svg>