<?xml version="1.0" encoding="UTF-8"?>
<svg width="416px" height="77px" viewBox="0 0 416 77" version="1.1" xmlns="http://www.w3.org/2000/svg" xmlns:xlink="http://www.w3.org/1999/xlink">
    <!-- Generator: Sketch 48.2 (47327) - http://www.bohemiancoding.com/sketch -->
    <title>drexelregbanner</title>
    <desc>Created with Sketch.</desc>
    <defs></defs>
    <g id="drexelreg" stroke="none" stroke-width="1" fill="none" fill-rule="evenodd">
        <g id="drexelregbanner" fill="#002041">
            <path d="M5.31897548,30.5218509 L0,30.5218509 L0,0.4781491 L4.51912954,0.4781491 C5.55892926,0.4781491 18.0365259,-1.03598972 18.0365259,15.7390746 C18.0365259,24.3059126 14.7171652,30.5218509 5.31897548,30.5218509 Z M5.95885223,25.1825193 C10.7579278,25.4215938 12.0776736,19.4447301 12.0776736,15.6992288 C12.0776736,11.874036 10.8779047,5.81748072 5.95885223,5.81748072 L5.95885223,25.1825193 Z M27.1547695,30.5218509 L21.1959173,30.5218509 L21.1959173,0.4781491 L27.1947618,0.4781491 C30.99403,0.4781491 37.7927205,0.876606684 37.7927205,9.0848329 C37.7927205,12.3920308 36.4729747,15.2210797 33.5135447,16.8547558 L38.7525356,30.5218509 L32.473745,30.5218509 L27.2347541,16.655527 L27.1547695,16.655527 L27.1547695,30.5218509 Z M27.1547695,5.37917738 L27.1547695,13.3881748 L28.1945693,13.4280206 C30.9140454,13.4280206 31.9938375,11.5951157 31.9938375,9.12467866 C31.9938375,6.97300771 30.9540377,5.21979434 27.9546155,5.37917738 L27.1547695,5.37917738 Z M42.3918346,0.4781491 L42.3918346,30.5218509 L54.4695083,30.5218509 L54.4695083,24.9434447 L48.3506869,24.9434447 L48.3506869,18.1696658 L53.6696623,18.1696658 L53.6696623,12.5912596 L48.3506869,12.5912596 L48.3506869,6.05655527 L54.3895237,6.05655527 L54.3895237,0.4781491 L42.3918346,0.4781491 Z M56.8290538,0.4781491 L63.2278213,15.0218509 L56.8290538,30.5218509 L63.5477597,30.5218509 L65.3074207,25.7403599 C65.8273206,24.2262211 66.1872513,22.751928 66.6271665,21.2377892 L66.7071511,21.2377892 C67.1070741,22.751928 67.4670048,24.2262211 68.0268969,25.7403599 L69.9465272,30.5218509 L76.8651945,30.5218509 L69.9465272,15.0218509 L76.3852869,0.4781491 L69.9465272,0.4781491 L68.1468738,4.66195373 C67.5869816,6.17609254 67.1070741,7.69023136 66.7871357,9.24421594 L66.7071511,9.24421594 C66.3872127,7.69023136 65.7873283,6.13624679 65.2674284,4.66195373 L63.5477597,0.4781491 L56.8290538,0.4781491 Z M79.8646168,0.4781491 L79.8646168,30.5218509 L91.9422904,30.5218509 L91.9422904,24.9434447 L85.823469,24.9434447 L85.823469,18.1696658 L91.1424445,18.1696658 L91.1424445,12.5912596 L85.823469,12.5912596 L85.823469,6.05655527 L91.8623058,6.05655527 L91.8623058,0.4781491 L79.8646168,0.4781491 Z M95.5415971,0.4781491 L95.5415971,30.5218509 L107.739248,30.5218509 L107.739248,24.9434447 L101.500449,24.9434447 L101.500449,0.4781491 L95.5415971,0.4781491 Z M126.215689,30.5218509 L120.256837,30.5218509 L120.256837,0.4781491 L126.255681,0.4781491 C130.054949,0.4781491 136.85364,0.876606684 136.85364,9.0848329 C136.85364,12.3920308 135.533894,15.2210797 132.574464,16.8547558 L137.813455,30.5218509 L131.534664,30.5218509 L126.295673,16.655527 L126.215689,16.655527 L126.215689,30.5218509 Z M126.215689,5.37917738 L126.215689,13.3881748 L127.255489,13.4280206 C129.974965,13.4280206 131.054757,11.5951157 131.054757,9.12467866 C131.054757,6.97300771 130.014957,5.21979434 127.015535,5.37917738 L126.215689,5.37917738 Z M141.452754,0.4781491 L141.452754,30.5218509 L153.530428,30.5218509 L153.530428,24.9434447 L147.411606,24.9434447 L147.411606,18.1696658 L152.730582,18.1696658 L152.730582,12.5912596 L147.411606,12.5912596 L147.411606,6.05655527 L153.450443,6.05655527 L153.450443,0.4781491 L141.452754,0.4781491 Z M166.727885,13.7866324 L166.727885,19.3650386 L170.527154,19.3650386 C170.527154,21.437018 170.047246,25.5012853 167.007832,25.5012853 C162.608679,25.5012853 162.408717,18.6079692 162.408717,15.5 C162.408717,12.6709512 162.80864,5.2596401 166.847862,5.49871465 C169.127423,5.49871465 169.607331,7.8496144 169.887277,9.36375321 L175.68616,7.13239075 C174.406406,2.8688946 171.406984,0 166.80787,0 C158.289511,0 156.049942,8.72622108 156.049942,15.659383 C156.049942,22.3136247 158.689434,31 166.80787,31 C174.926306,31 176.486006,22.5128535 176.486006,16.1375321 L176.486006,13.7866324 L166.727885,13.7866324 Z M179.645397,0.4781491 L179.645397,30.5218509 L185.60425,30.5218509 L185.60425,0.4781491 L179.645397,0.4781491 Z M202.241045,1.47429306 C200.601361,0.517994859 198.881692,0 196.962062,0 C191.843048,0 189.083579,4.10411311 189.083579,8.84575835 C189.083579,13.2287918 191.203171,15.4601542 194.642509,17.7712082 C196.322185,18.966581 198.161831,19.8431877 198.161831,22.1542416 C198.161831,24.1465296 196.642124,25.4215938 194.722493,25.4215938 C192.962832,25.4215938 191.603094,24.7840617 190.203364,23.8277635 L190.203364,29.4858612 C191.563102,30.4820051 193.642701,31 195.322378,31 C200.921299,31 204.000706,26.9755784 204.000706,21.6362468 C204.000706,13.5077121 194.922455,13.2287918 194.922455,8.28791774 C194.922455,6.45501285 196.082231,5.33933162 197.921877,5.33933162 C199.561561,5.33933162 201.041276,6.2159383 202.241045,7.25192802 L202.241045,1.47429306 Z M205.920336,0.4781491 L205.920336,6.05655527 L210.599435,6.05655527 L210.599435,30.5218509 L216.558287,30.5218509 L216.558287,6.05655527 L221.277378,6.05655527 L221.277378,0.4781491 L205.920336,0.4781491 Z M229.955707,30.5218509 L223.996855,30.5218509 L223.996855,0.4781491 L229.995699,0.4781491 C233.794967,0.4781491 240.593658,0.876606684 240.593658,9.0848329 C240.593658,12.3920308 239.273912,15.2210797 236.314482,16.8547558 L241.553473,30.5218509 L235.274682,30.5218509 L230.035691,16.655527 L229.955707,16.655527 L229.955707,30.5218509 Z M229.955707,5.37917738 L229.955707,13.3881748 L230.995506,13.4280206 C233.714983,13.4280206 234.794775,11.5951157 234.794775,9.12467866 C234.794775,6.97300771 233.754975,5.21979434 230.755553,5.37917738 L229.955707,5.37917738 Z M250.39177,0.4781491 L256.670561,0.4781491 L263.909167,30.5218509 L257.550392,30.5218509 L256.430607,25.4614396 L250.39177,25.4614396 L249.311978,30.5218509 L243.393119,30.5218509 L250.39177,0.4781491 Z M255.550777,20.7596401 L254.031069,12.7506427 L253.3512,8.20822622 L253.271216,8.20822622 L252.631339,12.7506427 L251.351586,20.7596401 L255.550777,20.7596401 Z M264.788997,0.4781491 L264.788997,6.05655527 L269.468096,6.05655527 L269.468096,30.5218509 L275.426948,30.5218509 L275.426948,6.05655527 L280.146039,6.05655527 L280.146039,0.4781491 L264.788997,0.4781491 Z M282.865515,0.4781491 L282.865515,30.5218509 L288.824368,30.5218509 L288.824368,0.4781491 L282.865515,0.4781491 Z M302.581718,0 C307.900693,0 313.179676,4.22365039 313.179676,15.5 C313.179676,26.7763496 307.900693,31 302.581718,31 C297.262742,31 291.983759,26.7763496 291.983759,15.5 C291.983759,4.22365039 297.262742,0 302.581718,0 Z M298.342534,15.5 C298.342534,17.8907455 298.62248,25.5012853 302.581718,25.5012853 C306.540955,25.5012853 306.820901,17.8907455 306.820901,15.5 C306.820901,12.8303342 306.540955,5.49871465 302.581718,5.49871465 C298.62248,5.49871465 298.342534,12.8303342 298.342534,15.5 Z M316.339068,0.4781491 L316.339068,30.5218509 L322.29792,30.5218509 L322.29792,16.7352185 L322.257928,15.5 L321.977982,12.4717224 L322.057966,12.3920308 L329.416549,30.5218509 L335.055463,30.5218509 L335.055463,0.4781491 L329.096611,0.4781491 L329.096611,13.9858612 C329.096611,15.5398458 329.216587,17.0938303 329.576518,18.5282776 L329.496534,18.6079692 L322.057966,0.4781491 L316.339068,0.4781491 Z M361.450379,1.47429306 C359.810695,0.517994859 358.091026,0 356.171396,0 C351.052382,0 348.292913,4.10411311 348.292913,8.84575835 C348.292913,13.2287918 350.412505,15.4601542 353.851842,17.7712082 C355.531519,18.966581 357.371164,19.8431877 357.371164,22.1542416 C357.371164,24.1465296 355.851457,25.4215938 353.931827,25.4215938 C352.172166,25.4215938 350.812428,24.7840617 349.412697,23.8277635 L349.412697,29.4858612 C350.772435,30.4820051 352.852035,31 354.531711,31 C360.130633,31 363.21004,26.9755784 363.21004,21.6362468 C363.21004,13.5077121 354.131788,13.2287918 354.131788,8.28791774 C354.131788,6.45501285 355.291565,5.33933162 357.131211,5.33933162 C358.770895,5.33933162 360.25061,6.2159383 361.450379,7.25192802 L361.450379,1.47429306 Z M366.649377,0.4781491 L366.649377,30.5218509 L372.60823,30.5218509 L372.60823,0.4781491 L366.649377,0.4781491 Z M375.327706,0.4781491 L375.327706,6.05655527 L380.006804,6.05655527 L380.006804,30.5218509 L385.965657,30.5218509 L385.965657,6.05655527 L390.684748,6.05655527 L390.684748,0.4781491 L375.327706,0.4781491 Z M393.404224,0.4781491 L393.404224,30.5218509 L405.481898,30.5218509 L405.481898,24.9434447 L399.363076,24.9434447 L399.363076,18.1696658 L404.682052,18.1696658 L404.682052,12.5912596 L399.363076,12.5912596 L399.363076,6.05655527 L405.401913,6.05655527 L405.401913,0.4781491 L393.404224,0.4781491 Z M411.840673,23.4293059 C409.721081,23.4293059 408.041405,25.1426735 408.041405,27.214653 C408.041405,29.2866324 409.721081,31 411.840673,31 C413.960264,31 415.639941,29.2866324 415.639941,27.214653 C415.639941,25.1426735 413.960264,23.4293059 411.840673,23.4293059 Z M411.840673,10.0012853 C409.721081,10.0012853 408.041405,11.714653 408.041405,13.7866324 C408.041405,15.8586118 409.721081,17.5719794 411.840673,17.5719794 C413.960264,17.5719794 415.639941,15.8586118 415.639941,13.7866324 C415.639941,11.714653 413.960264,10.0012853 411.840673,10.0012853 Z" id="DREXEL-REGISTRATION"></path>
            <g id="Group" transform="translate(115.000000, 46.000000)">
                <path d="M0,0 L0,22.3136247 C0,27.9318766 3.31936064,30.5218509 8.8782899,30.5218509 C17.4766337,30.5218509 17.8365644,25.1028278 17.8365644,21.9151671 L17.8365644,0 L11.8777122,0 L11.8777122,20.7197943 C11.8377199,22.9511568 11.8377199,25.1426735 8.91828219,25.1426735 C5.67890615,25.1426735 5.95885223,21.7159383 5.95885223,19.4447301 L5.95885223,0 L0,0 Z" id="Path"></path>
                <polygon id="Path" points="22 0 22 30.0437018 27.9588522 30.0437018 27.9588522 0"></polygon>
                <path d="M47.9588522,30.0437018 L42,30.0437018 L42,0 L47.9988445,0 C51.7981127,0 58.5968032,0.398457584 58.5968032,8.6066838 C58.5968032,11.9138817 57.2770574,14.7429306 54.3176274,16.3766067 L59.5566183,30.0437018 L53.2778277,30.0437018 L48.0388368,16.1773779 L47.9588522,16.1773779 L47.9588522,30.0437018 Z M48,5.01007377 L48,13.0190712 L49.0397997,13.058917 C51.7592759,13.058917 52.8390679,11.2260121 52.8390679,8.75557506 C52.8390679,6.60390411 51.7992682,4.85069074 48.7998459,5.01007377 L48,5.01007377 Z" id="Combined-Shape"></path>
                <polygon id="Path" points="63 0 63 30.0437018 75.0776736 30.0437018 75.0776736 24.4652956 68.9588522 24.4652956 68.9588522 17.6915167 74.2778277 17.6915167 74.2778277 12.1131105 68.9588522 12.1131105 68.9588522 5.57840617 74.997689 5.57840617 74.997689 0"></polygon>
                <path d="M84.3189755,30.0791081 L79,30.0791081 L79,0.0354062638 L83.5191295,0.0354062638 C84.5589293,0.0354062638 97.0365259,-1.47873255 97.0365259,15.2963317 C97.0365259,23.8631698 93.7171652,30.0791081 84.3189755,30.0791081 Z M85,24.3650386 C89.7990756,24.6041131 91.1188214,18.6272494 91.1188214,14.8817481 C91.1188214,11.0565553 89.9190525,5 85,5 L85,24.3650386 Z" id="Combined-Shape"></path>
                <polygon id="Path" points="100 0 100 30.0437018 112.077674 30.0437018 112.077674 24.4652956 105.958852 24.4652956 105.958852 17.6915167 111.277828 17.6915167 111.277828 12.1131105 105.958852 12.1131105 105.958852 5.57840617 111.997689 5.57840617 111.997689 0"></polygon>
                <path d="M128.157466,1.47429306 C126.517781,0.517994859 124.798113,0 122.878482,0 C117.759468,0 115,4.10411311 115,8.84575835 C115,13.2287918 117.119592,15.4601542 120.558929,17.7712082 C122.238606,18.966581 124.078251,19.8431877 124.078251,22.1542416 C124.078251,24.1465296 122.558544,25.4215938 120.638914,25.4215938 C118.879253,25.4215938 117.519515,24.7840617 116.119784,23.8277635 L116.119784,29.4858612 C117.479522,30.4820051 119.559122,31 121.238798,31 C126.83772,31 129.917127,26.9755784 129.917127,21.6362468 C129.917127,13.5077121 120.838875,13.2287918 120.838875,8.28791774 C120.838875,6.45501285 121.998652,5.33933162 123.838298,5.33933162 C125.477982,5.33933162 126.957697,6.2159383 128.157466,7.25192802 L128.157466,1.47429306 Z" id="Path"></path>
                <polygon id="Path" points="133 0 133 30.0437018 138.958852 30.0437018 138.958852 0"></polygon>
                <path d="M152.677943,13.7866324 L152.677943,19.3650386 L156.477211,19.3650386 C156.477211,21.437018 155.997304,25.5012853 152.957889,25.5012853 C148.558737,25.5012853 148.358775,18.6079692 148.358775,15.5 C148.358775,12.6709512 148.758698,5.2596401 152.79792,5.49871465 C155.077481,5.49871465 155.557389,7.8496144 155.837335,9.36375321 L161.636218,7.13239075 C160.356464,2.8688946 157.357042,0 152.757928,0 C144.239569,0 142,8.72622108 142,15.659383 C142,22.3136247 144.639492,31 152.757928,31 C160.876364,31 162.436064,22.5128535 162.436064,16.1375321 L162.436064,13.7866324 L152.677943,13.7866324 Z" id="Path"></path>
                <path d="M166,0 L166,30.0437018 L171.958852,30.0437018 L171.958852,16.2570694 L171.91886,15.0218509 L171.638914,11.9935733 L171.718898,11.9138817 L179.077481,30.0437018 L184.716395,30.0437018 L184.716395,0 L178.757543,0 L178.757543,13.5077121 C178.757543,15.0616967 178.87752,16.6156812 179.23745,18.0501285 L179.157466,18.1298201 L171.718898,0 L166,0 Z" id="Path"></path>
            </g>
        </g>
    </g>
</svg>