<?xml version="1.0" encoding="UTF-8"?>
<svg width="363px" height="138px" viewBox="0 0 363 138" version="1.1" xmlns="http://www.w3.org/2000/svg" xmlns:xlink="http://www.w3.org/1999/xlink">
    <!-- Generator: Sketch 48.2 (47327) - http://www.bohemiancoding.com/sketch -->
    <title>miso-no-gradient</title>
    <desc>Created with Sketch.</desc>
    <defs></defs>
    <g id="miso" stroke="none" stroke-width="1" fill="none" fill-rule="evenodd">
        <g id="miso-no-gradient">
            <g id="Group-5">
                <g id="Group-4">
                    <path d="M363,83.539726 L333.407609,83.539726 L333.407609,29.2931507 L284.086957,29.2931507 L284.086957,83.539726 L254.494565,83.539726 L254.494565,0 L363,0 L363,83.539726 Z M363,109.39726 L363,137.243836 L254.494565,137.243836 L254.494565,109.39726 L363,109.39726 Z" id="Combined-Shape" fill="#E8AE36"></path>
                    <path d="M254.494565,83.539726 L145.98913,83.539726 L145.98913,0 L254.494565,0 L254.494565,29.4093933 L175.581522,29.4093933 L175.581522,53.9172211 L254.494565,53.9172211 L254.494565,83.539726 Z M254.494565,109.39726 L254.494565,137.243836 L145.98913,137.243836 L145.98913,109.39726 L254.494565,109.39726 Z" id="Combined-Shape" fill="#0D4D8B"></path>
                    <path d="M145.98913,83.539726 L116.396739,83.539726 L116.396739,0 L145.98913,0 L145.98913,83.539726 Z M145.98913,109.39726 L145.98913,137.243836 L116.396739,137.243836 L116.396739,109.39726 L145.98913,109.39726 Z" id="Combined-Shape" fill="#E8AE36"></path>
                    <path d="M29.0991848,83.539726 L0,83.539726 L0,0 L24.2493207,0 L58.1983696,39.2125245 L92.1474185,0 L116.396739,0 L116.396739,83.539726 L87.2975543,83.539726 L87.2975543,53.9172211 L58.1983696,83.3266145 L29.0991848,53.9172211 L29.0991848,83.539726 Z M29.0991848,109.39726 L29.0991848,137.243836 L0,137.243836 L0,109.39726 L29.0991848,109.39726 Z M116.396739,109.39726 L116.396739,137.243836 L87.2975543,137.243836 L87.2975543,109.39726 L116.396739,109.39726 Z" id="Combined-Shape" fill="#0D4D8B"></path>
                    <path d="M2.73048667,94.9767123 L2.73048667,103.430137 L0,103.430137 L0,89.5068493 L2.27540556,89.5068493 L5.46097335,93.4849315 L8.64654113,89.5068493 L10.9219467,89.5068493 L10.9219467,103.430137 L8.19146002,103.430137 L8.19146002,94.9767123 L5.46097335,97.960274 L2.73048667,94.9767123 Z M11.8321089,103.430137 L11.8321089,92.2915068 L19.8415365,92.2915068 L19.8415365,103.430137 L17.6571472,103.430137 L17.6571472,101.043288 L14.0164983,101.043288 L14.0164983,103.430137 L11.8321089,103.430137 Z M17.6571472,98.6564384 L17.6571472,94.6783562 L14.0164983,94.6783562 L14.0164983,98.6564384 L17.6571472,98.6564384 Z M22.9360881,96.6673973 L22.9360881,103.430137 L20.7516987,103.430137 L20.7516987,92.2915068 L22.9360881,92.2915068 L22.9360881,93.4849315 L26.576737,97.4630137 L26.576737,92.2915068 L28.7611263,92.2915068 L28.7611263,103.430137 L26.576737,103.430137 L26.576737,100.645479 L22.9360881,96.6673973 Z M29.6712885,103.430137 L29.6712885,92.2915068 L37.6807161,92.2915068 L37.6807161,103.430137 L35.4963268,103.430137 L35.4963268,101.043288 L31.8556779,101.043288 L31.8556779,103.430137 L29.6712885,103.430137 Z M35.4963268,98.6564384 L35.4963268,94.6783562 L31.8556779,94.6783562 L31.8556779,98.6564384 L35.4963268,98.6564384 Z M46.6003059,103.430137 L38.5908783,103.430137 L38.5908783,92.2915068 L46.6003059,92.2915068 L46.6003059,94.6783562 L40.7752677,94.6783562 L40.7752677,101.043288 L44.4159166,101.043288 L44.4159166,99.0542466 L42.2315272,99.0542466 L42.2315272,96.6673973 L46.6003059,96.6673973 L46.6003059,103.430137 Z M49.6948575,99.0542466 L49.6948575,101.043288 L55.5198957,101.043288 L55.5198957,103.430137 L47.5104681,103.430137 L47.5104681,92.2915068 L55.5198957,92.2915068 L55.5198957,94.6783562 L49.6948575,94.6783562 L49.6948575,96.6673973 L53.3355064,96.6673973 L53.3355064,99.0542466 L49.6948575,99.0542466 Z M58.6144473,96.6673973 L58.6144473,103.430137 L56.4300579,103.430137 L56.4300579,92.2915068 L58.2503824,92.2915068 L60.7988366,95.4739726 L63.3472908,92.2915068 L65.1676153,92.2915068 L65.1676153,103.430137 L62.9832259,103.430137 L62.9832259,96.6673973 L60.7988366,99.0542466 L58.6144473,96.6673973 Z M68.2621668,99.0542466 L68.2621668,101.043288 L74.0872051,101.043288 L74.0872051,103.430137 L66.0777775,103.430137 L66.0777775,92.2915068 L74.0872051,92.2915068 L74.0872051,94.6783562 L68.2621668,94.6783562 L68.2621668,96.6673973 L71.9028157,96.6673973 L71.9028157,99.0542466 L68.2621668,99.0542466 Z M77.1817566,96.6673973 L77.1817566,103.430137 L74.9973673,103.430137 L74.9973673,92.2915068 L77.1817566,92.2915068 L77.1817566,93.4849315 L80.8224055,97.4630137 L80.8224055,92.2915068 L83.0067949,92.2915068 L83.0067949,103.430137 L80.8224055,103.430137 L80.8224055,100.645479 L77.1817566,96.6673973 Z M91.9263847,92.2915068 L91.9263847,94.6783562 L89.0138656,94.6783562 L89.0138656,103.430137 L86.8294762,103.430137 L86.8294762,94.6783562 L83.9169571,94.6783562 L83.9169571,92.2915068 L91.9263847,92.2915068 Z M99.7628814,89.5068493 L102.493368,89.5068493 L102.493368,103.430137 L99.7628814,103.430137 L99.7628814,89.5068493 Z M105.58792,96.6673973 L105.58792,103.430137 L103.40353,103.430137 L103.40353,92.2915068 L105.58792,92.2915068 L105.58792,93.4849315 L109.228569,97.4630137 L109.228569,92.2915068 L111.412958,92.2915068 L111.412958,103.430137 L109.228569,103.430137 L109.228569,100.645479 L105.58792,96.6673973 Z M114.507509,99.0542466 L114.507509,103.430137 L112.32312,103.430137 L112.32312,92.2915068 L120.332548,92.2915068 L120.332548,94.6783562 L114.507509,94.6783562 L114.507509,96.6673973 L118.148158,96.6673973 L118.148158,99.0542466 L114.507509,99.0542466 Z M121.24271,92.2915068 L129.252138,92.2915068 L129.252138,103.430137 L121.24271,103.430137 L121.24271,92.2915068 Z M127.067748,101.043288 L127.067748,94.6783562 L123.427099,94.6783562 L123.427099,101.043288 L127.067748,101.043288 Z M135.987338,96.6673973 L135.987338,94.6783562 L132.346689,94.6783562 L132.346689,96.6673973 L135.987338,96.6673973 Z M132.346689,99.4520548 L132.346689,103.430137 L130.1623,103.430137 L130.1623,92.2915068 L138.171727,92.2915068 L138.171727,99.0542466 L135.259208,99.0542466 L138.171727,102.236712 L138.171727,103.430137 L135.987338,103.430137 L132.346689,99.4520548 Z M141.266279,96.6673973 L141.266279,103.430137 L139.08189,103.430137 L139.08189,92.2915068 L140.902214,92.2915068 L143.450668,95.4739726 L145.999122,92.2915068 L147.819447,92.2915068 L147.819447,103.430137 L145.635058,103.430137 L145.635058,96.6673973 L143.450668,99.0542466 L141.266279,96.6673973 Z M148.729609,103.430137 L148.729609,92.2915068 L156.739037,92.2915068 L156.739037,103.430137 L154.554647,103.430137 L154.554647,101.043288 L150.913998,101.043288 L150.913998,103.430137 L148.729609,103.430137 Z M154.554647,98.6564384 L154.554647,94.6783562 L150.913998,94.6783562 L150.913998,98.6564384 L154.554647,98.6564384 Z M165.658626,92.2915068 L165.658626,94.6783562 L162.746107,94.6783562 L162.746107,103.430137 L160.561718,103.430137 L160.561718,94.6783562 L157.649199,94.6783562 L157.649199,92.2915068 L165.658626,92.2915068 Z M166.568789,92.2915068 L168.753178,92.2915068 L168.753178,103.430137 L166.568789,103.430137 L166.568789,92.2915068 Z M169.66334,92.2915068 L177.672768,92.2915068 L177.672768,103.430137 L169.66334,103.430137 L169.66334,92.2915068 Z M175.488379,101.043288 L175.488379,94.6783562 L171.84773,94.6783562 L171.84773,101.043288 L175.488379,101.043288 Z M180.767319,96.6673973 L180.767319,103.430137 L178.58293,103.430137 L178.58293,92.2915068 L180.767319,92.2915068 L180.767319,93.4849315 L184.407968,97.4630137 L184.407968,92.2915068 L186.592358,92.2915068 L186.592358,103.430137 L184.407968,103.430137 L184.407968,100.645479 L180.767319,96.6673973 Z M201.710152,97.960274 L194.428854,97.960274 L194.428854,89.5068493 L204.440639,89.5068493 L204.440639,92.490411 L197.159341,92.490411 L197.159341,94.9767123 L204.440639,94.9767123 L204.440639,103.430137 L194.428854,103.430137 L194.428854,100.446575 L201.710152,100.446575 L201.710152,97.960274 Z M205.350801,92.2915068 L207.53519,92.2915068 L207.53519,96.6673973 L211.175839,96.6673973 L211.175839,92.3014521 L213.360229,92.2915068 L213.360229,103.430137 L205.350801,103.430137 L205.350801,101.043288 L211.175839,101.043288 L211.175839,99.0542466 L205.350801,99.0542466 L205.350801,92.2915068 Z M220.095429,99.0542466 L214.270391,99.0542466 L214.270391,92.2915068 L222.279818,92.2915068 L222.279818,94.6783562 L216.45478,94.6783562 L216.45478,96.6673973 L222.279818,96.6673973 L222.279818,103.430137 L214.270391,103.430137 L214.270391,101.043288 L220.095429,101.043288 L220.095429,99.0542466 Z M231.199408,92.2915068 L231.199408,94.6783562 L228.286889,94.6783562 L228.286889,103.430137 L226.1025,103.430137 L226.1025,94.6783562 L223.189981,94.6783562 L223.189981,92.2915068 L231.199408,92.2915068 Z M234.29396,99.0542466 L234.29396,101.043288 L240.118998,101.043288 L240.118998,103.430137 L232.10957,103.430137 L232.10957,92.2915068 L240.118998,92.2915068 L240.118998,94.6783562 L234.29396,94.6783562 L234.29396,96.6673973 L237.934609,96.6673973 L237.934609,99.0542466 L234.29396,99.0542466 Z M243.21355,96.6673973 L243.21355,103.430137 L241.02916,103.430137 L241.02916,92.2915068 L242.849485,92.2915068 L245.397939,95.4739726 L247.946393,92.2915068 L249.766718,92.2915068 L249.766718,103.430137 L247.582328,103.430137 L247.582328,96.6673973 L245.397939,99.0542466 L243.21355,96.6673973 Z M256.501918,99.0542466 L250.67688,99.0542466 L250.67688,92.2915068 L258.686307,92.2915068 L258.686307,94.6783562 L252.861269,94.6783562 L252.861269,96.6673973 L258.686307,96.6673973 L258.686307,103.430137 L250.67688,103.430137 L250.67688,101.043288 L256.501918,101.043288 L256.501918,99.0542466 Z M266.522804,89.5068493 L276.534589,89.5068493 L276.534589,103.430137 L266.522804,103.430137 L266.522804,89.5068493 Z M273.804102,100.446575 L273.804102,92.490411 L269.253291,92.490411 L269.253291,100.446575 L273.804102,100.446575 Z M283.269789,96.6673973 L283.269789,94.6783562 L279.62914,94.6783562 L279.62914,96.6673973 L283.269789,96.6673973 Z M279.62914,99.4520548 L279.62914,103.430137 L277.444751,103.430137 L277.444751,92.2915068 L285.454178,92.2915068 L285.454178,99.0542466 L282.541659,99.0542466 L285.454178,102.236712 L285.454178,103.430137 L283.269789,103.430137 L279.62914,99.4520548 Z M294.373768,103.430137 L286.364341,103.430137 L286.364341,92.2915068 L294.373768,92.2915068 L294.373768,94.6783562 L288.54873,94.6783562 L288.54873,101.043288 L292.189379,101.043288 L292.189379,99.0542466 L290.00499,99.0542466 L290.00499,96.6673973 L294.373768,96.6673973 L294.373768,103.430137 Z M295.28393,103.430137 L295.28393,92.2915068 L303.293358,92.2915068 L303.293358,103.430137 L301.108969,103.430137 L301.108969,101.043288 L297.46832,101.043288 L297.46832,103.430137 L295.28393,103.430137 Z M301.108969,98.6564384 L301.108969,94.6783562 L297.46832,94.6783562 L297.46832,98.6564384 L301.108969,98.6564384 Z M306.38791,96.6673973 L306.38791,103.430137 L304.20352,103.430137 L304.20352,92.2915068 L306.38791,92.2915068 L306.38791,93.4849315 L310.028559,97.4630137 L310.028559,92.2915068 L312.212948,92.2915068 L312.212948,103.430137 L310.028559,103.430137 L310.028559,100.645479 L306.38791,96.6673973 Z M313.12311,92.2915068 L315.307499,92.2915068 L315.307499,103.430137 L313.12311,103.430137 L313.12311,92.2915068 Z M320.69566,94.6783562 L316.217662,94.6783562 L316.217662,92.2915068 L324.227089,92.2915068 L324.227089,93.0871233 L319.749091,101.043288 L324.227089,101.043288 L324.227089,103.430137 L316.217662,103.430137 L316.217662,102.634521 L320.69566,94.6783562 Z M325.137251,103.430137 L325.137251,92.2915068 L333.146679,92.2915068 L333.146679,103.430137 L330.96229,103.430137 L330.96229,101.043288 L327.321641,101.043288 L327.321641,103.430137 L325.137251,103.430137 Z M330.96229,98.6564384 L330.96229,94.6783562 L327.321641,94.6783562 L327.321641,98.6564384 L330.96229,98.6564384 Z M342.066269,92.2915068 L342.066269,94.6783562 L339.15375,94.6783562 L339.15375,103.430137 L336.96936,103.430137 L336.96936,94.6783562 L334.056841,94.6783562 L334.056841,92.2915068 L342.066269,92.2915068 Z M342.976431,92.2915068 L345.16082,92.2915068 L345.16082,103.430137 L342.976431,103.430137 L342.976431,92.2915068 Z M346.070983,92.2915068 L354.08041,92.2915068 L354.08041,103.430137 L346.070983,103.430137 L346.070983,92.2915068 Z M351.896021,101.043288 L351.896021,94.6783562 L348.255372,94.6783562 L348.255372,101.043288 L351.896021,101.043288 Z M357.174962,96.6673973 L357.174962,103.430137 L354.990572,103.430137 L354.990572,92.2915068 L357.174962,92.2915068 L357.174962,93.4849315 L360.815611,97.4630137 L360.815611,92.2915068 L363,92.2915068 L363,103.430137 L360.815611,103.430137 L360.815611,100.645479 L357.174962,96.6673973 Z" id="Management-Informati" fill="#0D4D8B"></path>
                    <rect id="Rectangle-3" fill="#0D4D8B" x="224.902174" y="81.5506849" width="29.5923913" height="5.96712329"></rect>
                    <rect id="Rectangle-3" fill="#E8AE36" x="254.494565" y="81.5506849" width="29.5923913" height="5.96712329"></rect>
                    <rect id="Rectangle-3" fill="#E8AE36" x="254.494565" y="105.419178" width="29.5923913" height="5.96712329"></rect>
                    <rect id="Rectangle-3" fill="#E8AE36" x="333.407609" y="105.419178" width="29.5923913" height="5.96712329"></rect>
                    <rect id="Rectangle-3" fill="#E8AE36" x="333.407609" y="81.5506849" width="29.5923913" height="5.96712329"></rect>
                    <rect id="Rectangle-3" fill="#0D4D8B" x="224.902174" y="105.419178" width="29.5923913" height="7.95616438"></rect>
                </g>
            </g>
        </g>
    </g>
</svg>