<?xml version="1.0" encoding="UTF-8"?>
<svg width="363px" height="138px" viewBox="0 0 363 138" version="1.1" xmlns="http://www.w3.org/2000/svg" xmlns:xlink="http://www.w3.org/1999/xlink">
    <!-- Generator: Sketch 48.2 (47327) - http://www.bohemiancoding.com/sketch -->
    <title>miso-no-drexel</title>
    <desc>Created with Sketch.</desc>
    <defs>
        <linearGradient x1="50%" y1="0%" x2="50%" y2="100%" id="linearGradient-1">
            <stop stop-color="#FFC03C" offset="0%"></stop>
            <stop stop-color="#AE8126" offset="100%"></stop>
        </linearGradient>
        <linearGradient x1="50%" y1="0%" x2="50%" y2="100%" id="linearGradient-2">
            <stop stop-color="#0F60AB" offset="0%"></stop>
            <stop stop-color="#0A3B6D" offset="100%"></stop>
        </linearGradient>
        <linearGradient x1="-87.2122397%" y1="-1348.91957%" x2="-87.2122407%" y2="942.145915%" id="linearGradient-3">
            <stop stop-color="#0F60AB" offset="0%"></stop>
            <stop stop-color="#0A3B6D" offset="100%"></stop>
        </linearGradient>
        <linearGradient x1="180.514665%" y1="-1361.90782%" x2="180.514669%" y2="928.072024%" id="linearGradient-4">
            <stop stop-color="#FFC03C" offset="0%"></stop>
            <stop stop-color="#AE8126" offset="100%"></stop>
        </linearGradient>
        <linearGradient x1="182.799439%" y1="-1764.16879%" x2="182.799435%" y2="535.687936%" id="linearGradient-5">
            <stop stop-color="#FFC03C" offset="0%"></stop>
            <stop stop-color="#AE8126" offset="100%"></stop>
        </linearGradient>
        <linearGradient x1="-88.885995%" y1="-1765.84965%" x2="-88.8859928%" y2="531.463485%" id="linearGradient-6">
            <stop stop-color="#FFC03C" offset="0%"></stop>
            <stop stop-color="#AE8126" offset="100%"></stop>
        </linearGradient>
        <linearGradient x1="-88.3802508%" y1="-1360.77733%" x2="-88.3802533%" y2="932.445224%" id="linearGradient-7">
            <stop stop-color="#FFC03C" offset="0%"></stop>
            <stop stop-color="#AE8126" offset="100%"></stop>
        </linearGradient>
        <linearGradient x1="-86.6304064%" y1="-1314.71143%" x2="-86.630404%" y2="389.634067%" id="linearGradient-8">
            <stop stop-color="#0F60AB" offset="0%"></stop>
            <stop stop-color="#0A3B6D" offset="100%"></stop>
        </linearGradient>
    </defs>
    <g id="miso" stroke="none" stroke-width="1" fill="none" fill-rule="evenodd">
        <g id="miso-no-drexel">
            <g id="Group-5">
                <g id="Group-4">
                    <path d="M363,83.4950912 L333.407609,83.4950912 L333.407609,29.2774995 L284.086957,29.2774995 L284.086957,83.4950912 L254.494565,83.4950912 L254.494565,0 L363,0 L363,83.4950912 Z M363,109.33881 L363,137.170507 L254.494565,137.170507 L254.494565,109.33881 L363,109.33881 Z" id="Combined-Shape" fill="url(#linearGradient-1)"></path>
                    <path d="M254.494565,83.4950912 L145.98913,83.4950912 L145.98913,0 L254.494565,0 L254.494565,29.3936801 L175.581522,29.3936801 L175.581522,53.8884134 L254.494565,53.8884134 L254.494565,83.4950912 Z M254.494565,109.33881 L254.494565,137.170507 L145.98913,137.170507 L145.98913,109.33881 L254.494565,109.33881 Z" id="Combined-Shape" fill="url(#linearGradient-2)"></path>
                    <path d="M145.98913,83.4950912 L116.396739,83.4950912 L116.396739,0 L145.98913,0 L145.98913,83.4950912 Z M145.98913,109.33881 L145.98913,137.170507 L116.396739,137.170507 L116.396739,109.33881 L145.98913,109.33881 Z" id="Combined-Shape" fill="url(#linearGradient-1)"></path>
                    <path d="M29.0991848,83.4950912 L0,83.4950912 L0,0 L24.2493207,0 L58.1983696,39.1915734 L92.1474185,0 L116.396739,0 L116.396739,83.4950912 L87.2975543,83.4950912 L87.2975543,53.8884134 L58.1983696,83.2820935 L29.0991848,53.8884134 L29.0991848,83.4950912 Z M29.0991848,109.33881 L29.0991848,137.170507 L0,137.170507 L0,109.33881 L29.0991848,109.33881 Z M116.396739,109.33881 L116.396739,137.170507 L87.2975543,137.170507 L87.2975543,109.33881 L116.396739,109.33881 Z" id="Combined-Shape" fill="url(#linearGradient-2)"></path>
                    <path d="M2.73048667,94.9259667 L2.73048667,103.374875 L0,103.374875 L0,89.4590262 L2.27540556,89.4590262 L5.46097335,93.434983 L8.64654113,89.4590262 L10.9219467,89.4590262 L10.9219467,103.374875 L8.19146002,103.374875 L8.19146002,94.9259667 L5.46097335,97.9079343 L2.73048667,94.9259667 Z M11.8321089,103.374875 L11.8321089,92.242196 L19.8415365,92.242196 L19.8415365,103.374875 L17.6571472,103.374875 L17.6571472,100.989301 L14.0164983,100.989301 L14.0164983,103.374875 L11.8321089,103.374875 Z M17.6571472,98.6037267 L17.6571472,94.62777 L14.0164983,94.62777 L14.0164983,98.6037267 L17.6571472,98.6037267 Z M22.9360881,96.6157483 L22.9360881,103.374875 L20.7516987,103.374875 L20.7516987,92.242196 L22.9360881,92.242196 L22.9360881,93.434983 L26.576737,97.4109397 L26.576737,92.242196 L28.7611263,92.242196 L28.7611263,103.374875 L26.576737,103.374875 L26.576737,100.591705 L22.9360881,96.6157483 Z M29.6712885,103.374875 L29.6712885,92.242196 L37.6807161,92.242196 L37.6807161,103.374875 L35.4963268,103.374875 L35.4963268,100.989301 L31.8556779,100.989301 L31.8556779,103.374875 L29.6712885,103.374875 Z M35.4963268,98.6037267 L35.4963268,94.62777 L31.8556779,94.62777 L31.8556779,98.6037267 L35.4963268,98.6037267 Z M46.6003059,103.374875 L38.5908783,103.374875 L38.5908783,92.242196 L46.6003059,92.242196 L46.6003059,94.62777 L40.7752677,94.62777 L40.7752677,100.989301 L44.4159166,100.989301 L44.4159166,99.0013224 L42.2315272,99.0013224 L42.2315272,96.6157483 L46.6003059,96.6157483 L46.6003059,103.374875 Z M49.6948575,99.0013224 L49.6948575,100.989301 L55.5198957,100.989301 L55.5198957,103.374875 L47.5104681,103.374875 L47.5104681,92.242196 L55.5198957,92.242196 L55.5198957,94.62777 L49.6948575,94.62777 L49.6948575,96.6157483 L53.3355064,96.6157483 L53.3355064,99.0013224 L49.6948575,99.0013224 Z M58.6144473,96.6157483 L58.6144473,103.374875 L56.4300579,103.374875 L56.4300579,92.242196 L58.2503824,92.242196 L60.7988366,95.4229613 L63.3472908,92.242196 L65.1676153,92.242196 L65.1676153,103.374875 L62.9832259,103.374875 L62.9832259,96.6157483 L60.7988366,99.0013224 L58.6144473,96.6157483 Z M68.2621668,99.0013224 L68.2621668,100.989301 L74.0872051,100.989301 L74.0872051,103.374875 L66.0777775,103.374875 L66.0777775,92.242196 L74.0872051,92.242196 L74.0872051,94.62777 L68.2621668,94.62777 L68.2621668,96.6157483 L71.9028157,96.6157483 L71.9028157,99.0013224 L68.2621668,99.0013224 Z M77.1817566,96.6157483 L77.1817566,103.374875 L74.9973673,103.374875 L74.9973673,92.242196 L77.1817566,92.242196 L77.1817566,93.434983 L80.8224055,97.4109397 L80.8224055,92.242196 L83.0067949,92.242196 L83.0067949,103.374875 L80.8224055,103.374875 L80.8224055,100.591705 L77.1817566,96.6157483 Z M91.9263847,92.242196 L91.9263847,94.62777 L89.0138656,94.62777 L89.0138656,103.374875 L86.8294762,103.374875 L86.8294762,94.62777 L83.9169571,94.62777 L83.9169571,92.242196 L91.9263847,92.242196 Z M99.7628814,89.4590262 L102.493368,89.4590262 L102.493368,103.374875 L99.7628814,103.374875 L99.7628814,89.4590262 Z M105.58792,96.6157483 L105.58792,103.374875 L103.40353,103.374875 L103.40353,92.242196 L105.58792,92.242196 L105.58792,93.434983 L109.228569,97.4109397 L109.228569,92.242196 L111.412958,92.242196 L111.412958,103.374875 L109.228569,103.374875 L109.228569,100.591705 L105.58792,96.6157483 Z M114.507509,99.0013224 L114.507509,103.374875 L112.32312,103.374875 L112.32312,92.242196 L120.332548,92.242196 L120.332548,94.62777 L114.507509,94.62777 L114.507509,96.6157483 L118.148158,96.6157483 L118.148158,99.0013224 L114.507509,99.0013224 Z M121.24271,92.242196 L129.252138,92.242196 L129.252138,103.374875 L121.24271,103.374875 L121.24271,92.242196 Z M127.067748,100.989301 L127.067748,94.62777 L123.427099,94.62777 L123.427099,100.989301 L127.067748,100.989301 Z M135.987338,96.6157483 L135.987338,94.62777 L132.346689,94.62777 L132.346689,96.6157483 L135.987338,96.6157483 Z M132.346689,99.3989181 L132.346689,103.374875 L130.1623,103.374875 L130.1623,92.242196 L138.171727,92.242196 L138.171727,99.0013224 L135.259208,99.0013224 L138.171727,102.182088 L138.171727,103.374875 L135.987338,103.374875 L132.346689,99.3989181 Z M141.266279,96.6157483 L141.266279,103.374875 L139.08189,103.374875 L139.08189,92.242196 L140.902214,92.242196 L143.450668,95.4229613 L145.999122,92.242196 L147.819447,92.242196 L147.819447,103.374875 L145.635058,103.374875 L145.635058,96.6157483 L143.450668,99.0013224 L141.266279,96.6157483 Z M148.729609,103.374875 L148.729609,92.242196 L156.739037,92.242196 L156.739037,103.374875 L154.554647,103.374875 L154.554647,100.989301 L150.913998,100.989301 L150.913998,103.374875 L148.729609,103.374875 Z M154.554647,98.6037267 L154.554647,94.62777 L150.913998,94.62777 L150.913998,98.6037267 L154.554647,98.6037267 Z M165.658626,92.242196 L165.658626,94.62777 L162.746107,94.62777 L162.746107,103.374875 L160.561718,103.374875 L160.561718,94.62777 L157.649199,94.62777 L157.649199,92.242196 L165.658626,92.242196 Z M166.568789,92.242196 L168.753178,92.242196 L168.753178,103.374875 L166.568789,103.374875 L166.568789,92.242196 Z M169.66334,92.242196 L177.672768,92.242196 L177.672768,103.374875 L169.66334,103.374875 L169.66334,92.242196 Z M175.488379,100.989301 L175.488379,94.62777 L171.84773,94.62777 L171.84773,100.989301 L175.488379,100.989301 Z M180.767319,96.6157483 L180.767319,103.374875 L178.58293,103.374875 L178.58293,92.242196 L180.767319,92.242196 L180.767319,93.434983 L184.407968,97.4109397 L184.407968,92.242196 L186.592358,92.242196 L186.592358,103.374875 L184.407968,103.374875 L184.407968,100.591705 L180.767319,96.6157483 Z M201.710152,97.9079343 L194.428854,97.9079343 L194.428854,89.4590262 L204.440639,89.4590262 L204.440639,92.4409938 L197.159341,92.4409938 L197.159341,94.9259667 L204.440639,94.9259667 L204.440639,103.374875 L194.428854,103.374875 L194.428854,100.392907 L201.710152,100.392907 L201.710152,97.9079343 Z M205.350801,92.242196 L207.53519,92.242196 L207.53519,96.6157483 L211.175839,96.6157483 L211.175839,92.2521358 L213.360229,92.242196 L213.360229,103.374875 L205.350801,103.374875 L205.350801,100.989301 L211.175839,100.989301 L211.175839,99.0013224 L205.350801,99.0013224 L205.350801,92.242196 Z M220.095429,99.0013224 L214.270391,99.0013224 L214.270391,92.242196 L222.279818,92.242196 L222.279818,94.62777 L216.45478,94.62777 L216.45478,96.6157483 L222.279818,96.6157483 L222.279818,103.374875 L214.270391,103.374875 L214.270391,100.989301 L220.095429,100.989301 L220.095429,99.0013224 Z M231.199408,92.242196 L231.199408,94.62777 L228.286889,94.62777 L228.286889,103.374875 L226.1025,103.374875 L226.1025,94.62777 L223.189981,94.62777 L223.189981,92.242196 L231.199408,92.242196 Z M234.29396,99.0013224 L234.29396,100.989301 L240.118998,100.989301 L240.118998,103.374875 L232.10957,103.374875 L232.10957,92.242196 L240.118998,92.242196 L240.118998,94.62777 L234.29396,94.62777 L234.29396,96.6157483 L237.934609,96.6157483 L237.934609,99.0013224 L234.29396,99.0013224 Z M243.21355,96.6157483 L243.21355,103.374875 L241.02916,103.374875 L241.02916,92.242196 L242.849485,92.242196 L245.397939,95.4229613 L247.946393,92.242196 L249.766718,92.242196 L249.766718,103.374875 L247.582328,103.374875 L247.582328,96.6157483 L245.397939,99.0013224 L243.21355,96.6157483 Z M256.501918,99.0013224 L250.67688,99.0013224 L250.67688,92.242196 L258.686307,92.242196 L258.686307,94.62777 L252.861269,94.62777 L252.861269,96.6157483 L258.686307,96.6157483 L258.686307,103.374875 L250.67688,103.374875 L250.67688,100.989301 L256.501918,100.989301 L256.501918,99.0013224 Z M266.522804,89.4590262 L276.534589,89.4590262 L276.534589,103.374875 L266.522804,103.374875 L266.522804,89.4590262 Z M273.804102,100.392907 L273.804102,92.4409938 L269.253291,92.4409938 L269.253291,100.392907 L273.804102,100.392907 Z M283.269789,96.6157483 L283.269789,94.62777 L279.62914,94.62777 L279.62914,96.6157483 L283.269789,96.6157483 Z M279.62914,99.3989181 L279.62914,103.374875 L277.444751,103.374875 L277.444751,92.242196 L285.454178,92.242196 L285.454178,99.0013224 L282.541659,99.0013224 L285.454178,102.182088 L285.454178,103.374875 L283.269789,103.374875 L279.62914,99.3989181 Z M294.373768,103.374875 L286.364341,103.374875 L286.364341,92.242196 L294.373768,92.242196 L294.373768,94.62777 L288.54873,94.62777 L288.54873,100.989301 L292.189379,100.989301 L292.189379,99.0013224 L290.00499,99.0013224 L290.00499,96.6157483 L294.373768,96.6157483 L294.373768,103.374875 Z M295.28393,103.374875 L295.28393,92.242196 L303.293358,92.242196 L303.293358,103.374875 L301.108969,103.374875 L301.108969,100.989301 L297.46832,100.989301 L297.46832,103.374875 L295.28393,103.374875 Z M301.108969,98.6037267 L301.108969,94.62777 L297.46832,94.62777 L297.46832,98.6037267 L301.108969,98.6037267 Z M306.38791,96.6157483 L306.38791,103.374875 L304.20352,103.374875 L304.20352,92.242196 L306.38791,92.242196 L306.38791,93.434983 L310.028559,97.4109397 L310.028559,92.242196 L312.212948,92.242196 L312.212948,103.374875 L310.028559,103.374875 L310.028559,100.591705 L306.38791,96.6157483 Z M313.12311,92.242196 L315.307499,92.242196 L315.307499,103.374875 L313.12311,103.374875 L313.12311,92.242196 Z M320.69566,94.62777 L316.217662,94.62777 L316.217662,92.242196 L324.227089,92.242196 L324.227089,93.0373873 L319.749091,100.989301 L324.227089,100.989301 L324.227089,103.374875 L316.217662,103.374875 L316.217662,102.579683 L320.69566,94.62777 Z M325.137251,103.374875 L325.137251,92.242196 L333.146679,92.242196 L333.146679,103.374875 L330.96229,103.374875 L330.96229,100.989301 L327.321641,100.989301 L327.321641,103.374875 L325.137251,103.374875 Z M330.96229,98.6037267 L330.96229,94.62777 L327.321641,94.62777 L327.321641,98.6037267 L330.96229,98.6037267 Z M342.066269,92.242196 L342.066269,94.62777 L339.15375,94.62777 L339.15375,103.374875 L336.96936,103.374875 L336.96936,94.62777 L334.056841,94.62777 L334.056841,92.242196 L342.066269,92.242196 Z M342.976431,92.242196 L345.16082,92.242196 L345.16082,103.374875 L342.976431,103.374875 L342.976431,92.242196 Z M346.070983,92.242196 L354.08041,92.242196 L354.08041,103.374875 L346.070983,103.374875 L346.070983,92.242196 Z M351.896021,100.989301 L351.896021,94.62777 L348.255372,94.62777 L348.255372,100.989301 L351.896021,100.989301 Z M357.174962,96.6157483 L357.174962,103.374875 L354.990572,103.374875 L354.990572,92.242196 L357.174962,92.242196 L357.174962,93.434983 L360.815611,97.4109397 L360.815611,92.242196 L363,92.242196 L363,103.374875 L360.815611,103.374875 L360.815611,100.591705 L357.174962,96.6157483 Z" id="Management-Informati" fill="url(#linearGradient-2)"></path>
                    <rect id="Rectangle-3" fill="url(#linearGradient-3)" x="224.902174" y="81.5071128" width="29.5923913" height="5.96393508"></rect>
                    <rect id="Rectangle-3" fill="url(#linearGradient-4)" x="254.494565" y="81.5071128" width="29.5923913" height="5.96393508"></rect>
                    <rect id="Rectangle-3" fill="url(#linearGradient-5)" x="254.494565" y="105.362853" width="29.5923913" height="5.96393508"></rect>
                    <rect id="Rectangle-3" fill="url(#linearGradient-6)" x="333.407609" y="105.362853" width="29.5923913" height="5.96393508"></rect>
                    <rect id="Rectangle-3" fill="url(#linearGradient-7)" x="333.407609" y="81.5071128" width="29.5923913" height="5.96393508"></rect>
                    <rect id="Rectangle-3" fill="url(#linearGradient-8)" x="224.902174" y="105.362853" width="29.5923913" height="7.95191344"></rect>
                </g>
            </g>
        </g>
    </g>
</svg>