<?xml version="1.0" encoding="UTF-8"?>
<svg width="616px" height="178px" viewBox="0 0 616 178" version="1.1" xmlns="http://www.w3.org/2000/svg" xmlns:xlink="http://www.w3.org/1999/xlink">
    <!-- Generator: Sketch 47.1 (45422) - http://www.bohemiancoding.com/sketch -->
    <title>ubacbanner</title>
    <desc>Created with Sketch.</desc>
    <defs></defs>
    <g id="ubac" stroke="none" stroke-width="1" fill="none" fill-rule="evenodd">
        <g id="ubacbanner">
            <g id="Group-2">
                <g id="Group">
                    <path d="M354.336328,63.2072173 C358.226805,63.7715971 361.725044,64.806278 364.83115,66.3112909 C367.937256,67.8163039 370.604075,69.7445728 372.831686,72.0961555 C375.059298,74.4477382 376.769199,77.2382411 377.961442,80.4677481 C379.153685,83.697255 379.749797,87.381346 379.749797,91.5201316 C379.749797,94.4674486 379.310556,97.5558142 378.432062,100.785321 C377.553567,104.014828 376.09466,107.150225 374.055298,110.191605 C372.015935,113.232985 369.349116,116.039165 366.054761,118.610229 C362.760406,121.181293 358.666055,123.282008 353.771585,124.912439 C350.006608,126.166617 345.833821,127.044528 341.253098,127.546199 C336.672376,128.04787 331.181867,128.298701 324.781406,128.298701 L292.214516,128.298701 L292.214516,2.44262378 L323.651918,2.44262378 C326.538401,2.44262378 329.158158,2.48965473 331.511269,2.58371804 C333.864379,2.67778135 336.029209,2.81887419 338.005822,3.00700081 C339.982435,3.19512743 341.817834,3.43028217 343.512073,3.7124721 C345.206313,3.99466202 346.806404,4.32387867 348.312395,4.7001319 C352.265621,5.76618273 355.857983,7.22414214 359.089588,9.07405388 C362.321194,10.9239656 365.066448,13.1344202 367.325435,15.705484 C369.584421,18.2765477 371.325697,21.1924666 372.549314,24.4533279 C373.772932,27.7141893 374.384731,31.2571874 374.384731,35.0824286 C374.384731,38.1551634 374.023927,41.1024362 373.302306,43.9243354 C372.580685,46.7462347 371.419835,49.3486139 369.81972,51.731551 C368.219604,54.1144882 366.148898,56.2465578 363.607538,58.127824 C361.066179,60.0090902 357.975806,61.5767885 354.336328,62.8309659 L354.336328,63.2072173 Z M330.899463,56.9050071 C333.911445,56.9050071 336.515515,56.7639143 338.711752,56.4817243 C340.907988,56.1995344 342.884572,55.7762559 344.641561,55.211876 C349.347782,53.6441542 352.783272,51.1985449 354.948134,47.8749746 C357.112996,44.5514044 358.195411,40.6321587 358.195411,36.1171199 C358.195411,31.4766633 357.065935,27.6828334 354.806948,24.7355164 C352.547962,21.7881994 349.002662,19.5934218 344.170941,18.1511178 C341.786456,17.4613202 339.025514,16.9753337 335.888033,16.6931438 C332.750552,16.4109538 329.04838,16.269861 324.781406,16.269861 L307.556722,16.269861 L307.556722,56.9050071 L330.899463,56.9050071 Z M307.556722,70.7322443 L307.556722,114.471464 L326.099141,114.471464 C330.491614,114.471464 334.570279,114.267663 338.335256,113.860056 C342.100233,113.452448 345.300415,112.809692 347.935899,111.931767 C350.822382,110.991134 353.26958,109.784007 355.277568,108.310348 C357.285556,106.83669 358.901334,105.206283 360.124952,103.419081 C361.348569,101.631878 362.227051,99.7349628 362.760423,97.7282789 C363.293794,95.721595 363.560476,93.6835872 363.560476,91.6141944 C363.560476,89.2312573 363.278107,86.9894487 362.713361,84.8887015 C362.148614,82.7879542 361.223071,80.9067163 359.936704,79.2449312 C358.650337,77.5831461 356.956122,76.1251866 354.85401,74.8710092 C352.751898,73.6168318 350.132141,72.6448588 346.99466,71.9550612 C345.112171,71.5160991 342.963029,71.2025594 340.547169,71.0144328 C338.131308,70.8263062 335.135059,70.7322443 331.558331,70.7322443 L307.556722,70.7322443 Z M392.682139,128.298701 L443.979696,2.44262378 L457.251174,2.44262378 L508.548731,128.298701 L491.888791,128.298701 L476.828958,90.3913775 L424.213665,90.3913775 L409.153832,128.298701 L392.682139,128.298701 Z M450.474249,22.0076941 C444.889533,37.6849122 439.524521,51.9196127 434.379053,64.7122227 L429.672855,76.5641403 L471.369768,76.5641403 L466.66357,64.7122227 C461.518101,51.6687772 456.247212,37.4340767 450.850745,22.0076941 L450.474249,22.0076941 Z" id="BA" fill="#69B214"></path>
                    <path d="M212.442271,117.0099 C217.022943,117.0099 221.085875,116.476888 224.631189,115.410849 C228.176504,114.34481 231.266842,112.839836 233.902297,110.895883 C236.537752,108.951929 238.733932,106.616084 240.490902,103.888278 C242.247872,101.160472 243.596953,98.134848 244.538187,94.8113144 C245.165677,92.7419443 245.604912,90.4374532 245.855908,87.8977718 C246.106904,85.3580905 246.2324,82.8968312 246.2324,80.5139203 L246.2324,2.44262378 L261.574436,2.44262378 L261.574436,80.1376731 C261.574436,83.0849576 261.417566,86.1576125 261.103821,89.3557298 C260.790077,92.5538471 260.288093,95.5324411 259.597855,98.2916011 C258.405625,102.932007 256.617307,107.227453 254.232848,111.178068 C251.848389,115.128684 248.742364,118.546228 244.914679,121.430805 C241.086994,124.315381 236.490704,126.572842 231.125671,128.203254 C225.760638,129.833667 219.470152,130.648861 212.254025,130.648861 C205.351643,130.648861 199.296462,129.896374 194.088301,128.391378 C188.88014,126.886382 184.409346,124.801366 180.675785,122.136268 C176.942224,119.47117 173.883259,116.304455 171.4988,112.636026 C169.114341,108.967597 167.263275,104.970011 165.945548,100.643146 C165.004314,97.507737 164.329773,94.1528996 163.921905,90.5785332 C163.514037,87.0041668 163.310106,83.5239149 163.310106,80.1376731 L163.310106,2.44262378 L178.652142,2.44262378 L178.652142,80.5139203 C178.652142,83.3357885 178.856073,86.2359984 179.263941,89.2146371 C179.671809,92.1932757 180.314976,94.9053639 181.193461,97.350983 C183.389673,103.433677 187.044744,108.230781 192.158781,111.742439 C197.272819,115.254097 204.033914,117.0099 212.442271,117.0099 Z" id="U" fill="#303030"></path>
                    <path d="M588.088138,13.7301644 C581.12293,13.7301644 574.612755,14.8432302 568.557417,17.0693951 C562.502079,19.2955601 557.246877,22.6190805 552.791654,27.040056 C548.336431,31.4610315 544.822505,36.9479755 542.249771,43.5010527 C539.677036,50.0541298 538.390689,57.6888205 538.390689,66.4053538 C538.390689,75.0591781 539.582913,82.568453 541.967399,88.9334035 C544.351884,95.2983541 547.740313,100.56582 552.132786,104.73596 C556.52526,108.9061 561.811836,111.994466 567.992673,114.00115 C574.173511,116.007834 581.060178,117.011161 588.652882,117.011161 C590.723619,117.011161 592.919823,116.901422 595.241559,116.681941 C597.563295,116.46246 599.900683,116.14892 602.253794,115.741312 C604.606904,115.333705 606.897231,114.863395 609.124843,114.33037 C611.352454,113.797344 613.344725,113.217296 615.101714,112.590207 L615.101714,126.135256 C611.399486,127.57756 607.101202,128.690626 602.206732,129.474487 C597.312262,130.258348 592.292367,130.650272 587.146899,130.650272 C576.667712,130.650272 567.380908,129.192313 559.286207,126.27635 C551.191506,123.360388 544.398962,119.174633 538.90837,113.718961 C533.417779,108.263289 529.260679,101.600572 526.436946,93.7306083 C523.613213,85.8606448 522.201368,76.9404415 522.201368,66.9697308 C522.201368,57.1871467 523.691649,48.1885585 526.672256,39.9736962 C529.652863,31.7588339 533.951147,24.7041916 539.567238,18.8095576 C545.183329,12.9149236 551.99156,8.32156763 559.992137,5.02935183 C567.992713,1.73713603 576.981461,0.0910528274 586.958651,0.0910528274 C589.594135,0.0910528274 592.198205,0.200791708 594.770939,0.420272761 C597.343674,0.639753814 599.806559,0.953293473 602.15967,1.36090114 C604.512781,1.76850881 606.693297,2.25449528 608.701285,2.81887514 C610.709273,3.38325499 612.434861,3.97898034 613.878103,4.60606906 L613.878103,18.1511178 C610.113125,16.8969403 606.003087,15.8465825 601.547864,15.0000127 C597.092641,14.1534429 592.606111,13.7301644 588.088138,13.7301644 Z" id="C" fill="#303030"></path>
                    <path d="M16.1689479,154.628079 L16.1689479,170.187482 C16.1689479,171.480165 15.9559932,172.607304 15.5300773,173.568933 C15.1041614,174.530563 14.5257658,175.331909 13.7948731,175.972995 C13.0639805,176.614082 12.2069033,177.094889 11.2236161,177.415432 C10.2403288,177.735976 9.19132947,177.896245 8.07658668,177.896245 C6.93029455,177.896245 5.86552083,177.735976 4.88223355,177.415432 C3.89894627,177.094889 3.04449821,176.614082 2.31886375,175.972995 C1.59322929,175.331909 1.02534997,174.530563 0.615208751,173.568933 C0.205067533,172.607304 0,171.480165 0,170.187482 L0,154.628079 L1.92449917,154.628079 L1.92449917,170.187482 C1.92449917,171.196405 2.07698528,172.0792 2.38196209,172.835892 C2.68693889,173.592584 3.11284838,174.223151 3.65970334,174.727612 C4.20655829,175.232074 4.85593881,175.613042 5.60786438,175.870527 C6.35978995,176.128013 7.18268915,176.256753 8.07658668,176.256753 C8.9704842,176.256753 9.7933834,176.128013 10.545309,175.870527 C11.2972345,175.613042 11.943986,175.232074 12.4855827,174.727612 C13.0271795,174.223151 13.4504599,173.592584 13.7554367,172.835892 C14.0604135,172.0792 14.2128996,171.196405 14.2128996,170.187482 L14.2128996,154.628079 L16.1689479,154.628079 Z M38.4804701,177.580958 L36.5401964,177.580958 L23.3368701,157.93859 L23.3368701,177.580958 L21.3808218,177.580958 L21.3808218,154.628079 L23.3368701,154.628079 L36.5559709,174.286211 L36.5559709,154.628079 L38.4804701,154.628079 L38.4804701,177.580958 Z M44.1182577,177.580958 L44.1182577,154.628079 L50.5385131,154.628079 C51.9687492,154.628079 53.2859137,154.875051 54.4900462,155.369003 C55.6941788,155.862955 56.7300327,156.567088 57.5976392,157.481424 C58.4652456,158.395761 59.1409168,159.493999 59.6246731,160.776171 C60.1084294,162.058344 60.350304,163.48763 60.350304,165.064072 L60.350304,167.160729 C60.350304,168.737171 60.1084294,170.166457 59.6246731,171.44863 C59.1409168,172.730802 58.4626165,173.826413 57.5897519,174.735495 C56.7168872,175.644576 55.670517,176.346082 54.4506098,176.840034 C53.2307026,177.333986 51.8846183,177.580958 50.4123164,177.580958 L44.1182577,177.580958 Z M46.0585314,156.283334 L46.0585314,175.941467 L50.4123164,175.941467 C51.6427401,175.941467 52.752208,175.72865 53.7407535,175.303011 C54.729299,174.877372 55.5706017,174.278333 56.2646869,173.505876 C56.958772,172.73342 57.4924734,171.808588 57.8658071,170.731352 C58.2391408,169.654117 58.4258048,168.463921 58.4258048,167.160729 L58.4258048,165.016779 C58.4258048,163.692568 58.2365117,162.491862 57.8579198,161.414627 C57.4793279,160.337392 56.9456265,159.420442 56.2567996,158.66375 C55.5679727,157.907058 54.7398153,157.321156 53.7723027,156.906026 C52.8047901,156.490896 51.726871,156.283334 50.5385131,156.283334 L46.0585314,156.283334 Z M77.7559307,166.577449 L67.0134395,166.577449 L67.0134395,175.941467 L79.3649382,175.941467 L79.3649382,177.580958 L65.0731657,177.580958 L65.0731657,154.628079 L79.2860653,154.628079 L79.2860653,156.283334 L67.0134395,156.283334 L67.0134395,164.937957 L77.7559307,164.937957 L77.7559307,166.577449 Z M91.8331204,168.027768 L85.1604716,168.027768 L85.1604716,177.580958 L83.2044233,177.580958 L83.2044233,154.628079 L90.6658012,154.628079 C91.8646755,154.628079 92.9452237,154.775211 93.9074781,155.06948 C94.8697325,155.363749 95.6900026,155.797264 96.3683131,156.370038 C97.0466236,156.942812 97.5671796,157.649573 97.9299968,158.490342 C98.2928141,159.331111 98.47422,160.297981 98.47422,161.390981 C98.47422,162.147673 98.3585409,162.859688 98.1271791,163.527049 C97.8958174,164.194409 97.5698126,164.796075 97.149155,165.332066 C96.7284973,165.868056 96.2263448,166.330472 95.6426823,166.719328 C95.0590198,167.108183 94.4148974,167.407703 93.7102958,167.617895 L99.4522441,177.376022 L99.4522441,177.580958 L97.3857737,177.580958 L91.8331204,168.027768 Z M85.1604716,166.372512 L91.1074895,166.372512 C92.0013871,166.372512 92.7874793,166.235889 93.4657898,165.962639 C94.1441002,165.689389 94.7093505,165.324186 95.1615575,164.867018 C95.6137645,164.40985 95.9529146,163.879122 96.1790181,163.274819 C96.4051216,162.670517 96.5181716,162.042577 96.5181716,161.390981 C96.5181716,160.60276 96.3919762,159.893372 96.1395816,159.262795 C95.887187,158.632218 95.5112299,158.096236 95.0116989,157.654832 C94.512168,157.213428 93.8995944,156.874498 93.17396,156.638032 C92.4483255,156.401566 91.6122809,156.283334 90.6658012,156.283334 L85.1604716,156.283334 L85.1604716,166.372512 Z M120.138984,174.853727 C119.939172,175.137487 119.636829,175.458025 119.231946,175.815352 C118.827063,176.172679 118.301249,176.503727 117.654487,176.808505 C117.007726,177.113284 116.229521,177.370766 115.319849,177.580958 C114.410177,177.79115 113.355919,177.896245 112.157045,177.896245 C110.800424,177.896245 109.559503,177.6519 108.434243,177.163203 C107.308984,176.674506 106.338857,175.975627 105.523833,175.066546 C104.708809,174.157464 104.075202,173.056599 103.622995,171.763916 C103.170788,170.471234 102.944688,169.020929 102.944688,167.412959 L102.944688,164.62267 C102.944688,163.046229 103.149756,161.622197 103.559897,160.350534 C103.970038,159.078871 104.561579,157.996397 105.334538,157.10308 C106.107496,156.209763 107.040816,155.521394 108.134526,155.037952 C109.228236,154.554509 110.4639,154.312792 111.841553,154.312792 C113.114043,154.312792 114.239285,154.483571 115.217314,154.825133 C116.195343,155.166695 117.02613,155.642248 117.709698,156.251806 C118.393267,156.861363 118.934856,157.578634 119.33448,158.403638 C119.734105,159.228643 119.997012,160.124574 120.12321,161.091458 L118.182936,161.091458 C118.067255,160.408333 117.867446,159.756747 117.583502,159.13668 C117.299558,158.516613 116.905197,157.972749 116.400408,157.505071 C115.895619,157.037393 115.272529,156.664307 114.53112,156.385803 C113.789711,156.107298 112.898456,155.968048 111.857328,155.968048 C110.732069,155.968048 109.73828,156.175609 108.875932,156.590739 C108.013584,157.005869 107.285331,157.589144 106.691152,158.340581 C106.096973,159.092018 105.647402,159.998459 105.342425,161.05993 C105.037448,162.1214 104.884962,163.298459 104.884962,164.591142 L104.884962,167.412959 C104.884962,168.758189 105.058481,169.974658 105.405523,171.062403 C105.752566,172.150148 106.244202,173.077608 106.880447,173.844809 C107.516692,174.612011 108.281751,175.205795 109.175649,175.62618 C110.069546,176.046564 111.063335,176.256753 112.157045,176.256753 C113.040426,176.256753 113.818631,176.191069 114.491683,176.059699 C115.164736,175.928329 115.748389,175.762805 116.242662,175.563122 C116.736935,175.36344 117.144441,175.147996 117.465192,174.916785 C117.785944,174.685573 118.030447,174.464874 118.19871,174.254682 L118.19871,168.32729 L112.030848,168.32729 L112.030848,166.687799 L120.138984,166.687799 L120.138984,174.853727 Z M134.026879,168.027768 L127.35423,168.027768 L127.35423,177.580958 L125.398182,177.580958 L125.398182,154.628079 L132.85956,154.628079 C134.058434,154.628079 135.138982,154.775211 136.101237,155.06948 C137.063491,155.363749 137.883761,155.797264 138.562072,156.370038 C139.240382,156.942812 139.760938,157.649573 140.123755,158.490342 C140.486573,159.331111 140.667978,160.297981 140.667978,161.390981 C140.667978,162.147673 140.552299,162.859688 140.320938,163.527049 C140.089576,164.194409 139.763571,164.796075 139.342913,165.332066 C138.922256,165.868056 138.420103,166.330472 137.836441,166.719328 C137.252778,167.108183 136.608656,167.407703 135.904054,167.617895 L141.646003,177.376022 L141.646003,177.580958 L139.579532,177.580958 L134.026879,168.027768 Z M127.35423,166.372512 L133.301248,166.372512 C134.195146,166.372512 134.981238,166.235889 135.659548,165.962639 C136.337859,165.689389 136.903109,165.324186 137.355316,164.867018 C137.807523,164.40985 138.146673,163.879122 138.372777,163.274819 C138.59888,162.670517 138.71193,162.042577 138.71193,161.390981 C138.71193,160.60276 138.585735,159.893372 138.33334,159.262795 C138.080946,158.632218 137.704988,158.096236 137.205457,157.654832 C136.705926,157.213428 136.093353,156.874498 135.367718,156.638032 C134.642084,156.401566 133.806039,156.283334 132.85956,156.283334 L127.35423,156.283334 L127.35423,166.372512 Z M158.152478,171.149107 L147.725479,171.149107 L145.359291,177.580958 L143.32437,177.580958 L152.016165,154.628079 L153.861791,154.628079 L162.553587,177.580958 L160.53444,177.580958 L158.152478,171.149107 Z M148.324913,169.493852 L157.537269,169.493852 L152.931091,156.99273 L148.324913,169.493852 Z M165.730539,177.580958 L165.730539,154.628079 L172.150795,154.628079 C173.581031,154.628079 174.898196,154.875051 176.102328,155.369003 C177.306461,155.862955 178.342315,156.567088 179.209921,157.481424 C180.077527,158.395761 180.753199,159.493999 181.236955,160.776171 C181.720711,162.058344 181.962586,163.48763 181.962586,165.064072 L181.962586,167.160729 C181.962586,168.737171 181.720711,170.166457 181.236955,171.44863 C180.753199,172.730802 180.074898,173.826413 179.202034,174.735495 C178.329169,175.644576 177.282799,176.346082 176.062892,176.840034 C174.842984,177.333986 173.4969,177.580958 172.024598,177.580958 L165.730539,177.580958 Z M167.670813,156.283334 L167.670813,175.941467 L172.024598,175.941467 C173.255022,175.941467 174.36449,175.72865 175.353035,175.303011 C176.341581,174.877372 177.182884,174.278333 177.876969,173.505876 C178.571054,172.73342 179.104755,171.808588 179.478089,170.731352 C179.851423,169.654117 180.038087,168.463921 180.038087,167.160729 L180.038087,165.016779 C180.038087,163.692568 179.848793,162.491862 179.470202,161.414627 C179.09161,160.337392 178.557908,159.420442 177.869081,158.66375 C177.180254,157.907058 176.352097,157.321156 175.384585,156.906026 C174.417072,156.490896 173.339153,156.283334 172.150795,156.283334 L167.670813,156.283334 Z M201.999316,177.580958 L201.999316,154.628079 L208.782387,154.628079 C209.949712,154.628079 210.996082,154.74631 211.921529,154.982776 C212.846976,155.219243 213.633068,155.581819 214.279829,156.070516 C214.92659,156.559213 215.423485,157.181898 215.770527,157.93859 C216.11757,158.695282 216.291089,159.593841 216.291089,160.634292 C216.291089,161.222831 216.209587,161.777204 216.046582,162.29743 C215.883578,162.817656 215.644332,163.293209 215.328839,163.724103 C215.013346,164.154997 214.63213,164.53071 214.185182,164.851253 C213.738233,165.171797 213.230822,165.426651 212.662934,165.615824 C213.335987,165.762958 213.945931,166.007303 214.492786,166.348866 C215.039641,166.690428 215.507616,167.105552 215.896724,167.594249 C216.285832,168.082946 216.585546,168.62681 216.795875,169.225858 C217.006204,169.824906 217.111367,170.455473 217.111367,171.117579 C217.111367,172.16854 216.935219,173.095999 216.582918,173.899985 C216.230618,174.70397 215.731094,175.379202 215.084333,175.925702 C214.437572,176.472202 213.661996,176.884698 212.757582,177.163203 C211.853168,177.441708 210.854121,177.580958 209.760411,177.580958 L201.999316,177.580958 Z M203.93959,166.54592 L203.93959,175.941467 L209.760411,175.941467 C210.601726,175.941467 211.35627,175.831117 212.024064,175.610415 C212.691858,175.389714 213.259737,175.07443 213.727719,174.664555 C214.1957,174.25468 214.553254,173.752854 214.80039,173.159061 C215.047527,172.565267 215.171093,171.89529 215.171093,171.149107 C215.171093,170.508021 215.06593,169.906355 214.855601,169.34409 C214.645273,168.781826 214.321897,168.293136 213.885465,167.878007 C213.449032,167.462877 212.902185,167.137084 212.244908,166.900618 C211.58763,166.664151 210.812054,166.54592 209.918157,166.54592 L203.93959,166.54592 Z M203.93959,164.922193 L209.23985,164.922193 C210.859382,164.890664 212.113449,164.509696 213.002088,163.779278 C213.890727,163.04886 214.33504,161.984778 214.33504,160.586999 C214.33504,159.115654 213.874953,158.030552 212.954764,157.331663 C212.034576,156.632774 210.643797,156.283334 208.782387,156.283334 L203.93959,156.283334 L203.93959,164.922193 Z M237.419517,154.628079 L237.419517,170.187482 C237.419517,171.480165 237.206562,172.607304 236.780646,173.568933 C236.35473,174.530563 235.776335,175.331909 235.045442,175.972995 C234.314549,176.614082 233.457472,177.094889 232.474185,177.415432 C231.490898,177.735976 230.441898,177.896245 229.327156,177.896245 C228.180864,177.896245 227.11609,177.735976 226.132803,177.415432 C225.149515,177.094889 224.295067,176.614082 223.569433,175.972995 C222.843798,175.331909 222.275919,174.530563 221.865778,173.568933 C221.455637,172.607304 221.250569,171.480165 221.250569,170.187482 L221.250569,154.628079 L223.175068,154.628079 L223.175068,170.187482 C223.175068,171.196405 223.327554,172.0792 223.632531,172.835892 C223.937508,173.592584 224.363417,174.223151 224.910272,174.727612 C225.457127,175.232074 226.106508,175.613042 226.858433,175.870527 C227.610359,176.128013 228.433258,176.256753 229.327156,176.256753 C230.221053,176.256753 231.043952,176.128013 231.795878,175.870527 C232.547804,175.613042 233.194555,175.232074 233.736152,174.727612 C234.277748,174.223151 234.701029,173.592584 235.006006,172.835892 C235.310982,172.0792 235.463469,171.196405 235.463469,170.187482 L235.463469,154.628079 L237.419517,154.628079 Z M255.629647,171.937324 C255.629647,171.306747 255.527114,170.747119 255.322043,170.258422 C255.116972,169.769725 254.769935,169.323073 254.280921,168.918453 C253.791906,168.513833 253.147784,168.143375 252.348534,167.807067 C251.549285,167.47076 250.550238,167.134457 249.351363,166.798149 C248.194555,166.472351 247.153443,166.117657 246.227996,165.734056 C245.302549,165.350456 244.516457,164.901176 243.869696,164.386205 C243.222934,163.871234 242.723411,163.27745 242.37111,162.604835 C242.018809,161.93222 241.842662,161.144011 241.842662,160.240184 C241.842662,159.357376 242.031955,158.553403 242.410547,157.82824 C242.789138,157.103077 243.320211,156.480391 244.00378,155.960166 C244.687348,155.43994 245.50236,155.035326 246.44884,154.746311 C247.39532,154.457297 248.431174,154.312792 249.556433,154.312792 C250.765824,154.312792 251.856888,154.491453 252.829659,154.84878 C253.80243,155.206106 254.630587,155.694796 255.314156,156.314863 C255.997724,156.93493 256.523539,157.660083 256.891614,158.490342 C257.25969,159.320602 257.443725,160.213905 257.443725,161.17028 L255.487676,161.17028 C255.487676,160.424097 255.356223,159.733101 255.093312,159.097269 C254.830401,158.461438 254.446556,157.912319 253.941767,157.449896 C253.436978,156.987473 252.816517,156.624897 252.080366,156.362156 C251.344215,156.099416 250.502913,155.968048 249.556433,155.968048 C248.609953,155.968048 247.776538,156.081024 247.056161,156.306981 C246.335785,156.532938 245.736357,156.837712 245.257859,157.221313 C244.779361,157.604914 244.416549,158.054193 244.169413,158.569164 C243.922276,159.084135 243.79871,159.630626 243.79871,160.208655 C243.79871,160.755155 243.901244,161.259609 244.106314,161.722032 C244.311385,162.184455 244.655793,162.612715 245.13955,163.006826 C245.623306,163.400936 246.259541,163.768767 247.048274,164.110329 C247.837007,164.451892 248.809763,164.775058 249.966572,165.079836 C251.175963,165.416144 252.253882,165.783975 253.200362,166.18334 C254.146841,166.582705 254.946079,167.053003 255.598098,167.594249 C256.250118,168.135494 256.744383,168.758179 257.080909,169.462323 C257.417435,170.166467 257.585696,170.98095 257.585696,171.905796 C257.585696,172.841151 257.388515,173.67928 256.994149,174.420208 C256.599782,175.161135 256.052936,175.789075 255.353592,176.304046 C254.654249,176.819017 253.820833,177.213122 252.853321,177.486372 C251.885808,177.759622 250.83418,177.896245 249.698404,177.896245 C249.014835,177.896245 248.328648,177.838443 247.639821,177.722837 C246.950994,177.607231 246.288468,177.431198 245.652223,177.194732 C245.015979,176.958265 244.421809,176.656119 243.869696,176.288282 C243.317582,175.920446 242.839091,175.481676 242.434208,174.97196 C242.029325,174.462243 241.708579,173.878969 241.471959,173.222118 C241.235339,172.565267 241.117031,171.832233 241.117031,171.022993 L243.057305,171.022993 C243.057305,171.989877 243.257114,172.806987 243.656739,173.474347 C244.056363,174.141708 244.571661,174.680317 245.202648,175.090192 C245.833634,175.500067 246.543483,175.796959 247.332217,175.980877 C248.12095,176.164796 248.909671,176.256753 249.698404,176.256753 C250.592302,176.256753 251.404685,176.154286 252.135577,175.949349 C252.86647,175.744411 253.492189,175.452774 254.012753,175.074428 C254.533317,174.696082 254.932935,174.241548 255.211621,173.710812 C255.490307,173.180077 255.629647,172.58892 255.629647,171.937324 Z M263.93334,177.580958 L261.993066,177.580958 L261.993066,154.628079 L263.93334,154.628079 L263.93334,177.580958 Z M287.06514,177.580958 L285.124866,177.580958 L271.92154,157.93859 L271.92154,177.580958 L269.965492,177.580958 L269.965492,154.628079 L271.92154,154.628079 L285.140641,174.286211 L285.140641,154.628079 L287.06514,154.628079 L287.06514,177.580958 Z M305.385693,166.577449 L294.643201,166.577449 L294.643201,175.941467 L306.9947,175.941467 L306.9947,177.580958 L292.702928,177.580958 L292.702928,154.628079 L306.915827,154.628079 L306.915827,156.283334 L294.643201,156.283334 L294.643201,164.937957 L305.385693,164.937957 L305.385693,166.577449 Z M323.879766,171.937324 C323.879766,171.306747 323.777232,170.747119 323.572161,170.258422 C323.367091,169.769725 323.020053,169.323073 322.531039,168.918453 C322.042024,168.513833 321.397902,168.143375 320.598652,167.807067 C319.799403,167.47076 318.800356,167.134457 317.601482,166.798149 C316.444673,166.472351 315.403561,166.117657 314.478114,165.734056 C313.552667,165.350456 312.766575,164.901176 312.119814,164.386205 C311.473053,163.871234 310.973529,163.27745 310.621228,162.604835 C310.268928,161.93222 310.09278,161.144011 310.09278,160.240184 C310.09278,159.357376 310.282073,158.553403 310.660665,157.82824 C311.039257,157.103077 311.570329,156.480391 312.253898,155.960166 C312.937466,155.43994 313.752478,155.035326 314.698958,154.746311 C315.645438,154.457297 316.681292,154.312792 317.806551,154.312792 C319.015942,154.312792 320.107006,154.491453 321.079777,154.84878 C322.052548,155.206106 322.880705,155.694796 323.564274,156.314863 C324.247843,156.93493 324.773657,157.660083 325.141732,158.490342 C325.509808,159.320602 325.693843,160.213905 325.693843,161.17028 L323.737794,161.17028 C323.737794,160.424097 323.606341,159.733101 323.34343,159.097269 C323.080519,158.461438 322.696675,157.912319 322.191885,157.449896 C321.687096,156.987473 321.066635,156.624897 320.330484,156.362156 C319.594334,156.099416 318.753031,155.968048 317.806551,155.968048 C316.860071,155.968048 316.026656,156.081024 315.30628,156.306981 C314.585903,156.532938 313.986475,156.837712 313.507977,157.221313 C313.029479,157.604914 312.666667,158.054193 312.419531,158.569164 C312.172395,159.084135 312.048828,159.630626 312.048828,160.208655 C312.048828,160.755155 312.151362,161.259609 312.356433,161.722032 C312.561503,162.184455 312.905911,162.612715 313.389668,163.006826 C313.873424,163.400936 314.509659,163.768767 315.298392,164.110329 C316.087125,164.451892 317.059882,164.775058 318.21669,165.079836 C319.426081,165.416144 320.504,165.783975 321.45048,166.18334 C322.39696,166.582705 323.196197,167.053003 323.848217,167.594249 C324.500236,168.135494 324.994501,168.758179 325.331027,169.462323 C325.667554,170.166467 325.835814,170.98095 325.835814,171.905796 C325.835814,172.841151 325.638634,173.67928 325.244267,174.420208 C324.849901,175.161135 324.303054,175.789075 323.603711,176.304046 C322.904367,176.819017 322.070952,177.213122 321.103439,177.486372 C320.135926,177.759622 319.084298,177.896245 317.948522,177.896245 C317.264954,177.896245 316.578766,177.838443 315.889939,177.722837 C315.201112,177.607231 314.538586,177.431198 313.902342,177.194732 C313.266097,176.958265 312.671927,176.656119 312.119814,176.288282 C311.567701,175.920446 311.08921,175.481676 310.684327,174.97196 C310.279444,174.462243 309.958697,173.878969 309.722077,173.222118 C309.485457,172.565267 309.367149,171.832233 309.367149,171.022993 L311.307423,171.022993 C311.307423,171.989877 311.507232,172.806987 311.906857,173.474347 C312.306482,174.141708 312.82178,174.680317 313.452766,175.090192 C314.083753,175.500067 314.793602,175.796959 315.582335,175.980877 C316.371068,176.164796 317.159789,176.256753 317.948522,176.256753 C318.84242,176.256753 319.654803,176.154286 320.385696,175.949349 C321.116588,175.744411 321.742307,175.452774 322.262871,175.074428 C322.783435,174.696082 323.183054,174.241548 323.461739,173.710812 C323.740425,173.180077 323.879766,172.58892 323.879766,171.937324 Z M342.815527,171.937324 C342.815527,171.306747 342.712993,170.747119 342.507923,170.258422 C342.302852,169.769725 341.955815,169.323073 341.4668,168.918453 C340.977786,168.513833 340.333663,168.143375 339.534414,167.807067 C338.735164,167.47076 337.736117,167.134457 336.537243,166.798149 C335.380434,166.472351 334.339322,166.117657 333.413875,165.734056 C332.488429,165.350456 331.702336,164.901176 331.055575,164.386205 C330.408814,163.871234 329.909291,163.27745 329.55699,162.604835 C329.204689,161.93222 329.028541,161.144011 329.028541,160.240184 C329.028541,159.357376 329.217834,158.553403 329.596426,157.82824 C329.975018,157.103077 330.50609,156.480391 331.189659,155.960166 C331.873228,155.43994 332.68824,155.035326 333.63472,154.746311 C334.581199,154.457297 335.617053,154.312792 336.742312,154.312792 C337.951703,154.312792 339.042768,154.491453 340.015539,154.84878 C340.988309,155.206106 341.816467,155.694796 342.500035,156.314863 C343.183604,156.93493 343.709418,157.660083 344.077494,158.490342 C344.445569,159.320602 344.629604,160.213905 344.629604,161.17028 L342.673556,161.17028 C342.673556,160.424097 342.542102,159.733101 342.279191,159.097269 C342.01628,158.461438 341.632436,157.912319 341.127647,157.449896 C340.622857,156.987473 340.002397,156.624897 339.266246,156.362156 C338.530095,156.099416 337.688792,155.968048 336.742312,155.968048 C335.795833,155.968048 334.962417,156.081024 334.242041,156.306981 C333.521665,156.532938 332.922237,156.837712 332.443739,157.221313 C331.96524,157.604914 331.602429,158.054193 331.355292,158.569164 C331.108156,159.084135 330.98459,159.630626 330.98459,160.208655 C330.98459,160.755155 331.087123,161.259609 331.292194,161.722032 C331.497265,162.184455 331.841673,162.612715 332.325429,163.006826 C332.809185,163.400936 333.445421,163.768767 334.234154,164.110329 C335.022887,164.451892 335.995643,164.775058 337.152452,165.079836 C338.361842,165.416144 339.439762,165.783975 340.386241,166.18334 C341.332721,166.582705 342.131959,167.053003 342.783978,167.594249 C343.435997,168.135494 343.930263,168.758179 344.266789,169.462323 C344.603315,170.166467 344.771575,170.98095 344.771575,171.905796 C344.771575,172.841151 344.574395,173.67928 344.180029,174.420208 C343.785662,175.161135 343.238815,175.789075 342.539472,176.304046 C341.840129,176.819017 341.006713,177.213122 340.0392,177.486372 C339.071688,177.759622 338.020059,177.896245 336.884284,177.896245 C336.200715,177.896245 335.514528,177.838443 334.825701,177.722837 C334.136874,177.607231 333.474348,177.431198 332.838103,177.194732 C332.201858,176.958265 331.607688,176.656119 331.055575,176.288282 C330.503462,175.920446 330.024971,175.481676 329.620088,174.97196 C329.215205,174.462243 328.894458,173.878969 328.657839,173.222118 C328.421219,172.565267 328.30291,171.832233 328.30291,171.022993 L330.243184,171.022993 C330.243184,171.989877 330.442994,172.806987 330.842618,173.474347 C331.242243,174.141708 331.757541,174.680317 332.388527,175.090192 C333.019514,175.500067 333.729363,175.796959 334.518096,175.980877 C335.306829,176.164796 336.095551,176.256753 336.884284,176.256753 C337.778181,176.256753 338.590564,176.154286 339.321457,175.949349 C340.05235,175.744411 340.678068,175.452774 341.198632,175.074428 C341.719196,174.696082 342.118815,174.241548 342.397501,173.710812 C342.676186,173.180077 342.815527,172.58892 342.815527,171.937324 Z M376.465723,171.149107 L366.038723,171.149107 L363.672536,177.580958 L361.637614,177.580958 L370.32941,154.628079 L372.175036,154.628079 L380.866831,177.580958 L378.847685,177.580958 L376.465723,171.149107 Z M366.638157,169.493852 L375.850514,169.493852 L371.244336,156.99273 L366.638157,169.493852 Z M401.143432,177.580958 L399.203159,177.580958 L385.999832,157.93859 L385.999832,177.580958 L384.043784,177.580958 L384.043784,154.628079 L385.999832,154.628079 L399.218933,174.286211 L399.218933,154.628079 L401.143432,154.628079 L401.143432,177.580958 Z M419.463985,171.149107 L409.036985,171.149107 L406.670798,177.580958 L404.635877,177.580958 L413.327672,154.628079 L415.173298,154.628079 L423.865094,177.580958 L421.845947,177.580958 L419.463985,171.149107 Z M409.63642,169.493852 L418.848776,169.493852 L414.242598,156.99273 L409.63642,169.493852 Z M428.998095,175.941467 L440.34002,175.941467 L440.34002,177.580958 L427.042046,177.580958 L427.042046,154.628079 L428.998095,154.628079 L428.998095,175.941467 Z M446.829635,167.144965 L453.849325,154.628079 L456.089316,154.628079 L447.791885,168.9421 L447.791885,177.580958 L445.851611,177.580958 L445.851611,168.9421 L437.569955,154.628079 L439.873044,154.628079 L446.829635,167.144965 Z M475.088175,156.283334 L467.216658,156.283334 L467.216658,177.580958 L465.276384,177.580958 L465.276384,156.283334 L457.420642,156.283334 L457.420642,154.628079 L475.088175,154.628079 L475.088175,156.283334 Z M480.962582,177.580958 L479.022308,177.580958 L479.022308,154.628079 L480.962582,154.628079 L480.962582,177.580958 Z M503.258329,170.423948 C503.132132,171.590515 502.858709,172.636205 502.438051,173.561051 C502.017393,174.485897 501.452143,175.268852 500.742283,175.909938 C500.032423,176.551024 499.180604,177.042341 498.186801,177.383904 C497.192997,177.725466 496.065126,177.896245 494.803153,177.896245 C493.499114,177.896245 492.316032,177.649273 491.253871,177.155321 C490.191711,176.661369 489.282052,175.959863 488.524868,175.050781 C487.767685,174.1417 487.184031,173.051344 486.77389,171.779681 C486.363748,170.508018 486.158681,169.099751 486.158681,167.554838 L486.158681,164.669963 C486.158681,163.12505 486.363748,161.714156 486.77389,160.437238 C487.184031,159.16032 487.770314,158.069964 488.532756,157.166138 C489.295198,156.262311 490.218002,155.560805 491.301195,155.061598 C492.384389,154.562392 493.599019,154.312792 494.945124,154.312792 C496.165031,154.312792 497.263983,154.480943 498.242012,154.817251 C499.220041,155.153558 500.058714,155.644875 500.758058,156.291217 C501.457401,156.937558 502.020022,157.725767 502.445938,158.655868 C502.871854,159.585968 503.142648,160.639541 503.258329,161.816618 L501.302281,161.816618 C501.1866,160.891772 500.976274,160.064152 500.671298,159.333734 C500.366321,158.603316 499.953557,157.99114 499.432993,157.497189 C498.912429,157.003237 498.281452,156.624897 497.540043,156.362156 C496.798634,156.099416 495.933669,155.968048 494.945124,155.968048 C493.872447,155.968048 492.915465,156.175609 492.07415,156.590739 C491.232834,157.005869 490.517727,157.591771 489.928806,158.348463 C489.339886,159.105155 488.890314,160.01685 488.580079,161.083576 C488.269844,162.150302 488.114729,163.335243 488.114729,164.638435 L488.114729,167.554838 C488.114729,168.815991 488.261957,169.979913 488.556418,171.046639 C488.850878,172.113365 489.282046,173.032942 489.849933,173.805399 C490.417821,174.577855 491.117154,175.179521 491.947953,175.610415 C492.778752,176.04131 493.730476,176.256753 494.803153,176.256753 C496.832826,176.256753 498.362945,175.770691 499.393556,174.798552 C500.424168,173.826413 501.060403,172.368226 501.302281,170.423948 L503.258329,170.423948 Z M520.774378,171.937324 C520.774378,171.306747 520.671844,170.747119 520.466774,170.258422 C520.261703,169.769725 519.914666,169.323073 519.425651,168.918453 C518.936637,168.513833 518.292514,168.143375 517.493265,167.807067 C516.694015,167.47076 515.694968,167.134457 514.496094,166.798149 C513.339285,166.472351 512.298173,166.117657 511.372726,165.734056 C510.44728,165.350456 509.661187,164.901176 509.014426,164.386205 C508.367665,163.871234 507.868142,163.27745 507.515841,162.604835 C507.16354,161.93222 506.987392,161.144011 506.987392,160.240184 C506.987392,159.357376 507.176685,158.553403 507.555277,157.82824 C507.933869,157.103077 508.464941,156.480391 509.14851,155.960166 C509.832079,155.43994 510.647091,155.035326 511.593571,154.746311 C512.54005,154.457297 513.575904,154.312792 514.701163,154.312792 C515.910554,154.312792 517.001619,154.491453 517.97439,154.84878 C518.94716,155.206106 519.775318,155.694796 520.458886,156.314863 C521.142455,156.93493 521.668269,157.660083 522.036345,158.490342 C522.40442,159.320602 522.588455,160.213905 522.588455,161.17028 L520.632407,161.17028 C520.632407,160.424097 520.500953,159.733101 520.238042,159.097269 C519.975131,158.461438 519.591287,157.912319 519.086498,157.449896 C518.581708,156.987473 517.961248,156.624897 517.225097,156.362156 C516.488946,156.099416 515.647643,155.968048 514.701163,155.968048 C513.754684,155.968048 512.921268,156.081024 512.200892,156.306981 C511.480516,156.532938 510.881088,156.837712 510.402589,157.221313 C509.924091,157.604914 509.56128,158.054193 509.314143,158.569164 C509.067007,159.084135 508.943441,159.630626 508.943441,160.208655 C508.943441,160.755155 509.045974,161.259609 509.251045,161.722032 C509.456116,162.184455 509.800524,162.612715 510.28428,163.006826 C510.768036,163.400936 511.404272,163.768767 512.193005,164.110329 C512.981738,164.451892 513.954494,164.775058 515.111303,165.079836 C516.320693,165.416144 517.398612,165.783975 518.345092,166.18334 C519.291572,166.582705 520.09081,167.053003 520.742829,167.594249 C521.394848,168.135494 521.889114,168.758179 522.22564,169.462323 C522.562166,170.166467 522.730426,170.98095 522.730426,171.905796 C522.730426,172.841151 522.533246,173.67928 522.13888,174.420208 C521.744513,175.161135 521.197666,175.789075 520.498323,176.304046 C519.798979,176.819017 518.965564,177.213122 517.998051,177.486372 C517.030539,177.759622 515.97891,177.896245 514.843135,177.896245 C514.159566,177.896245 513.473378,177.838443 512.784552,177.722837 C512.095725,177.607231 511.433199,177.431198 510.796954,177.194732 C510.160709,176.958265 509.566539,176.656119 509.014426,176.288282 C508.462313,175.920446 507.983822,175.481676 507.578939,174.97196 C507.174056,174.462243 506.853309,173.878969 506.616689,173.222118 C506.38007,172.565267 506.261761,171.832233 506.261761,171.022993 L508.202035,171.022993 C508.202035,171.989877 508.401845,172.806987 508.801469,173.474347 C509.201094,174.141708 509.716392,174.680317 510.347378,175.090192 C510.978365,175.500067 511.688214,175.796959 512.476947,175.980877 C513.26568,176.164796 514.054402,176.256753 514.843135,176.256753 C515.737032,176.256753 516.549415,176.154286 517.280308,175.949349 C518.011201,175.744411 518.636919,175.452774 519.157483,175.074428 C519.678047,174.696082 520.077666,174.241548 520.356352,173.710812 C520.635037,173.180077 520.774378,172.58892 520.774378,171.937324 Z M558.289347,170.423948 C558.163149,171.590515 557.889726,172.636205 557.469068,173.561051 C557.048411,174.485897 556.48316,175.268852 555.773301,175.909938 C555.063441,176.551024 554.211622,177.042341 553.217818,177.383904 C552.224014,177.725466 551.096143,177.896245 549.83417,177.896245 C548.530131,177.896245 547.347049,177.649273 546.284889,177.155321 C545.222728,176.661369 544.31307,175.959863 543.555886,175.050781 C542.798702,174.1417 542.215048,173.051344 541.804907,171.779681 C541.394766,170.508018 541.189698,169.099751 541.189698,167.554838 L541.189698,164.669963 C541.189698,163.12505 541.394766,161.714156 541.804907,160.437238 C542.215048,159.16032 542.801331,158.069964 543.563773,157.166138 C544.326215,156.262311 545.249019,155.560805 546.332212,155.061598 C547.415406,154.562392 548.630037,154.312792 549.976141,154.312792 C551.196048,154.312792 552.295,154.480943 553.273029,154.817251 C554.251058,155.153558 555.089732,155.644875 555.789075,156.291217 C556.488419,156.937558 557.05104,157.725767 557.476956,158.655868 C557.902871,159.585968 558.173666,160.639541 558.289347,161.816618 L556.333298,161.816618 C556.217617,160.891772 556.007292,160.064152 555.702315,159.333734 C555.397338,158.603316 554.984574,157.99114 554.46401,157.497189 C553.943446,157.003237 553.312469,156.624897 552.57106,156.362156 C551.829651,156.099416 550.964687,155.968048 549.976141,155.968048 C548.903464,155.968048 547.946482,156.175609 547.105167,156.590739 C546.263852,157.005869 545.548744,157.591771 544.959824,158.348463 C544.370903,159.105155 543.921332,160.01685 543.611097,161.083576 C543.300862,162.150302 543.145747,163.335243 543.145747,164.638435 L543.145747,167.554838 C543.145747,168.815991 543.292975,169.979913 543.587435,171.046639 C543.881895,172.113365 544.313063,173.032942 544.880951,173.805399 C545.448839,174.577855 546.148171,175.179521 546.97897,175.610415 C547.809769,176.04131 548.761493,176.256753 549.83417,176.256753 C551.863843,176.256753 553.393962,175.770691 554.424574,174.798552 C555.455185,173.826413 556.09142,172.368226 556.333298,170.423948 L558.289347,170.423948 Z M564.763187,175.941467 L576.105113,175.941467 L576.105113,177.580958 L562.807139,177.580958 L562.807139,154.628079 L564.763187,154.628079 L564.763187,175.941467 Z M594.599186,154.628079 L594.599186,170.187482 C594.599186,171.480165 594.386231,172.607304 593.960315,173.568933 C593.534399,174.530563 592.956003,175.331909 592.225111,175.972995 C591.494218,176.614082 590.637141,177.094889 589.653854,177.415432 C588.670566,177.735976 587.621567,177.896245 586.506824,177.896245 C585.360532,177.896245 584.295758,177.735976 583.312471,177.415432 C582.329184,177.094889 581.474736,176.614082 580.749101,175.972995 C580.023467,175.331909 579.455588,174.530563 579.045446,173.568933 C578.635305,172.607304 578.430238,171.480165 578.430238,170.187482 L578.430238,154.628079 L580.354737,154.628079 L580.354737,170.187482 C580.354737,171.196405 580.507223,172.0792 580.8122,172.835892 C581.117177,173.592584 581.543086,174.223151 582.089941,174.727612 C582.636796,175.232074 583.286176,175.613042 584.038102,175.870527 C584.790028,176.128013 585.612927,176.256753 586.506824,176.256753 C587.400722,176.256753 588.223621,176.128013 588.975547,175.870527 C589.727472,175.613042 590.374224,175.232074 590.91582,174.727612 C591.457417,174.223151 591.880698,173.592584 592.185674,172.835892 C592.490651,172.0792 592.643137,171.196405 592.643137,170.187482 L592.643137,154.628079 L594.599186,154.628079 Z M599.811059,177.580958 L599.811059,154.628079 L606.59413,154.628079 C607.761455,154.628079 608.807825,154.74631 609.733272,154.982776 C610.658719,155.219243 611.444811,155.581819 612.091573,156.070516 C612.738334,156.559213 613.235228,157.181898 613.582271,157.93859 C613.929313,158.695282 614.102832,159.593841 614.102832,160.634292 C614.102832,161.222831 614.021331,161.777204 613.858326,162.29743 C613.695321,162.817656 613.456076,163.293209 613.140582,163.724103 C612.825089,164.154997 612.443874,164.53071 611.996925,164.851253 C611.549976,165.171797 611.042566,165.426651 610.474678,165.615824 C611.14773,165.762958 611.757674,166.007303 612.304529,166.348866 C612.851384,166.690428 613.319359,167.105552 613.708467,167.594249 C614.097576,168.082946 614.39729,168.62681 614.607619,169.225858 C614.817947,169.824906 614.92311,170.455473 614.92311,171.117579 C614.92311,172.16854 614.746962,173.095999 614.394662,173.899985 C614.042361,174.70397 613.542837,175.379202 612.896076,175.925702 C612.249315,176.472202 611.473739,176.884698 610.569325,177.163203 C609.664911,177.441708 608.665864,177.580958 607.572154,177.580958 L599.811059,177.580958 Z M601.751333,166.54592 L601.751333,175.941467 L607.572154,175.941467 C608.41347,175.941467 609.168013,175.831117 609.835807,175.610415 C610.503601,175.389714 611.07148,175.07443 611.539462,174.664555 C612.007444,174.25468 612.364997,173.752854 612.612134,173.159061 C612.85927,172.565267 612.982836,171.89529 612.982836,171.149107 C612.982836,170.508021 612.877674,169.906355 612.667345,169.34409 C612.457016,168.781826 612.13364,168.293136 611.697208,167.878007 C611.260776,167.462877 610.713929,167.137084 610.056651,166.900618 C609.399374,166.664151 608.623798,166.54592 607.7299,166.54592 L601.751333,166.54592 Z M601.751333,164.922193 L607.051593,164.922193 C608.671125,164.890664 609.925192,164.509696 610.813831,163.779278 C611.702471,163.04886 612.146784,161.984778 612.146784,160.586999 C612.146784,159.115654 611.686696,158.030552 610.766508,157.331663 C609.846319,156.632774 608.45554,156.283334 606.59413,156.283334 L601.751333,156.283334 L601.751333,164.922193 Z" id="UNDERGRAD-BUSINESS-A" fill="#303030"></path>
                </g>
                <g id="Group" transform="translate(0.000000, 2.066157)">
                    <g id="axes" fill="#303030">
                        <path d="M56.1571799,56.0282778 L175.758752,56.0282778 L175.758752,56.0282778 C179.925307,56.0282778 183.302968,59.4059382 183.302968,63.5724936 L183.302968,63.5724936 L183.302968,63.5724936 C183.302968,67.7390489 179.925307,71.1167094 175.758752,71.1167094 L56.1571799,71.1167094 L56.1571799,56.0282778 Z" id="Rectangle" transform="translate(119.730074, 63.572494) rotate(90.000000) translate(-119.730074, -63.572494) "></path>
                        <path d="M-1.13686838e-13,112.407819 L119.601572,112.407819 L119.601572,112.407819 C123.768127,112.407819 127.145788,115.78548 127.145788,119.952035 L127.145788,119.952035 L127.145788,119.952035 C127.145788,124.11859 123.768127,127.496251 119.601572,127.496251 L-1.13686838e-13,127.496251 L-1.13686838e-13,112.407819 Z" id="Rectangle"></path>
                    </g>
                    <rect id="Rectangle" fill="#3C660B" transform="translate(91.986615, 75.218735) rotate(-90.000000) translate(-91.986615, -75.218735) " x="54.6947438" y="63.3901601" width="74.5837415" height="23.6571506"></rect>
                    <rect id="Rectangle" fill="#4D830E" transform="translate(56.415907, 86.287021) rotate(-90.000000) translate(-56.415907, -86.287021) " x="30.2159773" y="74.4584453" width="52.3998594" height="23.6571506"></rect>
                    <rect id="Rectangle" fill="#69B214" transform="translate(20.462719, 95.826194) rotate(-90.000000) translate(-20.462719, -95.826194) " x="3.82480726" y="83.9976189" width="33.2758231" height="23.6571506"></rect>
                    <path d="M91.8172048,20.9451535 L99.3687436,28.4966923 L104.00517,0.0528908826 L75.5613685,4.68931719 L83.2060302,12.3339788 L52.1420336,39.4506878 L32.640687,21.8844265 L0,51.7011916 L8.36132543,60.3404683 L32.640687,38.7993957 L52.1420336,56.3564666 L91.8172048,20.9451535 Z" id="Combined-Shape" fill="#303030"></path>
                </g>
            </g>
        </g>
    </g>
</svg>