<?xml version="1.0" encoding="UTF-8"?>
<svg width="32px" height="32px" viewBox="0 0 32 32" version="1.1" xmlns="http://www.w3.org/2000/svg" xmlns:xlink="http://www.w3.org/1999/xlink">
    <!-- Generator: Sketch 48.2 (47327) - http://www.bohemiancoding.com/sketch -->
    <title>close</title>
    <desc>Created with Sketch.</desc>
    <defs></defs>
    <g id="Page-2" stroke="none" stroke-width="1" fill="none" fill-rule="evenodd">
        <g id="close" fill="#00629C">
            <path d="M25.4077882,28.9433221 C22.7673605,30.8658088 19.5161325,32 16,32 C12.4838675,32 9.23263948,30.8658088 6.59221179,28.9433221 L16,19.5355339 L25.4077882,28.9433221 Z M28.9433221,25.4077882 L19.5355339,16 L28.9433221,6.59221179 C30.8658088,9.23263948 32,12.4838675 32,16 C32,19.5161325 30.8658088,22.7673605 28.9433221,25.4077882 Z M3.05667788,6.59221179 L12.4644661,16 L3.05667788,25.4077882 C1.13419121,22.7673605 0,19.5161325 0,16 C0,12.4838675 1.13419121,9.23263948 3.05667788,6.59221179 Z M6.59221179,3.05667788 C9.23263948,1.13419121 12.4838675,0 16,0 C19.5161325,0 22.7673605,1.13419121 25.4077882,3.05667788 L16,12.4644661 L6.59221179,3.05667788 Z" id="Combined-Shape"></path>
        </g>
    </g>
</svg>