<?xml version="1.0" encoding="UTF-8"?>
<svg width="400px" height="230px" viewBox="0 0 400 230" version="1.1" xmlns="http://www.w3.org/2000/svg" xmlns:xlink="http://www.w3.org/1999/xlink">
    <!-- Generator: Sketch 47.1 (45422) - http://www.bohemiancoding.com/sketch -->
    <title>drexelreg</title>
    <desc>Created with Sketch.</desc>
    <defs></defs>
    <g id="Page-2" stroke="none" stroke-width="1" fill="none" fill-rule="evenodd">
        <g id="drexelreg" fill="#06447A">
            <path d="M24.5093584,152.148438 L33.8452959,165 L28.2788897,165 L19.6656084,152.65625 L18.8452959,152.65625 L18.8452959,165 L14.2945147,165 L14.2945147,134.84375 L19.6265459,134.84375 C23.6109408,134.84375 26.4885162,135.59244 28.2593584,137.089844 C30.2124932,138.756519 31.1890459,140.957018 31.1890459,143.691406 C31.1890459,145.826834 30.5770729,147.662753 29.3531084,149.199219 C28.129144,150.735685 26.5145768,151.718748 24.5093584,152.148438 Z M18.8452959,148.691406 L20.2906084,148.691406 C24.6005258,148.691406 26.7554522,147.044287 26.7554522,143.75 C26.7554522,140.664047 24.659119,139.121094 20.4663897,139.121094 L18.8452959,139.121094 L18.8452959,148.691406 Z M53.7571651,156.523438 L40.1243526,156.523438 C40.2415406,158.085945 40.7493481,159.329422 41.6477901,160.253906 C42.5462321,161.165369 43.6985643,161.621094 45.1048213,161.621094 C46.1985768,161.621094 47.1035156,161.36068 47.8196651,160.839844 C48.5227936,160.319008 49.3235668,159.355476 50.2220088,157.949219 L53.9329463,160.019531 C53.3600268,160.996099 52.7545641,161.832679 52.1165401,162.529297 C51.478516,163.225915 50.7949291,163.798826 50.0657588,164.248047 C49.3365885,164.697268 48.548836,165.026041 47.7024776,165.234375 C46.8561192,165.442709 45.9381596,165.546875 44.9485713,165.546875 C42.1100155,165.546875 39.8313924,164.635426 38.1126338,162.8125 C36.3938752,160.976553 35.5345088,158.541682 35.5345088,155.507812 C35.5345088,152.499985 36.3678338,150.065113 38.0345088,148.203125 C39.7142047,146.367178 41.9407449,145.449219 44.7141963,145.449219 C47.5136895,145.449219 49.727209,146.341137 51.3548213,148.125 C52.9694127,149.895842 53.7766963,152.350245 53.7766963,155.488281 L53.7571651,156.523438 Z M49.2454463,152.929688 C48.6334641,150.585926 47.1556143,149.414062 44.8118526,149.414062 C44.2779957,149.414062 43.7766987,149.495442 43.3079463,149.658203 C42.839194,149.820964 42.4127659,150.055337 42.0286494,150.361328 C41.6445329,150.667319 41.3157602,151.035154 41.0423213,151.464844 C40.7688824,151.894533 40.5605512,152.38281 40.4173213,152.929688 L49.2454463,152.929688 Z M76.5010654,164.550781 C76.5010654,165.449223 76.4717689,166.240231 76.4131748,166.923828 C76.3545808,167.607425 76.2732014,168.209633 76.1690342,168.730469 C75.8565326,170.162768 75.2445596,171.393224 74.3330967,172.421875 C72.6143381,174.401052 70.2510805,175.390625 67.2432529,175.390625 C64.7041778,175.390625 62.6143549,174.707038 60.9737217,173.339844 C59.2810049,171.933587 58.3044522,169.986992 58.0440342,167.5 L62.4580967,167.5 C62.6273684,168.437505 62.9073135,169.160154 63.2979404,169.667969 C64.2094033,170.852871 65.5375151,171.445312 67.2823154,171.445312 C70.4984774,171.445312 72.1065342,169.472676 72.1065342,165.527344 L72.1065342,162.871094 C70.3617338,164.654957 68.3500352,165.546875 66.0713779,165.546875 C63.4802192,165.546875 61.3578445,164.609384 59.7041904,162.734375 C58.0375154,160.833324 57.2041904,158.457046 57.2041904,155.605469 C57.2041904,152.832017 57.9789223,150.47527 59.5284092,148.535156 C61.1950842,146.477854 63.395583,145.449219 66.1299717,145.449219 C68.525817,145.449219 70.5179846,146.341137 72.1065342,148.125 L72.1065342,145.976562 L76.5010654,145.976562 L76.5010654,164.550781 Z M72.2823154,155.527344 C72.2823154,153.678376 71.7875287,152.200526 70.7979404,151.09375 C69.7953313,149.960932 68.512792,149.394531 66.9502842,149.394531 C65.2836092,149.394531 63.9685182,150.013015 63.0049717,151.25 C62.1325715,152.356776 61.6963779,153.789054 61.6963779,155.546875 C61.6963779,157.278654 62.1325715,158.697911 63.0049717,159.804688 C63.9554973,161.015631 65.2705883,161.621094 66.9502842,161.621094 C68.6299801,161.621094 69.9580918,161.009121 70.9346592,159.785156 C71.8331012,158.67838 72.2823154,157.259123 72.2823154,155.527344 Z M85.9832471,145.976562 L85.9832471,165 L81.5887158,165 L81.5887158,145.976562 L85.9832471,145.976562 Z M80.9246533,138.066406 C80.9246533,137.298173 81.2045985,136.634117 81.7644971,136.074219 C82.3243957,135.51432 82.9949619,135.234375 83.7762158,135.234375 C84.5704906,135.234375 85.2475672,135.51432 85.8074658,136.074219 C86.3673645,136.621096 86.6473096,137.291663 86.6473096,138.085938 C86.6473096,138.880212 86.3673645,139.557289 85.8074658,140.117188 C85.2605881,140.677086 84.5900219,140.957031 83.7957471,140.957031 C83.0014723,140.957031 82.3243957,140.677086 81.7644971,140.117188 C81.2045985,139.557289 80.9246533,138.873702 80.9246533,138.066406 Z M102.145116,149.21875 L98.5123037,151.152344 C97.9393842,149.980463 97.2297559,149.394531 96.3833975,149.394531 C95.9797496,149.394531 95.634701,149.527993 95.3482412,149.794922 C95.0617815,150.06185 94.9185537,150.403644 94.9185537,150.820312 C94.9185537,151.549483 95.7648994,152.272132 97.4576162,152.988281 C99.788357,153.99089 101.357352,154.91536 102.164647,155.761719 C102.971943,156.608077 103.375585,157.747389 103.375585,159.179688 C103.375585,161.015634 102.698508,162.552077 101.344335,163.789062 C100.029224,164.960943 98.4406985,165.546875 96.57871,165.546875 C93.3885899,165.546875 91.1294979,163.990901 89.8013662,160.878906 L93.5513662,159.140625 C94.0722022,160.052088 94.4693336,160.631509 94.7427725,160.878906 C95.2766293,161.3737 95.9146438,161.621094 96.656835,161.621094 C98.1412174,161.621094 98.8833975,160.944017 98.8833975,159.589844 C98.8833975,158.80859 98.3104865,158.07943 97.1646475,157.402344 C96.7219369,157.180988 96.279233,156.966147 95.8365225,156.757812 C95.3938119,156.549478 94.9445977,156.334637 94.4888662,156.113281 C93.2128182,155.488278 92.3143897,154.863284 91.7935537,154.238281 C91.1294879,153.444006 90.79746,152.421881 90.79746,151.171875 C90.79746,149.518221 91.3638606,148.151047 92.4966787,147.070312 C93.6555387,145.989578 95.0617746,145.449219 96.7154287,145.449219 C99.1503367,145.449219 100.960214,146.705717 102.145116,149.21875 Z M111.392923,150.078125 L111.392923,165 L106.998392,165 L106.998392,150.078125 L105.123392,150.078125 L105.123392,145.976562 L106.998392,145.976562 L106.998392,139.003906 L111.392923,139.003906 L111.392923,145.976562 L114.810892,145.976562 L114.810892,150.078125 L111.392923,150.078125 Z M117.339948,145.976562 L121.73448,145.976562 L121.73448,147.675781 C122.541775,146.829423 123.257914,146.250002 123.882917,145.9375 C124.520941,145.611978 125.276142,145.449219 126.148542,145.449219 C127.307402,145.449219 128.518327,145.826819 129.781355,146.582031 L127.769636,150.605469 C126.936298,150.006507 126.122504,149.707031 125.32823,149.707031 C122.932384,149.707031 121.73448,151.516909 121.73448,155.136719 L121.73448,165 L117.339948,165 L117.339948,145.976562 Z M145.591661,145.976562 L150.005724,145.976562 L150.005724,165 L145.591661,165 L145.591661,163.007812 C143.781756,164.700529 141.835161,165.546875 139.751817,165.546875 C137.121596,165.546875 134.947138,164.596364 133.22838,162.695312 C131.522642,160.755199 130.669786,158.333348 130.669786,155.429688 C130.669786,152.578111 131.522642,150.201832 133.22838,148.300781 C134.934118,146.39973 137.069513,145.449219 139.63463,145.449219 C141.848183,145.449219 143.83384,146.360668 145.591661,148.183594 L145.591661,145.976562 Z M135.161974,155.429688 C135.161974,157.252613 135.65025,158.736973 136.626817,159.882812 C137.629427,161.041672 138.892435,161.621094 140.41588,161.621094 C142.043492,161.621094 143.358583,161.061204 144.361192,159.941406 C145.363802,158.782546 145.865099,157.311207 145.865099,155.527344 C145.865099,153.743481 145.363802,152.272141 144.361192,151.113281 C143.358583,149.980463 142.056513,149.414062 140.454942,149.414062 C138.944518,149.414062 137.68151,149.986973 136.66588,151.132812 C135.663271,152.291672 135.161974,153.72395 135.161974,155.429688 Z M159.624624,150.078125 L159.624624,165 L155.230093,165 L155.230093,150.078125 L153.355093,150.078125 L153.355093,145.976562 L155.230093,145.976562 L155.230093,139.003906 L159.624624,139.003906 L159.624624,145.976562 L163.042593,145.976562 L163.042593,150.078125 L159.624624,150.078125 Z M169.966181,145.976562 L169.966181,165 L165.571649,165 L165.571649,145.976562 L169.966181,145.976562 Z M164.907587,138.066406 C164.907587,137.298173 165.187532,136.634117 165.747431,136.074219 C166.307329,135.51432 166.977896,135.234375 167.759149,135.234375 C168.553424,135.234375 169.230501,135.51432 169.790399,136.074219 C170.350298,136.621096 170.630243,137.291663 170.630243,138.085938 C170.630243,138.880212 170.350298,139.557289 169.790399,140.117188 C169.243522,140.677086 168.572955,140.957031 167.778681,140.957031 C166.984406,140.957031 166.307329,140.677086 165.747431,140.117188 C165.187532,139.557289 164.907587,138.873702 164.907587,138.066406 Z M174.174925,155.351562 C174.174925,152.604153 175.157988,150.266937 177.124144,148.339844 C179.090299,146.412751 181.486109,145.449219 184.311644,145.449219 C187.150199,145.449219 189.559029,146.419261 191.538206,148.359375 C193.491341,150.299489 194.467894,152.682278 194.467894,155.507812 C194.467894,158.359389 193.48483,160.748688 191.518675,162.675781 C189.539498,164.589853 187.111137,165.546875 184.233519,165.546875 C181.381942,165.546875 178.992643,164.570322 177.06555,162.617188 C175.138457,160.690095 174.174925,158.268244 174.174925,155.351562 Z M178.667112,155.429688 C178.667112,157.330739 179.17492,158.83463 180.19055,159.941406 C181.232222,161.061204 182.605906,161.621094 184.311644,161.621094 C186.030402,161.621094 187.404086,161.067714 188.432737,159.960938 C189.461388,158.854161 189.975706,157.376311 189.975706,155.527344 C189.975706,153.678376 189.461388,152.200526 188.432737,151.09375 C187.391065,149.973953 186.017381,149.414062 184.311644,149.414062 C182.631948,149.414062 181.271284,149.973953 180.229612,151.09375 C179.18794,152.213547 178.667112,153.658845 178.667112,155.429688 Z M198.657106,145.976562 L203.071169,145.976562 L203.071169,147.734375 C204.607635,146.21093 206.339388,145.449219 208.266481,145.449219 C210.480034,145.449219 212.205277,146.145826 213.442263,147.539062 C214.509976,148.723964 215.043825,150.657539 215.043825,153.339844 L215.043825,165 L210.629763,165 L210.629763,154.375 C210.629763,152.499991 210.369349,151.204431 209.848513,150.488281 C209.340698,149.759111 208.416228,149.394531 207.075075,149.394531 C205.616735,149.394531 204.581589,149.876297 203.969606,150.839844 C203.370645,151.790369 203.071169,153.450509 203.071169,155.820312 L203.071169,165 L198.657106,165 L198.657106,145.976562 Z M243.070688,152.148438 L252.406626,165 L246.84022,165 L238.226938,152.65625 L237.406626,152.65625 L237.406626,165 L232.855845,165 L232.855845,134.84375 L238.187876,134.84375 C242.172271,134.84375 245.049846,135.59244 246.820688,137.089844 C248.773823,138.756519 249.750376,140.957018 249.750376,143.691406 C249.750376,145.826834 249.138403,147.662753 247.914438,149.199219 C246.690474,150.735685 245.075907,151.718748 243.070688,152.148438 Z M237.406626,148.691406 L238.851938,148.691406 C243.161856,148.691406 245.316782,147.044287 245.316782,143.75 C245.316782,140.664047 243.220449,139.121094 239.02772,139.121094 L237.406626,139.121094 L237.406626,148.691406 Z M272.318495,156.523438 L258.685683,156.523438 C258.802871,158.085945 259.310678,159.329422 260.20912,160.253906 C261.107562,161.165369 262.259894,161.621094 263.666151,161.621094 C264.759907,161.621094 265.664846,161.36068 266.380995,160.839844 C267.084124,160.319008 267.884897,159.355476 268.783339,157.949219 L272.494276,160.019531 C271.921357,160.996099 271.315894,161.832679 270.67787,162.529297 C270.039846,163.225915 269.356259,163.798826 268.627089,164.248047 C267.897919,164.697268 267.110166,165.026041 266.263808,165.234375 C265.417449,165.442709 264.49949,165.546875 263.509901,165.546875 C260.671346,165.546875 258.392722,164.635426 256.673964,162.8125 C254.955205,160.976553 254.095839,158.541682 254.095839,155.507812 C254.095839,152.499985 254.929164,150.065113 256.595839,148.203125 C258.275535,146.367178 260.502075,145.449219 263.275526,145.449219 C266.07502,145.449219 268.288539,146.341137 269.916151,148.125 C271.530743,149.895842 272.338026,152.350245 272.338026,155.488281 L272.318495,156.523438 Z M267.806776,152.929688 C267.194794,150.585926 265.716944,149.414062 263.373183,149.414062 C262.839326,149.414062 262.338029,149.495442 261.869276,149.658203 C261.400524,149.820964 260.974096,150.055337 260.589979,150.361328 C260.205863,150.667319 259.87709,151.035154 259.603651,151.464844 C259.330212,151.894533 259.121881,152.38281 258.978651,152.929688 L267.806776,152.929688 Z M290.687395,132.011719 L295.101458,132.011719 L295.101458,165 L290.687395,165 L290.687395,163.007812 C288.955616,164.700529 286.996,165.546875 284.808489,165.546875 C282.20431,165.546875 280.042873,164.596364 278.324114,162.695312 C276.618377,160.755199 275.76552,158.333348 275.76552,155.429688 C275.76552,152.591132 276.618377,150.221364 278.324114,148.320312 C280.016831,146.40624 282.145716,145.449219 284.710833,145.449219 C286.937407,145.449219 288.929574,146.360668 290.687395,148.183594 L290.687395,132.011719 Z M280.257708,155.429688 C280.257708,157.252613 280.745984,158.736973 281.722552,159.882812 C282.725161,161.041672 283.988169,161.621094 285.511614,161.621094 C287.139227,161.621094 288.454318,161.061204 289.456927,159.941406 C290.459536,158.782546 290.960833,157.311207 290.960833,155.527344 C290.960833,153.743481 290.459536,152.272141 289.456927,151.113281 C288.454318,149.980463 287.152247,149.414062 285.550677,149.414062 C284.040253,149.414062 282.777244,149.986973 281.761614,151.132812 C280.759005,152.291672 280.257708,153.72395 280.257708,155.429688 Z M317.513327,156.523438 L303.880515,156.523438 C303.997703,158.085945 304.50551,159.329422 305.403952,160.253906 C306.302394,161.165369 307.454726,161.621094 308.860983,161.621094 C309.954739,161.621094 310.859678,161.36068 311.575827,160.839844 C312.278956,160.319008 313.079729,159.355476 313.978171,157.949219 L317.689108,160.019531 C317.116189,160.996099 316.510726,161.832679 315.872702,162.529297 C315.234678,163.225915 314.551091,163.798826 313.821921,164.248047 C313.092751,164.697268 312.304998,165.026041 311.45864,165.234375 C310.612281,165.442709 309.694322,165.546875 308.704733,165.546875 C305.866178,165.546875 303.587554,164.635426 301.868796,162.8125 C300.150037,160.976553 299.290671,158.541682 299.290671,155.507812 C299.290671,152.499985 300.123996,150.065113 301.790671,148.203125 C303.470367,146.367178 305.696907,145.449219 308.470358,145.449219 C311.269852,145.449219 313.483371,146.341137 315.110983,148.125 C316.725575,149.895842 317.532858,152.350245 317.532858,155.488281 L317.513327,156.523438 Z M313.001608,152.929688 C312.389626,150.585926 310.911776,149.414062 308.568015,149.414062 C308.034158,149.414062 307.532861,149.495442 307.064108,149.658203 C306.595356,149.820964 306.168928,150.055337 305.784812,150.361328 C305.400695,150.667319 305.071922,151.035154 304.798483,151.464844 C304.525045,151.894533 304.316713,152.38281 304.173483,152.929688 L313.001608,152.929688 Z M332.913478,149.21875 L329.280665,151.152344 C328.707745,149.980463 327.998117,149.394531 327.151759,149.394531 C326.748111,149.394531 326.403062,149.527993 326.116603,149.794922 C325.830143,150.06185 325.686915,150.403644 325.686915,150.820312 C325.686915,151.549483 326.533261,152.272132 328.225978,152.988281 C330.556718,153.99089 332.125713,154.91536 332.933009,155.761719 C333.740304,156.608077 334.143946,157.747389 334.143946,159.179688 C334.143946,161.015634 333.46687,162.552077 332.112696,163.789062 C330.797586,164.960943 329.20906,165.546875 327.347071,165.546875 C324.156951,165.546875 321.897859,163.990901 320.569728,160.878906 L324.319728,159.140625 C324.840563,160.052088 325.237695,160.631509 325.511134,160.878906 C326.044991,161.3737 326.683005,161.621094 327.425196,161.621094 C328.909579,161.621094 329.651759,160.944017 329.651759,159.589844 C329.651759,158.80859 329.078848,158.07943 327.933009,157.402344 C327.490298,157.180988 327.047594,156.966147 326.604884,156.757812 C326.162173,156.549478 325.712959,156.334637 325.257228,156.113281 C323.981179,155.488278 323.082751,154.863284 322.561915,154.238281 C321.897849,153.444006 321.565821,152.421881 321.565821,151.171875 C321.565821,149.518221 322.132222,148.151047 323.26504,147.070312 C324.4239,145.989578 325.830136,145.449219 327.48379,145.449219 C329.918698,145.449219 331.728576,146.705717 332.913478,149.21875 Z M342.024565,145.976562 L342.024565,165 L337.630034,165 L337.630034,145.976562 L342.024565,145.976562 Z M336.965972,138.066406 C336.965972,137.298173 337.245917,136.634117 337.805815,136.074219 C338.365714,135.51432 339.03628,135.234375 339.817534,135.234375 C340.611809,135.234375 341.288886,135.51432 341.848784,136.074219 C342.408683,136.621096 342.688628,137.291663 342.688628,138.085938 C342.688628,138.880212 342.408683,139.557289 341.848784,140.117188 C341.301906,140.677086 340.63134,140.957031 339.837065,140.957031 C339.042791,140.957031 338.365714,140.677086 337.805815,140.117188 C337.245917,139.557289 336.965972,138.873702 336.965972,138.066406 Z M365.530185,164.550781 C365.530185,165.449223 365.500888,166.240231 365.442294,166.923828 C365.3837,167.607425 365.30232,168.209633 365.198153,168.730469 C364.885652,170.162768 364.273679,171.393224 363.362216,172.421875 C361.643457,174.401052 359.2802,175.390625 356.272372,175.390625 C353.733297,175.390625 351.643474,174.707038 350.002841,173.339844 C348.310124,171.933587 347.333571,169.986992 347.073153,167.5 L351.487216,167.5 C351.656487,168.437505 351.936433,169.160154 352.32706,169.667969 C353.238522,170.852871 354.566634,171.445312 356.311435,171.445312 C359.527596,171.445312 361.135653,169.472676 361.135653,165.527344 L361.135653,162.871094 C359.390853,164.654957 357.379154,165.546875 355.100497,165.546875 C352.509338,165.546875 350.386964,164.609384 348.73331,162.734375 C347.066635,160.833324 346.23331,158.457046 346.23331,155.605469 C346.23331,152.832017 347.008041,150.47527 348.557528,148.535156 C350.224203,146.477854 352.424702,145.449219 355.159091,145.449219 C357.554936,145.449219 359.547104,146.341137 361.135653,148.125 L361.135653,145.976562 L365.530185,145.976562 L365.530185,164.550781 Z M361.311435,155.527344 C361.311435,153.678376 360.816648,152.200526 359.82706,151.09375 C358.82445,149.960932 357.541911,149.394531 355.979403,149.394531 C354.312728,149.394531 352.997637,150.013015 352.034091,151.25 C351.161691,152.356776 350.725497,153.789054 350.725497,155.546875 C350.725497,157.278654 351.161691,158.697911 352.034091,159.804688 C352.984616,161.015631 354.299707,161.621094 355.979403,161.621094 C357.659099,161.621094 358.987211,161.009121 359.963778,159.785156 C360.86222,158.67838 361.311435,157.259123 361.311435,155.527344 Z M370.617835,145.976562 L375.031897,145.976562 L375.031897,147.734375 C376.568363,146.21093 378.300117,145.449219 380.22721,145.449219 C382.440763,145.449219 384.166006,146.145826 385.402991,147.539062 C386.470705,148.723964 387.004554,150.657539 387.004554,153.339844 L387.004554,165 L382.590491,165 L382.590491,154.375 C382.590491,152.499991 382.330077,151.204431 381.809241,150.488281 C381.301426,149.759111 380.376956,149.394531 379.035804,149.394531 C377.577463,149.394531 376.542317,149.876297 375.930335,150.839844 C375.331374,151.790369 375.031897,153.450509 375.031897,155.820312 L375.031897,165 L370.617835,165 L370.617835,145.976562 Z" id="Registration-Redesig"></path>
            <path d="M15.3029092,113 L8.2539092,113 L8.2539092,73.038 L14.2429092,73.038 C15.6209092,73.038 32.1569092,71.024 32.1569092,93.337 C32.1569092,104.732 27.7579092,113 15.3029092,113 Z M16.1509092,105.898 C22.5109092,106.216 24.2599092,98.266 24.2599092,93.284 C24.2599092,88.196 22.6699092,80.14 16.1509092,80.14 L16.1509092,105.898 Z M43.7816846,113 L35.8846846,113 L35.8846846,73.038 L43.8346846,73.038 C48.8696846,73.038 57.8796846,73.568 57.8796846,84.486 C57.8796846,88.885 56.1306846,92.648 52.2086846,94.821 L59.1516846,113 L50.8306846,113 L43.8876846,94.556 L43.7816846,94.556 L43.7816846,113 Z M43.7816846,79.557 L43.7816846,90.21 L45.1596846,90.263 C48.7636846,90.263 50.1946846,87.825 50.1946846,84.539 C50.1946846,81.677 48.8166846,79.345 44.8416846,79.557 L43.7816846,79.557 Z M63.51546,73.038 L63.51546,113 L79.52146,113 L79.52146,105.58 L71.41246,105.58 L71.41246,96.57 L78.46146,96.57 L78.46146,89.15 L71.41246,89.15 L71.41246,80.458 L79.41546,80.458 L79.41546,73.038 L63.51546,73.038 Z M82.1892354,73.038 L90.6692354,92.383 L82.1892354,113 L91.0932354,113 L93.4252354,106.64 C94.1142354,104.626 94.5912354,102.665 95.1742354,100.651 L95.2802354,100.651 C95.8102354,102.665 96.2872354,104.626 97.0292354,106.64 L99.5732354,113 L108.742235,113 L99.5732354,92.383 L108.106235,73.038 L99.5732354,73.038 L97.1882354,78.603 C96.4462354,80.617 95.8102354,82.631 95.3862354,84.698 L95.2802354,84.698 C94.8562354,82.631 94.0612354,80.564 93.3722354,78.603 L91.0932354,73.038 L82.1892354,73.038 Z M112.258011,73.038 L112.258011,113 L128.264011,113 L128.264011,105.58 L120.155011,105.58 L120.155011,96.57 L127.204011,96.57 L127.204011,89.15 L120.155011,89.15 L120.155011,80.458 L128.158011,80.458 L128.158011,73.038 L112.258011,73.038 Z M132.574786,73.038 L132.574786,113 L148.739786,113 L148.739786,105.58 L140.471786,105.58 L140.471786,73.038 L132.574786,73.038 Z M164.198337,73.038 L164.198337,102.718 C164.198337,110.191 168.597337,113.636 175.964337,113.636 C187.359337,113.636 187.836337,106.428 187.836337,102.188 L187.836337,73.038 L179.939337,73.038 L179.939337,100.598 C179.886337,103.566 179.886337,106.481 176.017337,106.481 C171.724337,106.481 172.095337,101.923 172.095337,98.902 L172.095337,73.038 L164.198337,73.038 Z M192.783112,73.038 L192.783112,113 L200.680112,113 L200.680112,94.662 L200.627112,93.019 L200.256112,88.991 L200.362112,88.885 L210.114112,113 L217.587112,113 L217.587112,73.038 L209.690112,73.038 L209.690112,91.005 C209.690112,93.072 209.849112,95.139 210.326112,97.047 L210.220112,97.153 L200.362112,73.038 L192.783112,73.038 Z M222.692888,73.038 L222.692888,113 L230.589888,113 L230.589888,73.038 L222.692888,73.038 Z M233.363663,73.038 L244.917663,113 L251.383663,113 L262.460663,73.038 L254.192663,73.038 L249.369663,92.118 C248.733663,94.45 248.574663,96.729 248.150663,99.061 L248.044663,99.061 C247.567663,96.782 247.302663,94.503 246.613663,92.224 L241.843663,73.038 L233.363663,73.038 Z M265.234438,73.038 L265.234438,113 L281.240438,113 L281.240438,105.58 L273.131438,105.58 L273.131438,96.57 L280.180438,96.57 L280.180438,89.15 L273.131438,89.15 L273.131438,80.458 L281.134438,80.458 L281.134438,73.038 L265.234438,73.038 Z M293.448214,113 L285.551214,113 L285.551214,73.038 L293.501214,73.038 C298.536214,73.038 307.546214,73.568 307.546214,84.486 C307.546214,88.885 305.797214,92.648 301.875214,94.821 L308.818214,113 L300.497214,113 L293.554214,94.556 L293.448214,94.556 L293.448214,113 Z M293.448214,79.557 L293.448214,90.21 L294.826214,90.263 C298.430214,90.263 299.861214,87.825 299.861214,84.539 C299.861214,81.677 298.483214,79.345 294.508214,79.557 L293.448214,79.557 Z M329.611989,74.363 C327.438989,73.091 325.159989,72.402 322.615989,72.402 C315.831989,72.402 312.174989,77.861 312.174989,84.168 C312.174989,89.998 314.983989,92.966 319.541989,96.04 C321.767989,97.63 324.205989,98.796 324.205989,101.87 C324.205989,104.52 322.191989,106.216 319.647989,106.216 C317.315989,106.216 315.513989,105.368 313.658989,104.096 L313.658989,111.622 C315.460989,112.947 318.216989,113.636 320.442989,113.636 C327.862989,113.636 331.943989,108.283 331.943989,101.181 C331.943989,90.369 319.912989,89.998 319.912989,83.426 C319.912989,80.988 321.449989,79.504 323.887989,79.504 C326.060989,79.504 328.021989,80.67 329.611989,82.048 L329.611989,74.363 Z M336.042765,73.038 L336.042765,113 L343.939765,113 L343.939765,73.038 L336.042765,73.038 Z M347.08454,73.038 L347.08454,80.458 L353.28554,80.458 L353.28554,113 L361.18254,113 L361.18254,80.458 L367.43654,80.458 L367.43654,73.038 L347.08454,73.038 Z M367.984315,73.038 L377.577315,93.867 L377.577315,113 L385.474315,113 L385.474315,93.867 L394.802315,73.038 L385.951315,73.038 L382.400315,82.896 L381.499315,85.864 L381.393315,85.864 L380.810315,83.903 L376.676315,73.038 L367.984315,73.038 Z" id="DREXEL-UNIVERSITY"></path>
        </g>
    </g>
</svg>