<?xml version="1.0" encoding="UTF-8"?>
<svg width="400px" height="278px" viewBox="0 0 400 278" version="1.1" xmlns="http://www.w3.org/2000/svg" xmlns:xlink="http://www.w3.org/1999/xlink">
    <!-- Generator: Sketch 47.1 (45422) - http://www.bohemiancoding.com/sketch -->
    <title>efikeco</title>
    <desc>Created with Sketch.</desc>
    <defs>
        <radialGradient cx="70.2860507%" cy="50%" fx="70.2860507%" fy="50%" r="86.4361248%" id="radialGradient-1">
            <stop stop-color="#383971" offset="0%"></stop>
            <stop stop-color="#140244" offset="100%"></stop>
        </radialGradient>
        <linearGradient x1="50%" y1="0%" x2="50%" y2="100%" id="linearGradient-2">
            <stop stop-color="#2D2561" offset="0%"></stop>
            <stop stop-color="#140244" offset="100%"></stop>
        </linearGradient>
        <linearGradient x1="50%" y1="50%" x2="50%" y2="0%" id="linearGradient-3">
            <stop stop-color="#2D2561" offset="0%"></stop>
            <stop stop-color="#140244" offset="100%"></stop>
        </linearGradient>
    </defs>
    <g id="Page-2" stroke="none" stroke-width="1" fill="none" fill-rule="evenodd">
        <g id="efikeco">
            <g id="Group" transform="translate(7.000000, 61.000000)">
                <path d="M5.1890826,106.410862 C2.68057601,100.01282 0.994340657,93.2033817 0.260089691,86.112 L92.311663,86.112 L88.3355883,106.567131 L5.1890826,106.410862 Z M12.0063207,119.808018 C25.8743492,141.565002 50.2480337,156 78,156 C78.2427451,156 78.4852317,155.998896 78.7274551,155.996692 L85.7618241,119.808 L12.006309,119.808 Z M150.703091,106.684348 C153.271134,100.206988 154.995188,93.3045154 155.73991,86.112 L105.660927,86.112 L101.679977,106.592211 L150.703091,106.684348 Z M143.993691,119.808 C132.571723,137.727471 114.023257,150.680086 92.330364,154.691799 L99.1110877,119.808 L143.993691,119.808 Z M1.08246745e-14,73.008 C0.446554007,65.9522022 1.83310058,59.1510956 4.03607099,52.728 L98.8008553,52.728 L94.8588226,73.008 L7.99360578e-15,73.008 Z M156,73.008 C155.553446,65.9522022 154.166899,59.1510956 151.963929,52.728 L112.150119,52.728 L108.208086,73.008 L156,73.008 Z M9.94075062,39.6239817 C23.3633104,15.9660532 48.8133548,0 78,0 C88.5910836,0 98.6901399,2.10237414 107.90101,5.91176171 L101.348015,39.624 L9.94074024,39.624 Z M146.05926,39.624 C139.750644,28.5047441 130.785143,19.0846315 120.023548,12.2227184 L114.697278,39.624 L146.05926,39.624 Z" id="Combined-Shape" fill="url(#radialGradient-1)"></path>
                <path d="M189.5625,43.9855072 L189.5625,39.6855072 L168,39.6855072 L168,81.2521739 L189.5625,81.2521739 L189.5625,76.9521739 L172.6875,76.9521739 L172.6875,60.6869565 L189.125,60.6869565 L189.125,56.3869565 L172.6875,56.3869565 L172.6875,43.9855072 L189.5625,43.9855072 Z M217.0625,43.9855072 L217.0625,39.6855072 L198.125,39.6855072 L198.125,81.2521739 L202.8125,81.2521739 L202.8125,60.6869565 L216.625,60.6869565 L216.625,56.3869565 L202.8125,56.3869565 L202.8125,43.9855072 L217.0625,43.9855072 Z M229.875,39.6855072 L225.1875,39.6855072 L225.1875,81.2521739 L229.875,81.2521739 L229.875,39.6855072 Z M245.375,57.5086957 L245.375,39.6855072 L240.6875,39.6855072 L240.6875,81.2521739 L245.375,81.2521739 L245.375,63.3666667 L246.5625,62.1826087 L263.625,81.2521739 L270,81.2521739 L249.8125,59.0666667 L269.375,39.6855072 L263.125,39.6855072 L245.375,57.5086957 Z M297.8125,43.9855072 L297.8125,39.6855072 L276.25,39.6855072 L276.25,81.2521739 L297.8125,81.2521739 L297.8125,76.9521739 L280.9375,76.9521739 L280.9375,60.6869565 L297.375,60.6869565 L297.375,56.3869565 L280.9375,56.3869565 L280.9375,43.9855072 L297.8125,43.9855072 Z M337.9375,43.1130435 C333.75,40.184058 330.25,39 325.625,39 C313.625,39 303.8125,48.7217391 303.8125,60.6246377 C303.8125,72.2782609 313.625,82 325.375,82 C329.875,82 333.8125,80.7536232 337.9375,77.9492754 L337.9375,72.215942 C333.9375,75.9550725 330,77.6376812 325.375,77.6376812 C316.125,77.6376812 308.5,69.9724638 308.5,60.6869565 C308.5,51.2144928 316.125,43.3623188 325.3125,43.3623188 C330,43.3623188 333.875,45.0449275 337.9375,48.8463768 L337.9375,43.1130435 Z M365.375,39 C353.625,39 343.625,48.784058 343.625,60.2507246 C343.625,65.8594203 345.5,70.7826087 349,74.7086957 C353.125,79.257971 359.1875,82 365.125,82 C377.1875,82 387,72.4028986 387,60.5 C387,48.7217391 377.1875,39 365.375,39 Z M365.3125,43.3623188 C374.75,43.3623188 382.3125,51.0275362 382.3125,60.5 C382.3125,70.0347826 374.6875,77.6376812 365.1875,77.6376812 C361.0625,77.6376812 356.8125,75.8927536 353.625,72.9014493 C350.125,69.5985507 348.3125,65.3608696 348.3125,60.2507246 C348.3125,51.0275362 356,43.3623188 365.3125,43.3623188 Z" id="EFIKECO" fill="url(#linearGradient-2)"></path>
                <path d="M185.400708,93.6724638 C183.629643,90.5724638 181.105876,89 177.785131,89 C173.047534,89 169.505405,92.3246377 169.505405,96.7275362 C169.505405,100.007246 171.232193,102.163768 175.482747,104.095652 C179.600472,105.982609 179.600472,105.982609 180.707387,106.701449 C182.345622,107.734783 183.142601,109.127536 183.142601,110.969565 C183.142601,114.249275 180.486004,116.855072 177.209535,116.855072 C175.261364,116.855072 173.446023,115.956522 172.383384,114.428986 C171.807788,113.62029 171.542129,112.901449 171.187916,111.373913 L168,112.272464 C169.106915,117.169565 172.427661,120 177.076705,120 C182.345622,120 186.463346,115.956522 186.463346,110.789855 C186.463346,107.015942 184.515175,104.634783 179.777578,102.523188 C175.748407,100.726087 175.748407,100.726087 174.685768,100.007246 C173.446023,99.1536232 172.82615,98.0753623 172.82615,96.7724638 C172.82615,94.1217391 174.951428,92.1449275 177.696578,92.1449275 C179.998961,92.1449275 181.282983,92.9536232 182.788388,95.3797101 L185.400708,93.6724638 Z M206.210715,89 C197.886712,89 190.802454,96.0536232 190.802454,104.32029 C190.802454,108.363768 192.130753,111.913043 194.610243,114.743478 C197.532499,118.023188 201.82733,120 206.033608,120 C214.578994,120 221.530422,113.081159 221.530422,104.5 C221.530422,96.0086957 214.578994,89 206.210715,89 Z M206.254991,92.1449275 C212.940759,92.1449275 218.298229,97.6710145 218.298229,104.5 C218.298229,111.373913 212.896482,116.855072 206.166438,116.855072 C203.244181,116.855072 200.233372,115.597101 197.975265,113.44058 C195.495775,111.05942 194.211753,108.004348 194.211753,104.32029 C194.211753,97.6710145 199.657776,92.1449275 206.254991,92.1449275 Z M230.981962,89.6339091 L227.661216,89.6339091 L227.661216,119.600576 L239.084582,119.600576 L239.084582,116.500576 L230.981962,116.500576 L230.981962,89.6339091 Z M245.662994,89.3169545 L242.342249,89.3169545 L242.342249,108.590868 C242.342249,111.870578 242.873568,113.847389 244.290419,115.689418 C246.194314,118.250288 249.515059,119.822752 252.880082,119.822752 C256.245104,119.822752 259.477297,118.250288 261.425467,115.689418 C262.842319,113.847389 263.373638,111.82565 263.373638,108.590868 L263.373638,89.3169545 L260.052892,89.3169545 L260.052892,107.692317 C260.052892,110.792317 259.831509,112.140143 259.078807,113.443041 C257.927615,115.329998 255.359572,116.677824 252.880082,116.677824 C250.356315,116.677824 247.788272,115.329998 246.63708,113.443041 C245.884377,112.140143 245.662994,110.792317 245.662994,107.692317 L245.662994,89.3169545 Z M278.405244,92.7339091 L285.578055,92.7339091 L285.578055,89.6339091 L267.955964,89.6339091 L267.955964,92.7339091 L275.084499,92.7339091 L275.084499,119.600576 L278.405244,119.600576 L278.405244,92.7339091 Z M293.45444,89.6339091 L290.133694,89.6339091 L290.133694,119.600576 L293.45444,119.600576 L293.45444,89.6339091 Z M314.600464,89 C306.276461,89 299.192203,96.0536232 299.192203,104.32029 C299.192203,108.363768 300.520502,111.913043 302.999992,114.743478 C305.922248,118.023188 310.217079,120 314.423357,120 C322.968743,120 329.920171,113.081159 329.920171,104.5 C329.920171,96.0086957 322.968743,89 314.600464,89 Z M314.688408,92.1449275 C321.374176,92.1449275 326.731646,97.6710145 326.731646,104.5 C326.731646,111.373913 321.329899,116.855072 314.599855,116.855072 C311.677599,116.855072 308.666789,115.597101 306.408682,113.44058 C303.929192,111.05942 302.64517,108.004348 302.64517,104.32029 C302.64517,97.6710145 308.091193,92.1449275 314.688408,92.1449275 Z M336.050965,120 L339.371711,120 L339.371711,95.1948542 L359.030526,120 L362.351271,120 L362.351271,89 L359.030526,89 L359.030526,113.79205 L339.371711,89 L336.050965,89 L336.050965,120 Z M385.937361,93.6724638 C384.166297,90.5724638 381.64253,89 378.321784,89 C373.584187,89 370.042058,92.3246377 370.042058,96.7275362 C370.042058,100.007246 371.768846,102.163768 376.019401,104.095652 C380.137125,105.982609 380.137125,105.982609 381.244041,106.701449 C382.882275,107.734783 383.679254,109.127536 383.679254,110.969565 C383.679254,114.249275 381.022658,116.855072 377.746189,116.855072 C375.798018,116.855072 373.982677,115.956522 372.920038,114.428986 C372.344442,113.62029 372.078783,112.901449 371.72457,111.373913 L368.536654,112.272464 C369.643569,117.169565 372.964315,120 377.613359,120 C382.882275,120 387,115.956522 387,110.789855 C387,107.015942 385.051829,104.634783 380.314232,102.523188 C376.28506,100.726087 376.28506,100.726087 375.222422,100.007246 C373.982677,99.1536232 373.362804,98.0753623 373.362804,96.7724638 C373.362804,94.1217391 375.488081,92.1449275 378.233231,92.1449275 C380.535615,92.1449275 381.819637,92.9536232 383.325041,95.3797101 L385.937361,93.6724638 Z" id="SOLUTIONS" fill="url(#linearGradient-3)"></path>
            </g>
        </g>
    </g>
</svg>