<?xml version="1.0" encoding="UTF-8"?>
<svg width="500px" height="500px" viewBox="0 0 500 500" version="1.1" xmlns="http://www.w3.org/2000/svg" xmlns:xlink="http://www.w3.org/1999/xlink">
    <!-- Generator: Sketch 48.2 (47327) - http://www.bohemiancoding.com/sketch -->
    <title>JL</title>
    <desc>Created with Sketch.</desc>
    <defs>
        <linearGradient x1="50%" y1="0%" x2="50%" y2="100%" id="linearGradient-1">
            <stop stop-color="#009AF1" offset="0%"></stop>
            <stop stop-color="#002B49" offset="100%"></stop>
        </linearGradient>
    </defs>
    <g id="Page-1" stroke="none" stroke-width="1" fill="none" fill-rule="evenodd">
        <g id="JL" fill="url(#linearGradient-1)">
            <path d="M317,9.07946189 L317,340 L317,376 L465.972887,376 C463.792463,379.729341 461.518256,383.397062 459.153459,387 L306,387 L306,6.29617937 C309.698608,7.14257828 313.365947,8.07101133 317,9.07946189 Z M353,22.1366026 C439.689785,61.3844338 500,148.649114 500,250 C500,281.727376 494.089774,312.074345 483.310229,340 L353,340 L353,22.1366026 Z M270,0.788348733 L270,423 L306,423 L430.474857,423 C384.972974,470.455389 320.936744,500 250,500 C179.063256,500 115.027026,470.455389 69.5251525,423.00001 L194,423 L230,423 L230,0.788348733 C236.597887,0.266097625 243.267868,0 250,0 C256.732132,0 263.402113,0.266097625 270,0.788348733 Z M183,9.07946189 C186.634053,8.07101133 190.301392,7.14257828 194,6.29617937 L194,387 L40.846541,387 C38.4817443,383.397062 36.2075368,379.729341 34.0271569,376.000076 L183,376 L183,340 L183,9.07946189 Z M147,22.1366026 L147,340 L16.6897535,340 C5.91022609,312.074345 0,281.727376 0,250 C0,148.649114 60.3102146,61.3844338 147,22.1366026 Z" id="Combined-Shape"></path>
        </g>
    </g>
</svg>