<?xml version="1.0" encoding="UTF-8"?>
<svg width="400px" height="278px" viewBox="0 0 400 278" version="1.1" xmlns="http://www.w3.org/2000/svg" xmlns:xlink="http://www.w3.org/1999/xlink">
    <!-- Generator: Sketch 47.1 (45422) - http://www.bohemiancoding.com/sketch -->
    <title>miso</title>
    <desc>Created with Sketch.</desc>
    <defs>
        <linearGradient x1="50%" y1="0%" x2="50%" y2="100%" id="linearGradient-1">
            <stop stop-color="#FFC03C" offset="0%"></stop>
            <stop stop-color="#AE8126" offset="100%"></stop>
        </linearGradient>
        <linearGradient x1="50%" y1="0%" x2="50%" y2="100%" id="linearGradient-2">
            <stop stop-color="#0F60AB" offset="0%"></stop>
            <stop stop-color="#0A3B6D" offset="100%"></stop>
        </linearGradient>
        <linearGradient x1="-87.2122397%" y1="-1348.91957%" x2="-87.2122407%" y2="942.145915%" id="linearGradient-3">
            <stop stop-color="#0F60AB" offset="0%"></stop>
            <stop stop-color="#0A3B6D" offset="100%"></stop>
        </linearGradient>
        <linearGradient x1="180.514665%" y1="-1361.90782%" x2="180.514669%" y2="928.072024%" id="linearGradient-4">
            <stop stop-color="#FFC03C" offset="0%"></stop>
            <stop stop-color="#AE8126" offset="100%"></stop>
        </linearGradient>
        <linearGradient x1="182.799439%" y1="-1764.16879%" x2="182.799435%" y2="535.687936%" id="linearGradient-5">
            <stop stop-color="#FFC03C" offset="0%"></stop>
            <stop stop-color="#AE8126" offset="100%"></stop>
        </linearGradient>
        <linearGradient x1="-88.885995%" y1="-1765.84965%" x2="-88.8859928%" y2="531.463485%" id="linearGradient-6">
            <stop stop-color="#FFC03C" offset="0%"></stop>
            <stop stop-color="#AE8126" offset="100%"></stop>
        </linearGradient>
        <linearGradient x1="-88.3802508%" y1="-1360.77733%" x2="-88.3802533%" y2="932.445224%" id="linearGradient-7">
            <stop stop-color="#FFC03C" offset="0%"></stop>
            <stop stop-color="#AE8126" offset="100%"></stop>
        </linearGradient>
        <linearGradient x1="-86.6304064%" y1="-1314.71143%" x2="-86.630404%" y2="389.634067%" id="linearGradient-8">
            <stop stop-color="#0F60AB" offset="0%"></stop>
            <stop stop-color="#0A3B6D" offset="100%"></stop>
        </linearGradient>
    </defs>
    <g id="Page-2" stroke="none" stroke-width="1" fill="none" fill-rule="evenodd">
        <g id="miso">
            <g id="Group-5" transform="translate(14.000000, 49.000000)">
                <g id="Group-4">
                    <path d="M372,87.2463768 L372,0 L260.804348,0 L260.804348,140 L372,140 L372,109.565217 L372,111.594203 L260.804348,111.594203 L260.804348,85.2173913 L291.130435,85.2173913 L291.130435,29.8814229 L341.673913,29.8814229 L341.673913,85.2173913 L372,85.2173913 L372,87.2463768 Z" id="Combined-Shape" fill="url(#linearGradient-1)"></path>
                    <path d="M149.608696,110.797101 L149.608696,140 L260.804348,140 L260.804348,55 L179.934783,55 L179.934783,30 L260.804348,30 L260.804348,0 L149.608696,0 L149.608696,85.2689431 L149.608696,85.2173913 L260.804348,85.2173913 L260.804348,111.594203 L149.608696,111.594203 L149.608696,110.797101 Z" id="Combined-Shape" fill="url(#linearGradient-2)"></path>
                    <path d="M119.282609,0 L149.608696,0 L149.608696,140 L119.282609,140 L119.282609,0 Z M119.282609,85.2173913 L119.282609,111.594203 L149.608696,111.594203 L149.608696,85.2173913 L119.282609,85.2173913 Z" id="Combined-Shape" fill="url(#linearGradient-1)"></path>
                    <path d="M29.8206522,85.2173913 L0,85.2173913 L0,87.2463768 L0,0 L24.8505435,0 L59.6413043,40 L94.4320652,0 L119.282609,0 L119.282609,140 L89.4619565,140 L89.4619565,111.594203 L119.282609,111.594203 L119.282609,85.2173913 L89.4619565,85.2173913 L89.4619565,55 L59.6413043,85 L29.8206522,55 L29.8206522,85.2173913 Z M29.8206522,111.594203 L29.8206522,140 L0,140 L0,109.565217 L0,111.594203 L29.8206522,111.594203 Z" id="Combined-Shape" fill="url(#linearGradient-2)"></path>
                    <path d="M2.79818469,96.884058 L2.79818469,105.507246 L0,105.507246 L0,91.3043478 L2.33182058,91.3043478 L5.59636938,95.3623188 L8.86091819,91.3043478 L11.1927388,91.3043478 L11.1927388,105.507246 L8.39455407,105.507246 L8.39455407,96.884058 L5.59636938,99.9275362 L2.79818469,96.884058 Z M12.125467,105.507246 L12.125467,94.1449275 L20.3334754,94.1449275 L20.3334754,105.507246 L18.0949277,105.507246 L18.0949277,103.072464 L14.3640147,103.072464 L14.3640147,105.507246 L12.125467,105.507246 Z M18.0949277,100.637681 L18.0949277,96.5797101 L14.3640147,96.5797101 L14.3640147,100.637681 L18.0949277,100.637681 Z M23.5047514,98.6086957 L23.5047514,105.507246 L21.2662036,105.507246 L21.2662036,94.1449275 L23.5047514,94.1449275 L23.5047514,95.3623188 L27.2356643,99.4202899 L27.2356643,94.1449275 L29.4742121,94.1449275 L29.4742121,105.507246 L27.2356643,105.507246 L27.2356643,102.666667 L23.5047514,98.6086957 Z M30.4069403,105.507246 L30.4069403,94.1449275 L38.6149487,94.1449275 L38.6149487,105.507246 L36.376401,105.507246 L36.376401,103.072464 L32.6454881,103.072464 L32.6454881,105.507246 L30.4069403,105.507246 Z M36.376401,100.637681 L36.376401,96.5797101 L32.6454881,96.5797101 L32.6454881,100.637681 L36.376401,100.637681 Z M47.7556854,105.507246 L39.547677,105.507246 L39.547677,94.1449275 L47.7556854,94.1449275 L47.7556854,96.5797101 L41.7862247,96.5797101 L41.7862247,103.072464 L45.5171376,103.072464 L45.5171376,101.043478 L43.2785899,101.043478 L43.2785899,98.6086957 L47.7556854,98.6086957 L47.7556854,105.507246 Z M50.9269614,101.043478 L50.9269614,103.072464 L56.896422,103.072464 L56.896422,105.507246 L48.6884136,105.507246 L48.6884136,94.1449275 L56.896422,94.1449275 L56.896422,96.5797101 L50.9269614,96.5797101 L50.9269614,98.6086957 L54.6578743,98.6086957 L54.6578743,101.043478 L50.9269614,101.043478 Z M60.067698,98.6086957 L60.067698,105.507246 L57.8291503,105.507246 L57.8291503,94.1449275 L59.6946067,94.1449275 L62.3062458,97.3913043 L64.9178848,94.1449275 L66.7833413,94.1449275 L66.7833413,105.507246 L64.5447935,105.507246 L64.5447935,98.6086957 L62.3062458,101.043478 L60.067698,98.6086957 Z M69.9546173,101.043478 L69.9546173,103.072464 L75.9240779,103.072464 L75.9240779,105.507246 L67.7160695,105.507246 L67.7160695,94.1449275 L75.9240779,94.1449275 L75.9240779,96.5797101 L69.9546173,96.5797101 L69.9546173,98.6086957 L73.6855302,98.6086957 L73.6855302,101.043478 L69.9546173,101.043478 Z M79.0953539,98.6086957 L79.0953539,105.507246 L76.8568062,105.507246 L76.8568062,94.1449275 L79.0953539,94.1449275 L79.0953539,95.3623188 L82.8262668,99.4202899 L82.8262668,94.1449275 L85.0648146,94.1449275 L85.0648146,105.507246 L82.8262668,105.507246 L82.8262668,102.666667 L79.0953539,98.6086957 Z M94.2055512,94.1449275 L94.2055512,96.5797101 L91.2208209,96.5797101 L91.2208209,105.507246 L88.9822731,105.507246 L88.9822731,96.5797101 L85.9975428,96.5797101 L85.9975428,94.1449275 L94.2055512,94.1449275 Z M102.236341,91.3043478 L105.034526,91.3043478 L105.034526,105.507246 L102.236341,105.507246 L102.236341,91.3043478 Z M108.205802,98.6086957 L108.205802,105.507246 L105.967254,105.507246 L105.967254,94.1449275 L108.205802,94.1449275 L108.205802,95.3623188 L111.936715,99.4202899 L111.936715,94.1449275 L114.175263,94.1449275 L114.175263,105.507246 L111.936715,105.507246 L111.936715,102.666667 L108.205802,98.6086957 Z M117.346539,101.043478 L117.346539,105.507246 L115.107991,105.507246 L115.107991,94.1449275 L123.315999,94.1449275 L123.315999,96.5797101 L117.346539,96.5797101 L117.346539,98.6086957 L121.077452,98.6086957 L121.077452,101.043478 L117.346539,101.043478 Z M124.248728,94.1449275 L132.456736,94.1449275 L132.456736,105.507246 L124.248728,105.507246 L124.248728,94.1449275 Z M130.218188,103.072464 L130.218188,96.5797101 L126.487275,96.5797101 L126.487275,103.072464 L130.218188,103.072464 Z M139.358925,98.6086957 L139.358925,96.5797101 L135.628012,96.5797101 L135.628012,98.6086957 L139.358925,98.6086957 Z M135.628012,101.449275 L135.628012,105.507246 L133.389464,105.507246 L133.389464,94.1449275 L141.597473,94.1449275 L141.597473,101.043478 L138.612742,101.043478 L141.597473,104.289855 L141.597473,105.507246 L139.358925,105.507246 L135.628012,101.449275 Z M144.768749,98.6086957 L144.768749,105.507246 L142.530201,105.507246 L142.530201,94.1449275 L144.395657,94.1449275 L147.007296,97.3913043 L149.618935,94.1449275 L151.484392,94.1449275 L151.484392,105.507246 L149.245844,105.507246 L149.245844,98.6086957 L147.007296,101.043478 L144.768749,98.6086957 Z M152.41712,105.507246 L152.41712,94.1449275 L160.625129,94.1449275 L160.625129,105.507246 L158.386581,105.507246 L158.386581,103.072464 L154.655668,103.072464 L154.655668,105.507246 L152.41712,105.507246 Z M158.386581,100.637681 L158.386581,96.5797101 L154.655668,96.5797101 L154.655668,100.637681 L158.386581,100.637681 Z M169.765865,94.1449275 L169.765865,96.5797101 L166.781135,96.5797101 L166.781135,105.507246 L164.542587,105.507246 L164.542587,96.5797101 L161.557857,96.5797101 L161.557857,94.1449275 L169.765865,94.1449275 Z M170.698593,94.1449275 L172.937141,94.1449275 L172.937141,105.507246 L170.698593,105.507246 L170.698593,94.1449275 Z M173.869869,94.1449275 L182.077878,94.1449275 L182.077878,105.507246 L173.869869,105.507246 L173.869869,94.1449275 Z M179.83933,103.072464 L179.83933,96.5797101 L176.108417,96.5797101 L176.108417,103.072464 L179.83933,103.072464 Z M185.249154,98.6086957 L185.249154,105.507246 L183.010606,105.507246 L183.010606,94.1449275 L185.249154,94.1449275 L185.249154,95.3623188 L188.980067,99.4202899 L188.980067,94.1449275 L191.218614,94.1449275 L191.218614,105.507246 L188.980067,105.507246 L188.980067,102.666667 L185.249154,98.6086957 Z M206.71123,99.9275362 L199.249405,99.9275362 L199.249405,91.3043478 L209.509415,91.3043478 L209.509415,94.3478261 L202.047589,94.3478261 L202.047589,96.884058 L209.509415,96.884058 L209.509415,105.507246 L199.249405,105.507246 L199.249405,102.463768 L206.71123,102.463768 L206.71123,99.9275362 Z M210.442143,94.1449275 L212.680691,94.1449275 L212.680691,98.6086957 L216.411604,98.6086957 L216.411604,94.1550725 L218.650152,94.1449275 L218.650152,105.507246 L210.442143,105.507246 L210.442143,103.072464 L216.411604,103.072464 L216.411604,101.043478 L210.442143,101.043478 L210.442143,94.1449275 Z M225.552341,101.043478 L219.58288,101.043478 L219.58288,94.1449275 L227.790888,94.1449275 L227.790888,96.5797101 L221.821428,96.5797101 L221.821428,98.6086957 L227.790888,98.6086957 L227.790888,105.507246 L219.58288,105.507246 L219.58288,103.072464 L225.552341,103.072464 L225.552341,101.043478 Z M236.931625,94.1449275 L236.931625,96.5797101 L233.946895,96.5797101 L233.946895,105.507246 L231.708347,105.507246 L231.708347,96.5797101 L228.723617,96.5797101 L228.723617,94.1449275 L236.931625,94.1449275 Z M240.102901,101.043478 L240.102901,103.072464 L246.072362,103.072464 L246.072362,105.507246 L237.864353,105.507246 L237.864353,94.1449275 L246.072362,94.1449275 L246.072362,96.5797101 L240.102901,96.5797101 L240.102901,98.6086957 L243.833814,98.6086957 L243.833814,101.043478 L240.102901,101.043478 Z M249.243638,98.6086957 L249.243638,105.507246 L247.00509,105.507246 L247.00509,94.1449275 L248.870546,94.1449275 L251.482185,97.3913043 L254.093824,94.1449275 L255.959281,94.1449275 L255.959281,105.507246 L253.720733,105.507246 L253.720733,98.6086957 L251.482185,101.043478 L249.243638,98.6086957 Z M262.86147,101.043478 L256.892009,101.043478 L256.892009,94.1449275 L265.100018,94.1449275 L265.100018,96.5797101 L259.130557,96.5797101 L259.130557,98.6086957 L265.100018,98.6086957 L265.100018,105.507246 L256.892009,105.507246 L256.892009,103.072464 L262.86147,103.072464 L262.86147,101.043478 Z M273.130808,91.3043478 L283.390818,91.3043478 L283.390818,105.507246 L273.130808,105.507246 L273.130808,91.3043478 Z M280.592633,102.463768 L280.592633,94.3478261 L275.928992,94.3478261 L275.928992,102.463768 L280.592633,102.463768 Z M290.293007,98.6086957 L290.293007,96.5797101 L286.562094,96.5797101 L286.562094,98.6086957 L290.293007,98.6086957 Z M286.562094,101.449275 L286.562094,105.507246 L284.323546,105.507246 L284.323546,94.1449275 L292.531555,94.1449275 L292.531555,101.043478 L289.546824,101.043478 L292.531555,104.289855 L292.531555,105.507246 L290.293007,105.507246 L286.562094,101.449275 Z M301.672291,105.507246 L293.464283,105.507246 L293.464283,94.1449275 L301.672291,94.1449275 L301.672291,96.5797101 L295.702831,96.5797101 L295.702831,103.072464 L299.433744,103.072464 L299.433744,101.043478 L297.195196,101.043478 L297.195196,98.6086957 L301.672291,98.6086957 L301.672291,105.507246 Z M302.60502,105.507246 L302.60502,94.1449275 L310.813028,94.1449275 L310.813028,105.507246 L308.57448,105.507246 L308.57448,103.072464 L304.843567,103.072464 L304.843567,105.507246 L302.60502,105.507246 Z M308.57448,100.637681 L308.57448,96.5797101 L304.843567,96.5797101 L304.843567,100.637681 L308.57448,100.637681 Z M313.984304,98.6086957 L313.984304,105.507246 L311.745756,105.507246 L311.745756,94.1449275 L313.984304,94.1449275 L313.984304,95.3623188 L317.715217,99.4202899 L317.715217,94.1449275 L319.953765,94.1449275 L319.953765,105.507246 L317.715217,105.507246 L317.715217,102.666667 L313.984304,98.6086957 Z M320.886493,94.1449275 L323.125041,94.1449275 L323.125041,105.507246 L320.886493,105.507246 L320.886493,94.1449275 Z M328.646792,96.5797101 L324.057769,96.5797101 L324.057769,94.1449275 L332.265777,94.1449275 L332.265777,94.9565217 L327.676755,103.072464 L332.265777,103.072464 L332.265777,105.507246 L324.057769,105.507246 L324.057769,104.695652 L328.646792,96.5797101 Z M333.198506,105.507246 L333.198506,94.1449275 L341.406514,94.1449275 L341.406514,105.507246 L339.167966,105.507246 L339.167966,103.072464 L335.437053,103.072464 L335.437053,105.507246 L333.198506,105.507246 Z M339.167966,100.637681 L339.167966,96.5797101 L335.437053,96.5797101 L335.437053,100.637681 L339.167966,100.637681 Z M350.547251,94.1449275 L350.547251,96.5797101 L347.56252,96.5797101 L347.56252,105.507246 L345.323973,105.507246 L345.323973,96.5797101 L342.339242,96.5797101 L342.339242,94.1449275 L350.547251,94.1449275 Z M351.479979,94.1449275 L353.718527,94.1449275 L353.718527,105.507246 L351.479979,105.507246 L351.479979,94.1449275 Z M354.651255,94.1449275 L362.859263,94.1449275 L362.859263,105.507246 L354.651255,105.507246 L354.651255,94.1449275 Z M360.620716,103.072464 L360.620716,96.5797101 L356.889803,96.5797101 L356.889803,103.072464 L360.620716,103.072464 Z M366.030539,98.6086957 L366.030539,105.507246 L363.791992,105.507246 L363.791992,94.1449275 L366.030539,94.1449275 L366.030539,95.3623188 L369.761452,99.4202899 L369.761452,94.1449275 L372,94.1449275 L372,105.507246 L369.761452,105.507246 L369.761452,102.666667 L366.030539,98.6086957 Z" id="Management-Informati" fill="url(#linearGradient-2)"></path>
                    <rect id="Rectangle-3" fill="url(#linearGradient-3)" x="230.478261" y="83.1884058" width="30.326087" height="6.08695652"></rect>
                    <rect id="Rectangle-3" fill="url(#linearGradient-4)" x="260.804348" y="83.1884058" width="30.326087" height="6.08695652"></rect>
                    <rect id="Rectangle-3" fill="url(#linearGradient-5)" x="260.804348" y="107.536232" width="30.326087" height="6.08695652"></rect>
                    <rect id="Rectangle-3" fill="url(#linearGradient-6)" x="341.673913" y="107.536232" width="30.326087" height="6.08695652"></rect>
                    <rect id="Rectangle-3" fill="url(#linearGradient-7)" x="341.673913" y="83.1884058" width="30.326087" height="6.08695652"></rect>
                    <rect id="Rectangle-3" fill="url(#linearGradient-8)" x="230.478261" y="107.536232" width="30.326087" height="8.11594203"></rect>
                </g>
                <path d="M0,145 L20.398684,145 L26.3982969,151.25 L26.3982969,173.75 L20.398684,180 L0,180 L0,145 Z M19.1987614,172.5 L19.1987614,152.5 L7.19953551,152.5 L7.19953551,172.5 L19.1987614,172.5 Z M44.1571512,163 L44.1571512,158 L34.5577705,158 L34.5577705,163 L44.1571512,163 Z M34.5577705,170 L34.5577705,180 L28.7981421,180 L28.7981421,152 L49.9167796,152 L49.9167796,169 L42.237275,169 L49.9167796,177 L49.9167796,180 L44.1571512,180 L34.5577705,170 Z M58.0762531,169 L58.0762531,174 L73.4352622,174 L73.4352622,180 L52.3166247,180 L52.3166247,152 L73.4352622,152 L73.4352622,158 L58.0762531,158 L58.0762531,163 L67.6756338,163 L67.6756338,169 L58.0762531,169 Z M82.9146507,166 L75.8351074,154 L75.8351074,152 L81.5947358,152 L86.3944262,160.125 L91.1941165,152 L96.9537449,152 L96.9537449,154 L89.8742017,166 L96.9537449,178 L96.9537449,180 L91.1941165,180 L86.3944262,171.875 L81.5947358,180 L75.8351074,180 L75.8351074,178 L82.9146507,166 Z M105.113219,169 L105.113219,174 L120.472228,174 L120.472228,180 L99.3535901,180 L99.3535901,152 L120.472228,152 L120.472228,158 L105.113219,158 L105.113219,163 L114.712599,163 L114.712599,169 L105.113219,169 Z M128.631701,174 L143.99071,174 L143.99071,180 L122.872073,180 L122.872073,152 L128.631701,152 L128.631701,174 Z M171.852913,145 L171.852913,172.5 L183.852139,172.5 L183.852139,145 L191.051674,145 L191.051674,180 L164.653377,180 L164.653377,145 L171.852913,145 Z M199.211148,163 L199.211148,180 L193.451519,180 L193.451519,152 L199.211148,152 L199.211148,155 L208.810528,165 L208.810528,152 L214.570157,152 L214.570157,180 L208.810528,180 L208.810528,173 L199.211148,163 Z M216.970002,152 L222.72963,152 L222.72963,180 L216.970002,180 L216.970002,152 Z M225.129476,152 L230.889104,152 L235.688794,169 L240.488485,152 L246.248113,152 L246.248113,154 L238.568608,180 L232.80898,180 L225.129476,154 L225.129476,152 Z M254.407587,169 L254.407587,174 L269.766596,174 L269.766596,180 L248.647958,180 L248.647958,152 L269.766596,152 L269.766596,158 L254.407587,158 L254.407587,163 L264.006967,163 L264.006967,169 L254.407587,169 Z M287.52545,163 L287.52545,158 L277.926069,158 L277.926069,163 L287.52545,163 Z M277.926069,170 L277.926069,180 L272.166441,180 L272.166441,152 L293.285078,152 L293.285078,169 L285.605574,169 L293.285078,177 L293.285078,180 L287.52545,180 L277.926069,170 Z M311.043933,169 L295.684924,169 L295.684924,152 L316.803561,152 L316.803561,158 L301.444552,158 L301.444552,163 L316.803561,163 L316.803561,180 L295.684924,180 L295.684924,174 L311.043933,174 L311.043933,169 Z M319.203406,152 L324.963035,152 L324.963035,180 L319.203406,180 L319.203406,152 Z M348.481517,152 L348.481517,158 L340.802013,158 L340.802013,180 L335.042384,180 L335.042384,158 L327.36288,158 L327.36288,152 L348.481517,152 Z M350.881362,152 L356.640991,152 L356.640991,163 L366.240372,163 L366.240372,152.025 L372,152 L372,180 L350.881362,180 L350.881362,174 L366.240372,174 L366.240372,169 L350.881362,169 L350.881362,152 Z" id="Drexel-University" fill="url(#linearGradient-2)"></path>
            </g>
        </g>
    </g>
</svg>