<?xml version="1.0" encoding="UTF-8"?>
<svg width="400px" height="230px" viewBox="0 0 400 230" version="1.1" xmlns="http://www.w3.org/2000/svg" xmlns:xlink="http://www.w3.org/1999/xlink">
    <!-- Generator: Sketch 48.2 (47327) - http://www.bohemiancoding.com/sketch -->
    <title>pokesearch</title>
    <desc>Created with Sketch.</desc>
    <defs></defs>
    <g id="Page-2" stroke="none" stroke-width="1" fill="none" fill-rule="evenodd">
        <g id="pokesearch">
            <g id="Group-3" transform="translate(0.000000, 55.000000)">
                <g id="Group-2" transform="translate(60.500000, 60.000000) rotate(-45.000000) translate(-60.500000, -60.000000) translate(31.000000, 5.000000)">
                    <ellipse id="Oval-2" fill="#FFFFFF" cx="29.556611" cy="29.2658987" rx="29.3241763" ry="29.0357503"></ellipse>
                    <rect id="Rectangle" fill="#4A4A4A" x="25.0390244" y="55.2849741" width="8.63414634" height="20.2331606"></rect>
                    <rect id="Rectangle" fill="#4A4A4A" x="23.6" y="72.0984456" width="11.5121951" height="37.9015544"></rect>
                </g>
                <polygon id="Path-5" fill="#EF4036" points="16 42.2592406 17.4703646 30.6454973 26.2085315 19.8953293 37.8779967 16 46.8047818 16 58.6808696 20.7866263 67.8631467 33.2597446 69 42.2592406 50.4493999 46 32.5100941 46"></polygon>
                <polygon id="Path-5" fill="#FFFFFF" transform="translate(42.500000, 55.000000) scale(1, -1) translate(-42.500000, -55.000000) " points="16 68 17.4703646 56.5009117 27.036317 46.7393711 37.8779967 42 46.8047818 42 58.6808696 46.7393711 67.8631467 59.0893503 69 68 54.2012514 65.2595202 32.3861877 64.6884661"></polygon>
                <circle id="Oval-2" stroke="#4A4A4A" stroke-width="6" cx="41.5" cy="42.5" r="26.5"></circle>
                <path d="M17,42 C21.9692691,44.1110374 25.5229979,45.4172889 27.6611865,45.9187545 C33.6168724,47.3155308 38.3813438,46.9593753 42,46.9593753 C45.5078354,46.9593753 50.3582796,47.2312887 56.0621942,45.9187545 C58.2948209,45.4050022 61.9407562,44.0987507 67,42" id="Line" stroke="#4A4A4A" stroke-width="4" stroke-linecap="square"></path>
                <circle id="Oval-4" stroke="#4A4A4A" stroke-width="3" fill="#FFFFFF" cx="42" cy="47" r="7"></circle>
            </g>
            <path d="M126.425,98 C128.125009,98 129.741659,98.5083283 131.275,99.525 C132.808341,100.541672 134.041662,101.908325 134.975,103.625 C135.908338,105.341675 136.375,107.216656 136.375,109.25 C136.375,111.25001 135.908338,113.116658 134.975,114.85 C134.041662,116.583342 132.808341,117.958328 131.275,118.975 C129.741659,119.991672 128.125009,120.5 126.425,120.5 L117.725,120.5 L117.725,129.95 C117.725,130.850005 117.458336,131.58333 116.925,132.15 C116.391664,132.716669 115.691671,133 114.825,133 C113.991663,133 113.308336,132.708336 112.775,132.125 C112.241664,131.541664 111.975,130.816671 111.975,129.95 L111.975,101.05 C111.975,100.183329 112.266664,99.4583363 112.85,98.875 C113.433336,98.2916637 114.158329,98 115.025,98 L126.425,98 Z M126.425,114.8 C127.058337,114.8 127.68333,114.533336 128.3,114 C128.91667,113.466664 129.416665,112.775004 129.8,111.925 C130.183335,111.074996 130.375,110.183338 130.375,109.25 C130.375,108.316662 130.183335,107.425004 129.8,106.575 C129.416665,105.724996 128.91667,105.041669 128.3,104.525 C127.68333,104.008331 127.058337,103.75 126.425,103.75 L117.725,103.75 L117.725,114.8 L126.425,114.8 Z M166.825,119.65 C166.825,122.31668 166.225006,124.708323 165.025,126.825 C163.824994,128.941677 162.183344,130.583327 160.1,131.75 C158.016656,132.916673 155.725013,133.5 153.225,133.5 C150.691654,133.5 148.391677,132.916673 146.325,131.75 C144.258323,130.583327 142.625006,128.941677 141.425,126.825 C140.224994,124.708323 139.625,122.31668 139.625,119.65 C139.625,116.98332 140.224994,114.591677 141.425,112.475 C142.625006,110.358323 144.258323,108.708339 146.325,107.525 C148.391677,106.341661 150.691654,105.75 153.225,105.75 C155.725013,105.75 158.016656,106.341661 160.1,107.525 C162.183344,108.708339 163.824994,110.358323 165.025,112.475 C166.225006,114.591677 166.825,116.98332 166.825,119.65 Z M160.825,119.65 C160.825,118.016659 160.483337,116.55834 159.8,115.275 C159.116663,113.99166 158.200006,113.000003 157.05,112.3 C155.899994,111.599997 154.625007,111.25 153.225,111.25 C151.824993,111.25 150.550006,111.599997 149.4,112.3 C148.249994,113.000003 147.333337,113.99166 146.65,115.275 C145.966663,116.55834 145.625,118.016659 145.625,119.65 C145.625,121.283342 145.966663,122.733327 146.65,124 C147.333337,125.266673 148.249994,126.249997 149.4,126.95 C150.550006,127.650003 151.824993,128 153.225,128 C154.625007,128 155.899994,127.650003 157.05,126.95 C158.200006,126.249997 159.116663,125.266673 159.8,124 C160.483337,122.733327 160.825,121.283342 160.825,119.65 Z M194.075,127.75 C194.708337,128.41667 195.025,129.166663 195.025,130 C195.025,130.833337 194.700003,131.533331 194.05,132.1 C193.399997,132.66667 192.708337,132.95 191.975,132.95 C191.108329,132.95 190.375003,132.61667 189.775,131.95 L180.775,122.45 L178.325,124.7 L178.325,129.95 C178.325,130.816671 178.04167,131.541664 177.475,132.125 C176.908331,132.708336 176.191671,133 175.325,133 C174.458329,133 173.74167,132.708336 173.175,132.125 C172.608331,131.541664 172.325,130.816671 172.325,129.95 L172.325,99.05 C172.325,98.183329 172.608331,97.4583363 173.175,96.875 C173.74167,96.2916637 174.458329,96 175.325,96 C176.191671,96 176.908331,96.2916637 177.475,96.875 C178.04167,97.4583363 178.325,98.183329 178.325,99.05 L178.325,117.55 L189.025,107.2 C189.658337,106.566664 190.391663,106.25 191.225,106.25 C191.958337,106.25 192.616664,106.55833 193.2,107.175 C193.783336,107.79167 194.075,108.416663 194.075,109.05 C194.075,109.850004 193.675004,110.599997 192.875,111.3 L185.325,118.25 L194.075,127.75 Z M223.175,119 C223.141667,119.800004 222.825003,120.449997 222.225,120.95 C221.624997,121.450002 220.925004,121.7 220.125,121.7 L203.625,121.7 C204.025002,123.666676 204.94166,125.208328 206.375,126.325 C207.808341,127.441672 209.424991,128 211.225,128 C212.591674,128 213.65833,127.875001 214.425,127.625 C215.191671,127.374999 215.799998,127.108335 216.25,126.825 C216.700002,126.541665 217.008333,126.35 217.175,126.25 C217.775003,125.949998 218.341664,125.8 218.875,125.8 C219.575004,125.8 220.174998,126.049998 220.675,126.55 C221.175003,127.050003 221.425,127.63333 221.425,128.3 C221.425,129.200005 220.958338,130.016663 220.025,130.75 C219.091662,131.516671 217.841675,132.166664 216.275,132.7 C214.708326,133.233336 213.125008,133.5 211.525,133.5 C208.724986,133.5 206.283344,132.916673 204.2,131.75 C202.116656,130.583327 200.508339,128.97501 199.375,126.925 C198.241661,124.87499 197.675,122.566679 197.675,120 C197.675,117.133319 198.274994,114.616678 199.475,112.45 C200.675006,110.283322 202.258324,108.625006 204.225,107.475 C206.191677,106.324994 208.291656,105.75 210.525,105.75 C212.725011,105.75 214.79999,106.349994 216.75,107.55 C218.70001,108.750006 220.258328,110.366656 221.425,112.4 C222.591673,114.433344 223.175,116.633321 223.175,119 Z M210.525,111.25 C206.658314,111.25 204.375004,113.066648 203.675,116.7 L216.775,116.7 L216.775,116.35 C216.641666,114.949993 215.95834,113.750005 214.725,112.75 C213.491661,111.749995 212.091675,111.25 210.525,111.25 Z M210.575,104.55 C210.241665,104.55 209.883335,104.400002 209.5,104.1 C209.116665,103.799999 208.941667,103.400002 208.975,102.9 C208.975,102.599998 209.074999,102.283335 209.275,101.95 L212.175,96.85 C212.508335,96.249997 212.908331,95.7666685 213.375,95.4 C213.841669,95.0333315 214.358331,94.85 214.925,94.85 C215.825005,94.85 216.499998,95.083331 216.95,95.55 C217.400002,96.016669 217.608334,96.616663 217.575,97.35 C217.508333,98.1166705 217.19167,98.83333 216.625,99.5 L212.825,103.7 C212.291664,104.26667 211.541672,104.55 210.575,104.55 Z M239.925,133.5 C237.524988,133.5 235.391676,133.200003 233.525,132.6 C231.658324,131.999997 229.908342,130.98334 228.275,129.55 C227.374996,128.749996 226.925,127.866671 226.925,126.9 C226.925,126.13333 227.208331,125.458336 227.775,124.875 C228.34167,124.291664 229.024996,124 229.825,124 C230.458337,124 231.024998,124.199998 231.525,124.6 C232.85834,125.700006 234.158327,126.499998 235.425,127 C236.691673,127.500002 238.191658,127.75 239.925,127.75 C241.791676,127.75 243.399993,127.333337 244.75,126.5 C246.100007,125.666663 246.775,124.63334 246.775,123.4 C246.775,121.899992 246.10834,120.725004 244.775,119.875 C243.44166,119.024996 241.325015,118.383336 238.425,117.95 C231.124964,116.883328 227.475,113.483362 227.475,107.75 C227.475,105.64999 228.024995,103.825008 229.125,102.275 C230.225006,100.724992 231.724991,99.5416707 233.625,98.725 C235.52501,97.9083293 237.641655,97.5 239.975,97.5 C242.075011,97.5 244.049991,97.8166635 245.9,98.45 C247.750009,99.0833365 249.291661,99.9166615 250.525,100.95 C251.491672,101.71667 251.975,102.599995 251.975,103.6 C251.975,104.36667 251.69167,105.041664 251.125,105.625 C250.558331,106.208336 249.891671,106.5 249.125,106.5 C248.624998,106.5 248.175002,106.350001 247.775,106.05 C246.908329,105.349997 245.700008,104.708336 244.15,104.125 C242.599992,103.541664 241.20834,103.25 239.975,103.25 C237.87499,103.25 236.250006,103.641663 235.1,104.425 C233.949994,105.208337 233.375,106.233327 233.375,107.5 C233.375,108.93334 233.966661,110.016663 235.15,110.75 C236.333339,111.483337 238.191654,112.083331 240.725,112.55 C243.591681,113.050003 245.883325,113.691663 247.6,114.475 C249.316675,115.258337 250.608329,116.324993 251.475,117.675 C252.341671,119.025007 252.775,120.816655 252.775,123.05 C252.775,125.150011 252.183339,126.991659 251,128.575 C249.816661,130.158341 248.241677,131.374996 246.275,132.225 C244.308324,133.075004 242.191678,133.5 239.925,133.5 Z M282.025,119 C281.991667,119.800004 281.675003,120.449997 281.075,120.95 C280.474997,121.450002 279.775004,121.7 278.975,121.7 L262.475,121.7 C262.875002,123.666676 263.79166,125.208328 265.225,126.325 C266.658341,127.441672 268.274991,128 270.075,128 C271.441674,128 272.50833,127.875001 273.275,127.625 C274.041671,127.374999 274.649998,127.108335 275.1,126.825 C275.550002,126.541665 275.858333,126.35 276.025,126.25 C276.625003,125.949998 277.191664,125.8 277.725,125.8 C278.425004,125.8 279.024998,126.049998 279.525,126.55 C280.025003,127.050003 280.275,127.63333 280.275,128.3 C280.275,129.200005 279.808338,130.016663 278.875,130.75 C277.941662,131.516671 276.691675,132.166664 275.125,132.7 C273.558326,133.233336 271.975008,133.5 270.375,133.5 C267.574986,133.5 265.133344,132.916673 263.05,131.75 C260.966656,130.583327 259.358339,128.97501 258.225,126.925 C257.091661,124.87499 256.525,122.566679 256.525,120 C256.525,117.133319 257.124994,114.616678 258.325,112.45 C259.525006,110.283322 261.108324,108.625006 263.075,107.475 C265.041676,106.324994 267.141656,105.75 269.375,105.75 C271.575011,105.75 273.64999,106.349994 275.6,107.55 C277.55001,108.750006 279.108328,110.366656 280.275,112.4 C281.441673,114.433344 282.025,116.633321 282.025,119 Z M269.375,111.25 C265.508314,111.25 263.225004,113.066648 262.525,116.7 L275.625,116.7 L275.625,116.35 C275.491666,114.949993 274.80834,113.750005 273.575,112.75 C272.34166,111.749995 270.941675,111.25 269.375,111.25 Z M308.875,105.75 C309.741671,105.75 310.45833,106.033331 311.025,106.6 C311.591669,107.166669 311.875,107.899996 311.875,108.8 L311.875,129.95 C311.875,130.816671 311.591669,131.541664 311.025,132.125 C310.45833,132.708336 309.741671,133 308.875,133 C308.008329,133 307.300003,132.716669 306.75,132.15 C306.199997,131.58333 305.908334,130.866671 305.875,130 C305.041663,130.966672 303.916674,131.791663 302.5,132.475 C301.083326,133.158337 299.591675,133.5 298.025,133.5 C295.724988,133.5 293.641676,132.908339 291.775,131.725 C289.908324,130.541661 288.433339,128.900011 287.35,126.8 C286.266661,124.69999 285.725,122.31668 285.725,119.65 C285.725,116.98332 286.258328,114.591677 287.325,112.475 C288.391672,110.358323 289.849991,108.708339 291.7,107.525 C293.550009,106.341661 295.591656,105.75 297.825,105.75 C299.425008,105.75 300.924993,106.041664 302.325,106.625 C303.725007,107.208336 304.908329,107.949995 305.875,108.85 L305.875,108.8 C305.875,107.933329 306.158331,107.208336 306.725,106.625 C307.29167,106.041664 308.008329,105.75 308.875,105.75 Z M298.775,128 C300.941678,128 302.708326,127.208341 304.075,125.625 C305.441674,124.041659 306.125,122.050012 306.125,119.65 C306.125,117.249988 305.441674,115.250008 304.075,113.65 C302.708326,112.049992 300.941678,111.25 298.775,111.25 C296.641656,111.25 294.891674,112.049992 293.525,113.65 C292.158327,115.250008 291.475,117.249988 291.475,119.65 C291.475,122.050012 292.149993,124.041659 293.5,125.625 C294.850007,127.208341 296.608323,128 298.775,128 Z M332.275,105.75 C333.275005,105.75 334.116663,106.033331 334.8,106.6 C335.483337,107.166669 335.825,107.833329 335.825,108.6 C335.825,109.633339 335.558336,110.408331 335.025,110.925 C334.491664,111.441669 333.858337,111.7 333.125,111.7 C332.624998,111.7 332.058336,111.583335 331.425,111.35 C331.324999,111.316666 331.100002,111.25 330.75,111.15 C330.399998,111.049999 330.025002,111 329.625,111 C328.758329,111 327.925004,111.266664 327.125,111.8 C326.324996,112.333336 325.666669,113.141661 325.15,114.225 C324.633331,115.308339 324.375,116.599992 324.375,118.1 L324.375,129.95 C324.375,130.816671 324.091669,131.541664 323.525,132.125 C322.95833,132.708336 322.241671,133 321.375,133 C320.508329,133 319.79167,132.708336 319.225,132.125 C318.658331,131.541664 318.375,130.816671 318.375,129.95 L318.375,109.3 C318.375,108.433329 318.658331,107.708336 319.225,107.125 C319.79167,106.541664 320.508329,106.25 321.375,106.25 C322.241671,106.25 322.95833,106.541664 323.525,107.125 C324.091669,107.708336 324.375,108.433329 324.375,109.3 L324.375,109.95 C325.141671,108.583326 326.241659,107.54167 327.675,106.825 C329.10834,106.10833 330.641658,105.75 332.275,105.75 Z M350.625,105.75 C353.458348,105.75 355.741658,106.191662 357.475,107.075 C359.208342,107.958338 360.075,109.133326 360.075,110.6 C360.075,111.333337 359.858336,111.974997 359.425,112.525 C358.991665,113.075003 358.425004,113.35 357.725,113.35 C357.191664,113.35 356.758335,113.275001 356.425,113.125 C356.091665,112.974999 355.766668,112.775001 355.45,112.525 C355.133332,112.274999 354.825001,112.066667 354.525,111.9 C354.191665,111.733332 353.700003,111.583334 353.05,111.45 C352.399997,111.316666 351.875002,111.25 351.475,111.25 C348.974988,111.25 347.016674,112.024992 345.6,113.575 C344.183326,115.125008 343.475,117.149987 343.475,119.65 C343.475,122.050012 344.19166,124.041659 345.625,125.625 C347.058341,127.208341 348.891656,128 351.125,128 C352.758342,128 353.974996,127.800002 354.775,127.4 C354.975001,127.299999 355.249998,127.125001 355.6,126.875 C355.950002,126.624999 356.274999,126.433334 356.575,126.3 C356.875002,126.166666 357.241665,126.1 357.675,126.1 C358.508337,126.1 359.166664,126.366664 359.65,126.9 C360.133336,127.433336 360.375,128.116663 360.375,128.95 C360.375,129.750004 359.908338,130.499997 358.975,131.2 C358.041662,131.900003 356.808341,132.458331 355.275,132.875 C353.741659,133.291669 352.108342,133.5 350.375,133.5 C347.808321,133.5 345.55001,132.900006 343.6,131.7 C341.64999,130.499994 340.141672,128.841677 339.075,126.725 C338.008328,124.608323 337.475,122.250013 337.475,119.65 C337.475,116.949986 338.033328,114.55001 339.15,112.45 C340.266672,110.349989 341.82499,108.708339 343.825,107.525 C345.82501,106.341661 348.091654,105.75 350.625,105.75 Z M378.775,105.75 C382.075017,105.75 384.358327,106.758323 385.625,108.775 C386.891673,110.791677 387.525,113.583315 387.525,117.15 L387.525,129.95 C387.525,130.816671 387.24167,131.541664 386.675,132.125 C386.108331,132.708336 385.391671,133 384.525,133 C383.658329,133 382.941669,132.708336 382.375,132.125 C381.808331,131.541664 381.525,130.816671 381.525,129.95 L381.525,117.15 C381.525,115.316657 381.16667,113.875005 380.45,112.825 C379.73333,111.774995 378.475009,111.25 376.675,111.25 C374.808324,111.25 373.350005,111.808328 372.3,112.925 C371.249995,114.041672 370.725,115.449991 370.725,117.15 L370.725,129.95 C370.725,130.816671 370.441669,131.541664 369.875,132.125 C369.308331,132.708336 368.591671,133 367.725,133 C366.858329,133 366.14167,132.708336 365.575,132.125 C365.008331,131.541664 364.725,130.816671 364.725,129.95 L364.725,99.05 C364.725,98.183329 365.008331,97.4583363 365.575,96.875 C366.14167,96.2916637 366.858329,96 367.725,96 C368.591671,96 369.308331,96.2916637 369.875,96.875 C370.441669,97.4583363 370.725,98.183329 370.725,99.05 L370.725,110.1 C371.625005,108.899994 372.76666,107.875004 374.15,107.025 C375.53334,106.174996 377.074992,105.75 378.775,105.75 Z" id="PokéSearch" fill="#4A4A4A"></path>
        </g>
    </g>
</svg>