<?xml version="1.0" encoding="UTF-8"?>
<svg width="400px" height="230px" viewBox="0 0 400 230" version="1.1" xmlns="http://www.w3.org/2000/svg" xmlns:xlink="http://www.w3.org/1999/xlink">
    <!-- Generator: Sketch 48.2 (47327) - http://www.bohemiancoding.com/sketch -->
    <title>tweetsearch</title>
    <desc>Created with Sketch.</desc>
    <defs></defs>
    <g id="Page-2" stroke="none" stroke-width="1" fill="none" fill-rule="evenodd">
        <g id="tweetsearch" fill="#1DA1F2">
            <path d="M114.611328,98.453125 L114.611328,106.314453 L110.509766,106.314453 L110.143555,102.237305 L102.257812,102.237305 L102.257812,130.240234 L106.237305,130.923828 L106.237305,134 L93.46875,134 L93.46875,130.923828 L97.4482422,130.240234 L97.4482422,102.237305 L89.5380859,102.237305 L89.1962891,106.314453 L85.0703125,106.314453 L85.0703125,98.453125 L114.611328,98.453125 Z M125.670898,110.68457 L122.643555,111.22168 L126.085938,124.380859 L126.647461,127.579102 L126.793945,127.579102 L127.477539,124.380859 L132.750977,107.583984 L136.608398,107.583984 L141.90625,124.380859 L142.663086,127.945312 L142.80957,127.945312 L143.517578,124.380859 L146.764648,111.22168 L143.688477,110.68457 L143.688477,107.583984 L153.74707,107.583984 L153.74707,110.68457 L151.452148,111.026367 L144.787109,134 L140.905273,134 L135.77832,117.911133 L134.679688,113.467773 L134.533203,113.492188 L133.507812,117.911133 L128.478516,134 L124.59668,134 L117.931641,111.026367 L115.612305,110.68457 L115.612305,107.583984 L125.670898,107.583984 L125.670898,110.68457 Z M169.689453,134.512695 C166.011049,134.512695 163.08546,133.287935 160.912598,130.838379 C158.739735,128.388822 157.65332,125.210957 157.65332,121.304688 L157.65332,120.230469 C157.65332,116.470684 158.772287,113.341647 161.010254,110.843262 C163.248221,108.344877 165.89712,107.095703 168.957031,107.095703 C172.505226,107.095703 175.194815,108.169911 177.025879,110.318359 C178.856943,112.466808 179.772461,115.331362 179.772461,118.912109 L179.772461,121.915039 L162.633789,121.915039 L162.560547,122.037109 C162.609375,124.576185 163.252272,126.663566 164.489258,128.299316 C165.726243,129.935067 167.459624,130.75293 169.689453,130.75293 C171.317065,130.75293 172.745274,130.520998 173.974121,130.057129 C175.202968,129.593259 176.264969,128.954431 177.160156,128.140625 L179.040039,131.265625 C178.096024,132.177088 176.84685,132.946123 175.29248,133.572754 C173.738111,134.199385 171.870454,134.512695 169.689453,134.512695 Z M168.957031,110.879883 C167.345695,110.879883 165.970383,111.559401 164.831055,112.918457 C163.691726,114.277513 162.991863,115.982412 162.731445,118.033203 L162.780273,118.155273 L174.962891,118.155273 L174.962891,117.520508 C174.962891,115.632478 174.458338,114.053717 173.449219,112.78418 C172.440099,111.514642 170.942718,110.879883 168.957031,110.879883 Z M196.569336,134.512695 C192.890932,134.512695 189.965343,133.287935 187.79248,130.838379 C185.619618,128.388822 184.533203,125.210957 184.533203,121.304688 L184.533203,120.230469 C184.533203,116.470684 185.65217,113.341647 187.890137,110.843262 C190.128104,108.344877 192.777003,107.095703 195.836914,107.095703 C199.385109,107.095703 202.074698,108.169911 203.905762,110.318359 C205.736826,112.466808 206.652344,115.331362 206.652344,118.912109 L206.652344,121.915039 L189.513672,121.915039 L189.44043,122.037109 C189.489258,124.576185 190.132155,126.663566 191.369141,128.299316 C192.606126,129.935067 194.339507,130.75293 196.569336,130.75293 C198.196948,130.75293 199.625157,130.520998 200.854004,130.057129 C202.082851,129.593259 203.144852,128.954431 204.040039,128.140625 L205.919922,131.265625 C204.975907,132.177088 203.726733,132.946123 202.172363,133.572754 C200.617994,134.199385 198.750336,134.512695 196.569336,134.512695 Z M195.836914,110.879883 C194.225578,110.879883 192.850266,111.559401 191.710938,112.918457 C190.571609,114.277513 189.871746,115.982412 189.611328,118.033203 L189.660156,118.155273 L201.842773,118.155273 L201.842773,117.520508 C201.842773,115.632478 201.338221,114.053717 200.329102,112.78418 C199.319982,111.514642 197.822601,110.879883 195.836914,110.879883 Z M219.787109,101.211914 L219.787109,107.583984 L224.791992,107.583984 L224.791992,111.148438 L219.787109,111.148438 L219.787109,127.188477 C219.787109,128.425462 220.043454,129.296221 220.556152,129.800781 C221.06885,130.305341 221.748368,130.557617 222.594727,130.557617 C223.017906,130.557617 223.493975,130.520996 224.022949,130.447754 C224.551923,130.374511 224.995441,130.297201 225.353516,130.21582 L226.012695,133.511719 C225.556964,133.804689 224.889653,134.044758 224.010742,134.231934 C223.131832,134.419109 222.252934,134.512695 221.374023,134.512695 C219.420889,134.512695 217.866542,133.922695 216.710938,132.742676 C215.555333,131.562657 214.977539,129.711276 214.977539,127.188477 L214.977539,111.148438 L210.802734,111.148438 L210.802734,107.583984 L214.977539,107.583984 L214.977539,101.211914 L219.787109,101.211914 Z M254.992188,108.951172 L251.354492,108.951172 L250.451172,103.873047 C249.718746,103.254554 248.742194,102.741864 247.521484,102.334961 C246.300775,101.928058 244.884774,101.724609 243.273438,101.724609 C240.718086,101.724609 238.756843,102.265782 237.389648,103.348145 C236.022454,104.430507 235.338867,105.842439 235.338867,107.583984 C235.338867,109.130216 236.034661,110.420079 237.42627,111.453613 C238.817878,112.487147 241.068018,113.394527 244.176758,114.175781 C247.920266,115.10352 250.764476,116.470694 252.709473,118.277344 C254.654469,120.083993 255.626953,122.321927 255.626953,124.991211 C255.626953,127.855809 254.459159,130.158845 252.123535,131.900391 C249.787911,133.641936 246.732115,134.512695 242.956055,134.512695 C240.221666,134.512695 237.792491,134.065109 235.668457,133.169922 C233.544423,132.274735 231.815111,131.102872 230.480469,129.654297 L230.480469,123.038086 L234.09375,123.038086 L235.021484,128.140625 C235.949223,128.905603 237.055983,129.532224 238.341797,130.020508 C239.627611,130.508792 241.165681,130.75293 242.956055,130.75293 C245.381197,130.75293 247.297682,130.24024 248.705566,129.214844 C250.113451,128.189448 250.817383,126.79786 250.817383,125.040039 C250.817383,123.412427 250.207037,122.049322 248.986328,120.950684 C247.765619,119.852045 245.609065,118.928389 242.516602,118.179688 C238.756817,117.284501 235.819021,115.966155 233.703125,114.224609 C231.587229,112.483064 230.529297,110.293958 230.529297,107.657227 C230.529297,104.87401 231.709298,102.558766 234.069336,100.711426 C236.429374,98.8640858 239.497377,97.9404297 243.273438,97.9404297 C245.763684,97.9404297 248.0301,98.3676715 250.072754,99.222168 C252.115407,100.076664 253.755202,101.114252 254.992188,102.334961 L254.992188,108.951172 Z M272.204102,134.512695 C268.525698,134.512695 265.600109,133.287935 263.427246,130.838379 C261.254384,128.388822 260.167969,125.210957 260.167969,121.304688 L260.167969,120.230469 C260.167969,116.470684 261.286935,113.341647 263.524902,110.843262 C265.762869,108.344877 268.411769,107.095703 271.47168,107.095703 C275.019875,107.095703 277.709464,108.169911 279.540527,110.318359 C281.371591,112.466808 282.287109,115.331362 282.287109,118.912109 L282.287109,121.915039 L265.148438,121.915039 L265.075195,122.037109 C265.124024,124.576185 265.766921,126.663566 267.003906,128.299316 C268.240892,129.935067 269.974273,130.75293 272.204102,130.75293 C273.831714,130.75293 275.259922,130.520998 276.48877,130.057129 C277.717617,129.593259 278.779618,128.954431 279.674805,128.140625 L281.554688,131.265625 C280.610672,132.177088 279.361499,132.946123 277.807129,133.572754 C276.252759,134.199385 274.385102,134.512695 272.204102,134.512695 Z M271.47168,110.879883 C269.860344,110.879883 268.485032,111.559401 267.345703,112.918457 C266.206375,114.277513 265.506512,115.982412 265.246094,118.033203 L265.294922,118.155273 L277.477539,118.155273 L277.477539,117.520508 C277.477539,115.632478 276.972987,114.053717 275.963867,112.78418 C274.954748,111.514642 273.457367,110.879883 271.47168,110.879883 Z M304.259766,134 C304.113281,133.283851 303.999349,132.640953 303.917969,132.071289 C303.836588,131.501625 303.779623,130.931969 303.74707,130.362305 C302.819331,131.550462 301.659675,132.539221 300.268066,133.328613 C298.876458,134.118005 297.391284,134.512695 295.8125,134.512695 C293.061835,134.512695 290.970385,133.841315 289.538086,132.498535 C288.105787,131.155755 287.389648,129.263684 287.389648,126.822266 C287.389648,124.315743 288.402822,122.382982 290.429199,121.023926 C292.455577,119.66487 295.234683,118.985352 298.766602,118.985352 L303.722656,118.985352 L303.722656,115.90918 C303.722656,114.362948 303.23438,113.138188 302.257812,112.234863 C301.281245,111.331538 299.922209,110.879883 298.180664,110.879883 C296.976231,110.879883 295.91423,111.034504 294.994629,111.34375 C294.075028,111.652996 293.330406,112.076169 292.760742,112.613281 L292.248047,115.396484 L288.537109,115.396484 L288.537109,110.269531 C289.741542,109.30924 291.198234,108.540205 292.907227,107.962402 C294.616219,107.3846 296.47167,107.095703 298.473633,107.095703 C301.468439,107.095703 303.893545,107.860669 305.749023,109.390625 C307.604501,110.920581 308.532227,113.109686 308.532227,115.958008 L308.532227,128.677734 C308.532227,129.019533 308.536296,129.353188 308.544434,129.678711 C308.552572,130.004233 308.572917,130.329751 308.605469,130.655273 L310.558594,130.923828 L310.558594,134 L304.259766,134 Z M296.520508,130.484375 C298.115568,130.484375 299.572259,130.101892 300.890625,129.336914 C302.208991,128.571936 303.152992,127.652349 303.722656,126.578125 L303.722656,122.232422 L298.595703,122.232422 C296.626292,122.232422 295.067877,122.688146 293.92041,123.599609 C292.772943,124.511072 292.199219,125.617832 292.199219,126.919922 C292.199219,128.075527 292.557288,128.958493 293.273438,129.568848 C293.989587,130.179202 295.071933,130.484375 296.520508,130.484375 Z M314.5625,110.68457 L314.5625,107.583984 L322.838867,107.583984 L323.302734,111.416992 C324.051436,110.066074 324.975092,109.008142 326.07373,108.243164 C327.172369,107.478186 328.42968,107.095703 329.845703,107.095703 C330.220054,107.095703 330.606606,107.124186 331.005371,107.181152 C331.404136,107.238119 331.709309,107.299153 331.920898,107.364258 L331.286133,111.832031 L328.551758,111.685547 C327.28222,111.685547 326.21615,111.982582 325.353516,112.57666 C324.490881,113.170739 323.82357,114.004877 323.351562,115.079102 L323.351562,130.240234 L327.331055,130.923828 L327.331055,134 L314.5625,134 L314.5625,130.923828 L318.541992,130.240234 L318.541992,111.368164 L314.5625,110.68457 Z M346.642578,130.75293 C348.237638,130.75293 349.641433,130.260584 350.854004,129.275879 C352.066575,128.291173 352.672852,127.082689 352.672852,125.650391 L356.994141,125.650391 L357.042969,125.796875 C357.124349,128.075532 356.111176,130.09781 354.003418,131.86377 C351.89566,133.629729 349.442071,134.512695 346.642578,134.512695 C342.801413,134.512695 339.867686,133.259453 337.841309,130.75293 C335.814931,128.246407 334.801758,125.097024 334.801758,121.304688 L334.801758,120.279297 C334.801758,116.519512 335.819,113.382337 337.853516,110.867676 C339.888031,108.353015 342.817689,107.095703 346.642578,107.095703 C348.758474,107.095703 350.658683,107.445635 352.343262,108.145508 C354.02784,108.845381 355.423497,109.805658 356.530273,111.026367 L356.75,116.885742 L352.916992,116.885742 L351.867188,112.735352 C351.297523,112.181963 350.565109,111.734377 349.669922,111.392578 C348.774735,111.05078 347.765631,110.879883 346.642578,110.879883 C344.119779,110.879883 342.317225,111.787263 341.234863,113.602051 C340.152501,115.416839 339.611328,117.642565 339.611328,120.279297 L339.611328,121.304688 C339.611328,124.006524 340.148432,126.256664 341.222656,128.055176 C342.29688,129.853687 344.103503,130.75293 346.642578,130.75293 Z M361.071289,130.923828 L365.050781,130.240234 L365.050781,99.6982422 L361.071289,99.0146484 L361.071289,95.9140625 L369.860352,95.9140625 L369.860352,111.099609 C370.771814,109.830072 371.886712,108.845381 373.205078,108.145508 C374.523444,107.445635 375.988273,107.095703 377.599609,107.095703 C380.431655,107.095703 382.628898,107.942049 384.191406,109.634766 C385.753914,111.327482 386.535156,113.931623 386.535156,117.447266 L386.535156,130.240234 L390.514648,130.923828 L390.514648,134 L377.746094,134 L377.746094,130.923828 L381.725586,130.240234 L381.725586,117.398438 C381.725586,115.217437 381.257654,113.606125 380.321777,112.564453 C379.3859,111.522781 377.990244,111.001953 376.134766,111.001953 C374.8164,111.001953 373.616054,111.315264 372.533691,111.941895 C371.451329,112.568525 370.560225,113.41894 369.860352,114.493164 L369.860352,130.240234 L373.839844,130.923828 L373.839844,134 L361.071289,134 L361.071289,130.923828 Z" id="TweetSearch"></path>
            <path d="M28.4412,141.816319 C52.9696,141.816319 66.3856,121.494719 66.3856,103.871919 C66.3856,103.294719 66.3856,102.720119 66.3466,102.148119 C68.9565615,100.260288 71.2095242,97.9228059 73,95.2451195 C70.5660855,96.3236041 67.9841561,97.030874 65.3404,97.3433195 C68.1243344,95.6766728 70.2079211,93.0553266 71.2034,89.9671195 C68.5856095,91.5205033 65.7216799,92.6152507 62.7352,93.2041195 C58.6014152,88.8085446 52.0328703,87.7327122 46.7128281,90.5798873 C41.3927859,93.4270624 38.644315,99.4891664 40.0086,105.366919 C29.2859289,104.829368 19.295637,99.76476 12.524,91.4335195 C8.98441917,97.5269958 10.7923685,105.322354 16.6528,109.235719 C14.5305271,109.172819 12.4545264,108.600314 10.6,107.566519 C10.6,107.621119 10.6,107.678319 10.6,107.735519 C10.6017371,114.083661 15.0765539,119.551311 21.299,120.808319 C19.3356609,121.343764 17.2757095,121.422035 15.2774,121.037119 C17.0244646,126.469619 22.0310939,130.191158 27.7366,130.298319 C23.0143111,134.009643 17.1807547,136.024372 11.1746,136.018319 C10.1135493,136.016283 9.05353057,135.952039 8,135.825919 C14.0986535,139.739639 21.1947748,141.815583 28.4412,141.805919" id="Shape" fill-rule="nonzero"></path>
        </g>
    </g>
</svg>