<?xml version="1.0" encoding="UTF-8"?>
<svg width="400px" height="278px" viewBox="0 0 400 278" version="1.1" xmlns="http://www.w3.org/2000/svg" xmlns:xlink="http://www.w3.org/1999/xlink">
    <!-- Generator: Sketch 47.1 (45422) - http://www.bohemiancoding.com/sketch -->
    <title>ubac</title>
    <desc>Created with Sketch.</desc>
    <defs></defs>
    <g id="Page-2" stroke="none" stroke-width="1" fill="none" fill-rule="evenodd">
        <g id="ubac">
            <g id="Group-2" transform="translate(3.000000, 79.000000)">
                <g id="Group">
                    <rect id="Rectangle" fill="#3C660B" transform="translate(59.000000, 59.500000) rotate(-90.000000) translate(-59.000000, -59.500000) " x="35" y="52" width="48" height="15"></rect>
                    <rect id="Rectangle" fill="#4D830E" transform="translate(35.000000, 66.500000) rotate(-90.000000) translate(-35.000000, -66.500000) " x="18" y="59" width="34" height="15"></rect>
                    <rect id="Rectangle" fill="#69B214" transform="translate(13.000000, 72.500000) rotate(-90.000000) translate(-13.000000, -72.500000) " x="2" y="65" width="22" height="15"></rect>
                    <path d="M224.914777,47.6248132 C227.414502,47.9835593 229.662206,48.6412508 231.657955,49.5979073 C233.653704,50.5545638 235.3672,51.7802616 236.798494,53.2750374 C238.229789,54.7698132 239.328442,56.5435871 240.094487,58.5964126 C240.860532,60.649238 241.243549,62.9910182 241.243549,65.6218236 C241.243549,67.4952759 240.961326,69.4583854 240.396872,71.5112108 C239.832418,73.5640362 238.895035,75.5570407 237.584694,77.490284 C236.274354,79.4235274 234.560858,81.2072664 232.444155,82.8415546 C230.327452,84.4758428 227.696731,85.8111558 224.551915,86.8475336 C222.132826,87.6447474 219.451708,88.2027886 216.508483,88.5216741 C213.565257,88.8405596 210.037471,89 205.925019,89 L185,89 L185,9 L205.199296,9 C207.053931,9 208.737189,9.02989507 210.24912,9.0896861 C211.761051,9.14947713 213.152007,9.23916233 214.422029,9.35874439 C215.692051,9.47832646 216.871339,9.62780179 217.959929,9.80717489 C219.048519,9.98654798 220.076617,10.1958135 221.044253,10.4349776 C223.584297,11.1126093 225.892477,12.0393564 227.968862,13.2152466 C230.045247,14.3911369 231.80914,15.7962051 233.260594,17.4304933 C234.712047,19.0647815 235.830859,20.9182756 236.617063,22.9910314 C237.403268,25.0637871 237.796364,27.3158822 237.796364,29.7473842 C237.796364,31.7005578 237.564538,33.5739821 237.100879,35.367713 C236.63722,37.1614439 235.891345,38.8156377 234.863232,40.3303438 C233.835119,41.8450499 232.50464,43.200293 230.871755,44.3961136 C229.238869,45.5919342 227.25323,46.5884365 224.914777,47.3856502 L224.914777,47.6248132 Z M209.85602,43.6188341 C211.791292,43.6188341 213.46447,43.5291489 214.875606,43.3497758 C216.286741,43.1704027 217.556744,42.9013471 218.685652,42.5426009 C221.709514,41.5460837 223.9169,39.9915402 225.307877,37.8789238 C226.698853,35.7663073 227.394331,33.2750517 227.394331,30.4050822 C227.394331,27.4553913 226.668615,25.0438559 225.217161,23.1704036 C223.765708,21.2969513 221.487766,19.9018481 218.383268,18.9850523 C216.851178,18.5465848 215.077205,18.2376691 213.061298,18.058296 C211.04539,17.8789229 208.666654,17.7892377 205.925019,17.7892377 L194.85774,17.7892377 L194.85774,43.6188341 L209.85602,43.6188341 Z M194.85774,52.4080717 L194.85774,80.2107623 L206.771696,80.2107623 C209.593967,80.2107623 212.214608,80.081217 214.633698,79.8221226 C217.052787,79.5630281 219.108983,79.1544622 220.802345,78.5964126 C222.65698,77.9985022 224.229365,77.2311955 225.519546,76.2944694 C226.809727,75.3577432 227.847904,74.3213809 228.634108,73.1853513 C229.420312,72.0493217 229.984758,70.843554 230.327462,69.568012 C230.670167,68.29247 230.841516,66.997017 230.841516,65.6816143 C230.841516,64.1669082 230.660087,62.74191 230.297224,61.406577 C229.93436,60.0712439 229.339677,58.8754413 228.513154,57.819133 C227.686632,56.7628248 226.598058,55.8360777 225.2474,55.038864 C223.896742,54.2416502 222.213484,53.6238188 220.197576,53.1853513 C218.988031,52.9063265 217.607155,52.707026 216.054906,52.5874439 C214.502657,52.4678619 212.577494,52.4080717 210.279359,52.4080717 L194.85774,52.4080717 Z M249.552894,89 L282.512823,9 L291.040071,9 L324,89 L313.295583,89 L303.619273,64.9043348 L269.812667,64.9043348 L260.136357,89 L249.552894,89 Z M286.685731,21.4364723 C283.097415,31.4016442 279.650265,40.4498846 276.344176,48.5814649 L273.320329,56.1150972 L300.111611,56.1150972 L297.087764,48.5814649 C293.781675,40.2904419 290.395001,31.2422015 286.927639,21.4364723 L286.685731,21.4364723 Z" id="BA" fill="#69B214"></path>
                    <path d="M135.5,82.2765957 C138.436796,82.2765957 141.041655,81.9356845 143.314655,81.2538518 C145.587655,80.5720191 147.568957,79.6094462 149.258621,78.3661042 C150.948284,77.1227622 152.356316,75.6287688 153.482759,73.8840792 C154.609201,72.1393897 155.474135,70.204217 156.077586,68.0785033 C156.479887,66.7549457 156.761493,65.2810059 156.922414,63.6566398 C157.083334,62.0322736 157.163793,60.4580658 157.163793,58.9339692 L157.163793,9 L167,9 L167,58.6933236 C167,60.5783904 166.899426,62.5436435 166.698276,64.5891416 C166.497125,66.6346397 166.17529,68.5397319 165.732759,70.3044754 C164.968387,73.2724531 163.821847,76.0197966 162.293103,78.5465884 C160.76436,81.0733802 158.773001,83.2592229 156.318966,85.104182 C153.86493,86.949141 150.918121,88.3930004 147.478448,89.4358034 C144.038776,90.4786063 140.00577,91 135.37931,91 C130.954001,91 127.071856,90.5187135 123.732759,89.5561262 C120.393661,88.5935388 117.527311,87.2599743 115.133621,85.5553925 C112.739931,83.8508107 110.778743,81.8253969 109.25,79.4790902 C107.721257,77.1327836 106.534487,74.5759493 105.689655,71.8085106 C105.086204,69.8031203 104.653737,67.6573849 104.392241,65.3712399 C104.130746,63.085095 104,60.8591451 104,58.6933236 L104,9 L113.836207,9 L113.836207,58.9339692 C113.836207,60.7388205 113.966953,62.5937787 114.228448,64.4988995 C114.489944,66.4040203 114.902296,68.1386569 115.465517,69.7028613 C116.87357,73.5933185 119.216938,76.6615197 122.49569,78.9075569 C125.774442,81.153594 130.109168,82.2765957 135.5,82.2765957 Z" id="U" fill="#303030"></path>
                    <path d="M376.553191,15.7752161 C372.054689,15.7752161 367.85007,16.4913473 363.93921,17.9236311 C360.028349,19.3559149 356.63426,21.4942221 353.756839,24.3386167 C350.879418,27.1830113 348.609937,30.7132354 346.948328,34.9293948 C345.286719,39.1455542 344.455927,44.0576088 344.455927,49.6657061 C344.455927,55.2334572 345.225929,60.064821 346.765957,64.1599424 C348.305985,68.2550637 350.494413,71.6440788 353.331307,74.3270893 C356.168201,77.0100999 359.582553,78.9971117 363.574468,80.2881844 C367.566383,81.5792572 372.01416,82.2247839 376.917933,82.2247839 C378.255326,82.2247839 379.673751,82.1541794 381.173252,82.0129683 C382.672753,81.8717572 384.182363,81.6700301 385.702128,81.407781 C387.221892,81.1455318 388.701107,80.8429412 390.139818,80.5 C391.578528,80.1570588 392.865243,79.7838637 394,79.3804035 L394,88.0951009 C391.608904,89.0230594 388.832843,89.7391906 385.671733,90.2435159 C382.510622,90.7478411 379.268507,91 375.945289,91 C369.177271,91 363.179357,90.061969 357.951368,88.185879 C352.723378,86.3097889 348.336391,83.6167322 344.790274,80.1066282 C341.244157,76.5965242 338.55928,72.3098236 336.735562,67.2463977 C334.911845,62.1829718 334,56.4438361 334,50.0288184 C334,43.7348388 334.962503,37.9452714 336.887538,32.6599424 C338.812573,27.3746133 341.588634,22.8357538 345.215805,19.0432277 C348.842977,15.2507015 353.240096,12.2953996 358.407295,10.1772334 C363.574494,8.05906722 369.379907,7 375.823708,7 C377.525844,7 379.207692,7.07060448 380.869301,7.21181556 C382.53091,7.35302664 384.121573,7.55475373 385.641337,7.81700288 C387.161102,8.07925203 388.569396,8.39192902 389.866261,8.75504323 C391.163127,9.11815744 392.277604,9.5014389 393.209726,9.90489914 L393.209726,18.6195965 C390.778103,17.8126761 388.123621,17.1368903 385.246201,16.592219 C382.36878,16.0475477 379.471139,15.7752161 376.553191,15.7752161 Z" id="C" fill="#303030"></path>
                    <polyline id="Line" stroke="#303030" stroke-width="10" stroke-linejoin="round" points="0 87 79 87 79 9"></polyline>
                    <rect id="Rectangle" fill="#303030" transform="translate(45.556349, 32.556349) rotate(-45.000000) translate(-45.556349, -32.556349) " x="28.0563492" y="28.0563492" width="35" height="9"></rect>
                    <polygon id="Triangle-2" fill="#303030" transform="translate(63.503048, 14.503048) rotate(45.000000) translate(-63.503048, -14.503048) " points="63.5030483 6.50304833 74.8210678 22.5030483 52.1850288 22.5030483"></polygon>
                    <path d="M10.3599383,106.200535 L10.3599383,116.096925 C10.3599383,116.919122 10.2234917,117.636026 9.9505944,118.24766 C9.6776971,118.859295 9.30710139,119.368982 8.83879615,119.776738 C8.3704909,120.184494 7.82133544,120.490306 7.19131327,120.694184 C6.56129111,120.898063 5.88916525,121 5.17491553,121 C4.44045119,121 3.75821817,120.898063 3.12819601,120.694184 C2.49817384,120.490306 1.9507029,120.184494 1.48576676,119.776738 C1.02083062,119.368982 0.656973011,118.859295 0.394183019,118.24766 C0.131393026,117.636026 0,116.919122 0,116.096925 L0,106.200535 L1.23308534,106.200535 L1.23308534,116.096925 C1.23308534,116.73864 1.33078785,117.300131 1.52619579,117.781417 C1.72160373,118.262703 1.99449694,118.663768 2.3448836,118.984626 C2.69527025,119.305483 3.11134817,119.547793 3.59312982,119.711564 C4.07491148,119.875335 4.6021681,119.957219 5.17491553,119.957219 C5.74766295,119.957219 6.27491957,119.875335 6.75670123,119.711564 C7.23848288,119.547793 7.65287627,119.305483 7.99989382,118.984626 C8.34691138,118.663768 8.61812006,118.262703 8.813528,117.781417 C9.00893595,117.300131 9.10663845,116.73864 9.10663845,116.096925 L9.10663845,106.200535 L10.3599383,106.200535 Z M24.6556114,120.799465 L23.4124188,120.799465 L14.9526448,108.30615 L14.9526448,120.799465 L13.6993449,120.799465 L13.6993449,106.200535 L14.9526448,106.200535 L23.422526,118.703877 L23.422526,106.200535 L24.6556114,106.200535 L24.6556114,120.799465 Z M28.2679139,120.799465 L28.2679139,106.200535 L32.3815674,106.200535 C33.2979633,106.200535 34.1419108,106.357619 34.9134353,106.671791 C35.6849598,106.985964 36.348663,107.433821 36.9045649,108.015374 C37.4604668,108.596928 37.89339,109.29545 38.2033474,110.110963 C38.5133048,110.926475 38.6682812,111.835556 38.6682812,112.838235 L38.6682812,114.171791 C38.6682812,115.17447 38.5133048,116.083552 38.2033474,116.899064 C37.89339,117.714576 37.4587823,118.411428 36.8995113,118.989639 C36.3402403,119.56785 35.6697989,120.014036 34.8881672,120.328209 C34.1065354,120.642381 33.2440581,120.799465 32.3007094,120.799465 L28.2679139,120.799465 Z M29.5111065,107.253342 L29.5111065,119.756684 L32.3007094,119.756684 C33.0890794,119.756684 33.7999493,119.621325 34.4333406,119.350602 C35.0667319,119.079878 35.6057802,118.698866 36.0505017,118.207553 C36.4952232,117.716241 36.837182,117.128011 37.0763883,116.442848 C37.3155945,115.757684 37.4351959,115.000673 37.4351959,114.171791 L37.4351959,112.808155 C37.4351959,111.965905 37.31391,111.202209 37.0713346,110.517045 C36.8287593,109.831882 36.4868005,109.248666 36.0454481,108.76738 C35.6040956,108.286094 35.07347,107.913437 34.4535551,107.649398 C33.8336402,107.38536 33.1429846,107.253342 32.3815674,107.253342 L29.5111065,107.253342 Z M49.8205974,113.800802 L42.9375555,113.800802 L42.9375555,119.756684 L50.8515376,119.756684 L50.8515376,120.799465 L41.6943629,120.799465 L41.6943629,106.200535 L50.8010013,106.200535 L50.8010013,107.253342 L42.9375555,107.253342 L42.9375555,112.758021 L49.8205974,112.758021 L49.8205974,113.800802 Z M58.8402824,114.723262 L54.5649127,114.723262 L54.5649127,120.799465 L53.3116128,120.799465 L53.3116128,106.200535 L58.0923453,106.200535 C58.8605007,106.200535 59.5528409,106.294117 60.1693866,106.481283 C60.7859324,106.66845 61.3115045,106.944183 61.7461187,107.308489 C62.1807329,107.672796 62.5142691,108.122324 62.7467371,108.657086 C62.9792052,109.191848 63.0954375,109.806815 63.0954375,110.502005 C63.0954375,110.983291 63.0213184,111.436161 62.8730778,111.860628 C62.7248373,112.285096 62.5159561,112.667779 62.2464279,113.00869 C61.9768997,113.349601 61.6551553,113.643715 61.2811849,113.891043 C60.9072145,114.13837 60.4945057,114.328876 60.0430459,114.462567 L63.7220874,120.669118 L63.7220874,120.799465 L62.3980368,120.799465 L58.8402824,114.723262 Z M54.5649127,113.670455 L58.3753485,113.670455 C58.948096,113.670455 59.4517692,113.583557 59.8863834,113.409759 C60.3209977,113.235962 60.6831707,113.003678 60.9729136,112.712901 C61.2626564,112.422124 61.4799602,112.084561 61.6248316,111.700201 C61.769703,111.31584 61.8421376,110.916446 61.8421376,110.502005 C61.8421376,110.000666 61.7612804,109.549467 61.5995635,109.148396 C61.4378466,108.747324 61.1969593,108.406419 60.8768946,108.125668 C60.5568299,107.844918 60.1643353,107.629346 59.6993992,107.478944 C59.234463,107.328542 58.6987838,107.253342 58.0923453,107.253342 L54.5649127,107.253342 L54.5649127,113.670455 Z M76.976713,119.06484 C76.8486871,119.245322 76.6549666,119.449197 76.3955458,119.676471 C76.1361249,119.903744 75.7992197,120.114304 75.3848201,120.308155 C74.9704205,120.502006 74.4718008,120.665775 73.888946,120.799465 C73.3060913,120.933156 72.6305964,121 71.862441,121 C70.9932126,121 70.1981163,120.844587 69.4771284,120.533757 C68.7561405,120.222926 68.1345504,119.778412 67.6123395,119.200201 C67.0901286,118.621989 66.6841579,117.921796 66.3944151,117.099599 C66.1046723,116.277402 65.959803,115.354952 65.959803,114.332219 L65.959803,112.557487 C65.959803,111.554808 66.091196,110.649068 66.353986,109.840241 C66.616776,109.031413 66.9957944,108.342917 67.4910524,107.774733 C67.9863105,107.206548 68.5843172,106.768718 69.2850905,106.46123 C69.9858638,106.153742 70.7775911,106 71.6602959,106 C72.4756187,106 73.1965958,106.108622 73.8232489,106.325869 C74.4499019,106.543116 74.9822121,106.845586 75.4201955,107.233289 C75.8581788,107.620991 76.2051911,108.077203 76.4612429,108.601939 C76.7172947,109.126674 76.8857473,109.696521 76.9666058,110.311497 L75.7234132,110.311497 C75.6492929,109.877003 75.5212689,109.462569 75.3393374,109.068182 C75.1574059,108.673795 74.904727,108.327876 74.5812931,108.030414 C74.2578593,107.732953 73.8586266,107.495656 73.3835832,107.318516 C72.9085398,107.141376 72.3374854,107.052807 71.6704032,107.052807 C70.9494152,107.052807 70.3126644,107.184825 69.7601316,107.448864 C69.2075988,107.712902 68.7409851,108.083888 68.3602765,108.561832 C67.9795679,109.039775 67.691514,109.616307 67.4961061,110.291444 C67.3006981,110.966581 67.2029956,111.715237 67.2029956,112.537433 L67.2029956,114.332219 C67.2029956,115.187839 67.3141743,115.961561 67.5365351,116.653409 C67.7588959,117.345257 68.0739022,117.935158 68.4815636,118.423128 C68.889225,118.911099 69.3794221,119.288769 69.9521695,119.55615 C70.5249169,119.823531 71.1616677,119.957219 71.862441,119.957219 C72.4284503,119.957219 72.9270699,119.915442 73.3583151,119.831885 C73.7895602,119.748328 74.1635249,119.643049 74.4802206,119.516043 C74.7969162,119.389037 75.0580177,119.252006 75.263533,119.104947 C75.4690482,118.957887 75.6257091,118.817514 75.7335204,118.683824 L75.7335204,114.91377 L71.781583,114.91377 L71.781583,113.870989 L76.976713,113.870989 L76.976713,119.06484 Z M85.8751109,114.723262 L81.5997412,114.723262 L81.5997412,120.799465 L80.3464414,120.799465 L80.3464414,106.200535 L85.1271739,106.200535 C85.8953293,106.200535 86.5876694,106.294117 87.2042152,106.481283 C87.8207609,106.66845 88.346333,106.944183 88.7809473,107.308489 C89.2155615,107.672796 89.5490976,108.122324 89.7815657,108.657086 C90.0140338,109.191848 90.1302661,109.806815 90.1302661,110.502005 C90.1302661,110.983291 90.0561469,111.436161 89.9079064,111.860628 C89.7596659,112.285096 89.5507847,112.667779 89.2812565,113.00869 C89.0117283,113.349601 88.6899838,113.643715 88.3160134,113.891043 C87.9420431,114.13837 87.5293342,114.328876 87.0778745,114.462567 L90.756916,120.669118 L90.756916,120.799465 L89.4328653,120.799465 L85.8751109,114.723262 Z M81.5997412,113.670455 L85.4101771,113.670455 C85.9829245,113.670455 86.4865978,113.583557 86.921212,113.409759 C87.3558262,113.235962 87.7179993,113.003678 88.0077421,112.712901 C88.2974849,112.422124 88.5147888,112.084561 88.6596602,111.700201 C88.8045316,111.31584 88.8769662,110.916446 88.8769662,110.502005 C88.8769662,110.000666 88.796109,109.549467 88.634392,109.148396 C88.4726751,108.747324 88.2317879,108.406419 87.9117232,108.125668 C87.5916584,107.844918 87.1991639,107.629346 86.7342277,107.478944 C86.2692916,107.328542 85.7336123,107.253342 85.1271739,107.253342 L81.5997412,107.253342 L81.5997412,113.670455 Z M101.333118,116.708556 L94.6522217,116.708556 L93.1361332,120.799465 L91.832297,120.799465 L97.4013956,106.200535 L98.5839446,106.200535 L104.153043,120.799465 L102.859314,120.799465 L101.333118,116.708556 Z M95.0362975,115.655749 L100.938935,115.655749 L97.9876165,107.704545 L95.0362975,115.655749 Z M106.188614,120.799465 L106.188614,106.200535 L110.302267,106.200535 C111.218663,106.200535 112.062611,106.357619 112.834135,106.671791 C113.605659,106.985964 114.269363,107.433821 114.825265,108.015374 C115.381167,108.596928 115.81409,109.29545 116.124047,110.110963 C116.434005,110.926475 116.588981,111.835556 116.588981,112.838235 L116.588981,114.171791 C116.588981,115.17447 116.434005,116.083552 116.124047,116.899064 C115.81409,117.714576 115.379482,118.411428 114.820211,118.989639 C114.26094,119.56785 113.590499,120.014036 112.808867,120.328209 C112.027235,120.642381 111.164758,120.799465 110.221409,120.799465 L106.188614,120.799465 Z M107.431806,107.253342 L107.431806,119.756684 L110.221409,119.756684 C111.009779,119.756684 111.720649,119.621325 112.35404,119.350602 C112.987432,119.079878 113.52648,118.698866 113.971201,118.207553 C114.415923,117.716241 114.757882,117.128011 114.997088,116.442848 C115.236294,115.757684 115.355896,115.000673 115.355896,114.171791 L115.355896,112.808155 C115.355896,111.965905 115.23461,111.202209 114.992034,110.517045 C114.749459,109.831882 114.4075,109.248666 113.966148,108.76738 C113.524795,108.286094 112.99417,107.913437 112.374255,107.649398 C111.75434,107.38536 111.063684,107.253342 110.302267,107.253342 L107.431806,107.253342 Z M129.427125,120.799465 L129.427125,106.200535 L133.773246,106.200535 C134.521187,106.200535 135.191628,106.275735 135.78459,106.426136 C136.377552,106.576538 136.881225,106.807151 137.295625,107.117981 C137.710024,107.428812 138.0284,107.824864 138.250761,108.30615 C138.473121,108.787436 138.5843,109.358954 138.5843,110.020722 C138.5843,110.395055 138.53208,110.747659 138.427638,111.078543 C138.323195,111.409427 138.169904,111.711897 137.967757,111.985963 C137.765611,112.260028 137.521355,112.498996 137.234981,112.702874 C136.948608,112.906752 136.623494,113.06885 136.259631,113.189171 C136.690876,113.282754 137.081686,113.438167 137.432073,113.655414 C137.78246,113.872662 138.082305,114.136696 138.331619,114.447527 C138.580932,114.758357 138.772968,115.104276 138.907732,115.485294 C139.042496,115.866312 139.109878,116.267378 139.109878,116.688503 C139.109878,117.356955 138.997014,117.946856 138.771284,118.458222 C138.545555,118.969588 138.225495,119.399062 137.811095,119.746658 C137.396695,120.094253 136.89976,120.356617 136.320275,120.533757 C135.740789,120.710897 135.100669,120.799465 134.399896,120.799465 L129.427125,120.799465 Z M130.670318,113.780749 L130.670318,119.756684 L134.399896,119.756684 C134.938952,119.756684 135.422411,119.686498 135.850287,119.546123 C136.278163,119.405748 136.642021,119.205215 136.941871,118.944519 C137.241721,118.683822 137.470817,118.364641 137.629164,117.986965 C137.787512,117.60929 137.866685,117.183157 137.866685,116.708556 C137.866685,116.3008 137.799304,115.918117 137.66454,115.560495 C137.529776,115.202873 137.322579,114.892047 137.042943,114.628008 C136.763308,114.363969 136.412927,114.156752 135.991789,114.00635 C135.570651,113.855948 135.073716,113.780749 134.500968,113.780749 L130.670318,113.780749 Z M130.670318,112.747995 L134.066356,112.747995 C135.10404,112.727941 135.907559,112.485631 136.476937,112.021056 C137.046315,111.556482 137.331,110.879684 137.331,109.990642 C137.331,109.054808 137.036208,108.364641 136.446615,107.92012 C135.857022,107.475599 134.965908,107.253342 133.773246,107.253342 L130.670318,107.253342 L130.670318,112.747995 Z M152.121929,106.200535 L152.121929,116.096925 C152.121929,116.919122 151.985482,117.636026 151.712585,118.24766 C151.439688,118.859295 151.069092,119.368982 150.600787,119.776738 C150.132482,120.184494 149.583326,120.490306 148.953304,120.694184 C148.323282,120.898063 147.651156,121 146.936906,121 C146.202442,121 145.520209,120.898063 144.890187,120.694184 C144.260164,120.490306 143.712694,120.184494 143.247757,119.776738 C142.782821,119.368982 142.418964,118.859295 142.156174,118.24766 C141.893384,117.636026 141.761991,116.919122 141.761991,116.096925 L141.761991,106.200535 L142.995076,106.200535 L142.995076,116.096925 C142.995076,116.73864 143.092778,117.300131 143.288186,117.781417 C143.483594,118.262703 143.756488,118.663768 144.106874,118.984626 C144.457261,119.305483 144.873339,119.547793 145.35512,119.711564 C145.836902,119.875335 146.364159,119.957219 146.936906,119.957219 C147.509654,119.957219 148.03691,119.875335 148.518692,119.711564 C149.000474,119.547793 149.414867,119.305483 149.761884,118.984626 C150.108902,118.663768 150.380111,118.262703 150.575519,117.781417 C150.770927,117.300131 150.868629,116.73864 150.868629,116.096925 L150.868629,106.200535 L152.121929,106.200535 Z M163.789715,117.209893 C163.789715,116.808822 163.724019,116.452876 163.592624,116.142045 C163.461229,115.831215 163.238871,115.547127 162.925545,115.289773 C162.612218,115.032418 162.199509,114.796793 161.687406,114.582888 C161.175302,114.368983 160.535182,114.155081 159.767027,113.941176 C159.025824,113.733956 158.358752,113.508357 157.76579,113.264372 C157.172828,113.020386 156.669155,112.734627 156.254755,112.407086 C155.840356,112.079544 155.520296,111.701874 155.294566,111.274064 C155.068836,110.846255 154.955973,110.344923 154.955973,109.770053 C154.955973,109.208553 155.077259,108.697195 155.319834,108.235963 C155.562409,107.77473 155.902684,107.378678 156.340667,107.047794 C156.77865,106.71691 157.300853,106.45956 157.907292,106.275735 C158.51373,106.091911 159.177433,106 159.898421,106 C160.673315,106 161.372393,106.113635 161.995677,106.340909 C162.618961,106.568183 163.149587,106.879009 163.58757,107.273396 C164.025553,107.667783 164.362459,108.129008 164.598296,108.657086 C164.834133,109.185163 164.95205,109.753339 164.95205,110.361631 L163.69875,110.361631 C163.69875,109.88703 163.614524,109.447529 163.446068,109.043115 C163.277613,108.638701 163.031673,108.28944 162.708239,107.995321 C162.384805,107.701202 161.987257,107.470589 161.515582,107.303476 C161.043908,107.136363 160.50486,107.052807 159.898421,107.052807 C159.291983,107.052807 158.757988,107.124665 158.296421,107.268382 C157.834854,107.4121 157.450782,107.605948 157.144194,107.849933 C156.837605,108.093918 156.605141,108.379678 156.446793,108.707219 C156.288445,109.034761 156.209273,109.382351 156.209273,109.75 C156.209273,110.097595 156.274969,110.418448 156.406364,110.712567 C156.537759,111.006686 156.758432,111.279076 157.068389,111.529746 C157.378347,111.780416 157.786002,112.014371 158.291367,112.231618 C158.796733,112.448865 159.420007,112.654411 160.16121,112.848262 C160.936104,113.062167 161.626759,113.296122 162.233198,113.550134 C162.839636,113.804146 163.351732,114.103274 163.769501,114.447527 C164.187269,114.79178 164.50396,115.187832 164.719583,115.635695 C164.935205,116.083558 165.043015,116.601601 165.043015,117.18984 C165.043015,117.784762 164.916676,118.317845 164.663993,118.789104 C164.41131,119.260363 164.060929,119.659758 163.612838,119.987299 C163.164748,120.314841 162.630753,120.565507 162.010838,120.739305 C161.390923,120.913102 160.717113,121 159.989387,121 C159.551403,121 159.111742,120.963236 158.67039,120.889706 C158.229037,120.816176 157.804537,120.704212 157.396875,120.55381 C156.989214,120.403408 156.608511,120.211231 156.254755,119.977273 C155.900999,119.743314 155.594416,119.46424 155.334995,119.14004 C155.075574,118.815841 154.870062,118.444855 154.718452,118.027072 C154.566843,117.609289 154.491039,117.143051 154.491039,116.628342 L155.734231,116.628342 C155.734231,117.243319 155.862255,117.763033 156.118307,118.1875 C156.374359,118.611967 156.704526,118.954544 157.108818,119.215241 C157.513111,119.475937 157.967933,119.664772 158.473298,119.781751 C158.978663,119.898731 159.484021,119.957219 159.989387,119.957219 C160.562134,119.957219 161.082653,119.892046 161.550958,119.761698 C162.019263,119.63135 162.42018,119.445857 162.753721,119.205214 C163.087263,118.964571 163.34331,118.67547 163.521873,118.337901 C163.700435,118.000333 163.789715,117.624334 163.789715,117.209893 Z M169.110144,120.799465 L167.866952,120.799465 L167.866952,106.200535 L169.110144,106.200535 L169.110144,120.799465 Z M183.931395,120.799465 L182.688202,120.799465 L174.228428,108.30615 L174.228428,120.799465 L172.975128,120.799465 L172.975128,106.200535 L174.228428,106.200535 L182.698309,118.703877 L182.698309,106.200535 L183.931395,106.200535 L183.931395,120.799465 Z M195.669932,113.800802 L188.78689,113.800802 L188.78689,119.756684 L196.700872,119.756684 L196.700872,120.799465 L187.543697,120.799465 L187.543697,106.200535 L196.650336,106.200535 L196.650336,107.253342 L188.78689,107.253342 L188.78689,112.758021 L195.669932,112.758021 L195.669932,113.800802 Z M207.519649,117.209893 C207.519649,116.808822 207.453952,116.452876 207.322557,116.142045 C207.191162,115.831215 206.968805,115.547127 206.655478,115.289773 C206.342152,115.032418 205.929443,114.796793 205.417339,114.582888 C204.905235,114.368983 204.265116,114.155081 203.49696,113.941176 C202.755758,113.733956 202.088685,113.508357 201.495723,113.264372 C200.902761,113.020386 200.399088,112.734627 199.984688,112.407086 C199.570289,112.079544 199.250229,111.701874 199.024499,111.274064 C198.798769,110.846255 198.685906,110.344923 198.685906,109.770053 C198.685906,109.208553 198.807192,108.697195 199.049767,108.235963 C199.292343,107.77473 199.632617,107.378678 200.0706,107.047794 C200.508584,106.71691 201.030787,106.45956 201.637225,106.275735 C202.243663,106.091911 202.907367,106 203.628355,106 C204.403248,106 205.102326,106.113635 205.72561,106.340909 C206.348894,106.568183 206.87952,106.879009 207.317503,107.273396 C207.755487,107.667783 208.092392,108.129008 208.328229,108.657086 C208.564066,109.185163 208.681983,109.753339 208.681983,110.361631 L207.428683,110.361631 C207.428683,109.88703 207.344457,109.447529 207.176002,109.043115 C207.007547,108.638701 206.761606,108.28944 206.438172,107.995321 C206.114738,107.701202 205.71719,107.470589 205.245516,107.303476 C204.773841,107.136363 204.234793,107.052807 203.628355,107.052807 C203.021916,107.052807 202.487921,107.124665 202.026354,107.268382 C201.564787,107.4121 201.180715,107.605948 200.874127,107.849933 C200.567539,108.093918 200.335074,108.379678 200.176726,108.707219 C200.018379,109.034761 199.939206,109.382351 199.939206,109.75 C199.939206,110.097595 200.004902,110.418448 200.136297,110.712567 C200.267692,111.006686 200.488365,111.279076 200.798323,111.529746 C201.10828,111.780416 201.515935,112.014371 202.021301,112.231618 C202.526666,112.448865 203.149941,112.654411 203.891143,112.848262 C204.666037,113.062167 205.356693,113.296122 205.963131,113.550134 C206.569569,113.804146 207.081665,114.103274 207.499434,114.447527 C207.917203,114.79178 208.233894,115.187832 208.449516,115.635695 C208.665139,116.083558 208.772948,116.601601 208.772948,117.18984 C208.772948,117.784762 208.646609,118.317845 208.393926,118.789104 C208.141244,119.260363 207.790862,119.659758 207.342772,119.987299 C206.894681,120.314841 206.360686,120.565507 205.740771,120.739305 C205.120856,120.913102 204.447046,121 203.71932,121 C203.281337,121 202.841675,120.963236 202.400323,120.889706 C201.95897,120.816176 201.53447,120.704212 201.126809,120.55381 C200.719147,120.403408 200.338444,120.211231 199.984688,119.977273 C199.630933,119.743314 199.324349,119.46424 199.064928,119.14004 C198.805507,118.815841 198.599995,118.444855 198.448385,118.027072 C198.296776,117.609289 198.220972,117.143051 198.220972,116.628342 L199.464165,116.628342 C199.464165,117.243319 199.592189,117.763033 199.848241,118.1875 C200.104292,118.611967 200.434459,118.954544 200.838752,119.215241 C201.243044,119.475937 201.697866,119.664772 202.203231,119.781751 C202.708597,119.898731 203.213955,119.957219 203.71932,119.957219 C204.292067,119.957219 204.812586,119.892046 205.280891,119.761698 C205.749196,119.63135 206.150114,119.445857 206.483655,119.205214 C206.817196,118.964571 207.073244,118.67547 207.251806,118.337901 C207.430369,118.000333 207.519649,117.624334 207.519649,117.209893 Z M219.652369,117.209893 C219.652369,116.808822 219.586672,116.452876 219.455277,116.142045 C219.323882,115.831215 219.101525,115.547127 218.788198,115.289773 C218.474872,115.032418 218.062163,114.796793 217.550059,114.582888 C217.037956,114.368983 216.397836,114.155081 215.62968,113.941176 C214.888478,113.733956 214.221406,113.508357 213.628443,113.264372 C213.035481,113.020386 212.531808,112.734627 212.117409,112.407086 C211.703009,112.079544 211.382949,111.701874 211.157219,111.274064 C210.931489,110.846255 210.818626,110.344923 210.818626,109.770053 C210.818626,109.208553 210.939912,108.697195 211.182487,108.235963 C211.425063,107.77473 211.765337,107.378678 212.20332,107.047794 C212.641304,106.71691 213.163507,106.45956 213.769945,106.275735 C214.376384,106.091911 215.040087,106 215.761075,106 C216.535968,106 217.235047,106.113635 217.85833,106.340909 C218.481614,106.568183 219.01224,106.879009 219.450223,107.273396 C219.888207,107.667783 220.225112,108.129008 220.460949,108.657086 C220.696786,109.185163 220.814703,109.753339 220.814703,110.361631 L219.561403,110.361631 C219.561403,109.88703 219.477177,109.447529 219.308722,109.043115 C219.140267,108.638701 218.894326,108.28944 218.570892,107.995321 C218.247458,107.701202 217.84991,107.470589 217.378236,107.303476 C216.906561,107.136363 216.367513,107.052807 215.761075,107.052807 C215.154636,107.052807 214.620642,107.124665 214.159074,107.268382 C213.697507,107.4121 213.313436,107.605948 213.006847,107.849933 C212.700259,108.093918 212.467794,108.379678 212.309446,108.707219 C212.151099,109.034761 212.071926,109.382351 212.071926,109.75 C212.071926,110.097595 212.137622,110.418448 212.269017,110.712567 C212.400412,111.006686 212.621085,111.279076 212.931043,111.529746 C213.241,111.780416 213.648655,112.014371 214.154021,112.231618 C214.659386,112.448865 215.282661,112.654411 216.023863,112.848262 C216.798757,113.062167 217.489413,113.296122 218.095851,113.550134 C218.702289,113.804146 219.214385,114.103274 219.632154,114.447527 C220.049923,114.79178 220.366614,115.187832 220.582236,115.635695 C220.797859,116.083558 220.905668,116.601601 220.905668,117.18984 C220.905668,117.784762 220.779329,118.317845 220.526646,118.789104 C220.273964,119.260363 219.923582,119.659758 219.475492,119.987299 C219.027401,120.314841 218.493406,120.565507 217.873491,120.739305 C217.253577,120.913102 216.579766,121 215.85204,121 C215.414057,121 214.974395,120.963236 214.533043,120.889706 C214.091691,120.816176 213.66719,120.704212 213.259529,120.55381 C212.851867,120.403408 212.471164,120.211231 212.117409,119.977273 C211.763653,119.743314 211.457069,119.46424 211.197648,119.14004 C210.938227,118.815841 210.732715,118.444855 210.581106,118.027072 C210.429496,117.609289 210.353692,117.143051 210.353692,116.628342 L211.596885,116.628342 C211.596885,117.243319 211.724909,117.763033 211.980961,118.1875 C212.237012,118.611967 212.567179,118.954544 212.971472,119.215241 C213.375764,119.475937 213.830586,119.664772 214.335951,119.781751 C214.841317,119.898731 215.346675,119.957219 215.85204,119.957219 C216.424787,119.957219 216.945306,119.892046 217.413611,119.761698 C217.881916,119.63135 218.282834,119.445857 218.616375,119.205214 C218.949916,118.964571 219.205964,118.67547 219.384526,118.337901 C219.563089,118.000333 219.652369,117.624334 219.652369,117.209893 Z M241.213076,116.708556 L234.532179,116.708556 L233.01609,120.799465 L231.712254,120.799465 L237.281353,106.200535 L238.463902,106.200535 L244.033,120.799465 L242.739272,120.799465 L241.213076,116.708556 Z M234.916255,115.655749 L240.818893,115.655749 L237.867574,107.704545 L234.916255,115.655749 Z M257.024837,120.799465 L255.781645,120.799465 L247.321871,108.30615 L247.321871,120.799465 L246.068571,120.799465 L246.068571,106.200535 L247.321871,106.200535 L255.791752,118.703877 L255.791752,106.200535 L257.024837,106.200535 L257.024837,120.799465 Z M268.763374,116.708556 L262.082478,116.708556 L260.566389,120.799465 L259.262553,120.799465 L264.831651,106.200535 L266.014201,106.200535 L271.583299,120.799465 L270.28957,120.799465 L268.763374,116.708556 Z M262.466553,115.655749 L268.369191,115.655749 L265.417872,107.704545 L262.466553,115.655749 Z M274.872169,119.756684 L282.139287,119.756684 L282.139287,120.799465 L273.61887,120.799465 L273.61887,106.200535 L274.872169,106.200535 L274.872169,119.756684 Z M286.297381,114.161765 L290.795111,106.200535 L292.230341,106.200535 L286.913924,115.304813 L286.913924,120.799465 L285.670732,120.799465 L285.670732,115.304813 L280.364422,106.200535 L281.840081,106.200535 L286.297381,114.161765 Z M304.40349,107.253342 L299.359969,107.253342 L299.359969,120.799465 L298.116777,120.799465 L298.116777,107.253342 L293.083363,107.253342 L293.083363,106.200535 L304.40349,106.200535 L304.40349,107.253342 Z M308.167402,120.799465 L306.924209,120.799465 L306.924209,106.200535 L308.167402,106.200535 L308.167402,120.799465 Z M322.452968,116.247326 C322.372109,116.989309 322.196918,117.654409 321.92739,118.242647 C321.657862,118.830885 321.295689,119.328875 320.84086,119.736631 C320.386031,120.144387 319.840245,120.456884 319.203484,120.674131 C318.566724,120.891378 317.844062,121 317.035478,121 C316.19994,121 315.441904,120.842916 314.761345,120.528743 C314.080786,120.214571 313.49794,119.768385 313.01279,119.190174 C312.527639,118.611962 312.153674,117.918453 311.890884,117.109626 C311.628094,116.300798 311.496701,115.405085 311.496701,114.42246 L311.496701,112.587567 C311.496701,111.604942 311.628094,110.707558 311.890884,109.895388 C312.153674,109.083218 312.529323,108.389709 313.017843,107.81484 C313.506363,107.23997 314.097632,106.793785 314.791667,106.47627 C315.485702,106.158755 316.263953,106 317.126443,106 C317.908075,106 318.612207,106.106951 319.23886,106.320856 C319.865513,106.53476 320.402877,106.847257 320.850967,107.258356 C321.299058,107.669454 321.659547,108.170786 321.932444,108.762366 C322.205341,109.353947 322.378847,110.02406 322.452968,110.772727 L321.199668,110.772727 C321.125547,110.184489 320.990785,109.658091 320.795377,109.193516 C320.599969,108.728942 320.335499,108.339574 320.001958,108.025401 C319.668417,107.711228 319.26413,107.470589 318.789087,107.303476 C318.314043,107.136363 317.759834,107.052807 317.126443,107.052807 C316.439146,107.052807 315.825979,107.184825 315.286922,107.448864 C314.747866,107.712902 314.289675,108.085559 313.912335,108.566845 C313.534996,109.048131 313.246942,109.628005 313.048165,110.306484 C312.849388,110.984963 312.750001,111.738632 312.750001,112.567513 L312.750001,114.42246 C312.750001,115.224603 312.844334,115.964903 313.033004,116.643382 C313.221674,117.321862 313.497936,117.906749 313.861799,118.398061 C314.225662,118.889374 314.673746,119.272057 315.206064,119.546123 C315.738383,119.820189 316.348181,119.957219 317.035478,119.957219 C318.335951,119.957219 319.316346,119.648065 319.97669,119.029746 C320.637034,118.411427 321.044689,117.483963 321.199668,116.247326 L322.452968,116.247326 Z M333.676035,117.209893 C333.676035,116.808822 333.610338,116.452876 333.478943,116.142045 C333.347548,115.831215 333.125191,115.547127 332.811864,115.289773 C332.498538,115.032418 332.085829,114.796793 331.573725,114.582888 C331.061621,114.368983 330.421502,114.155081 329.653346,113.941176 C328.912144,113.733956 328.245071,113.508357 327.652109,113.264372 C327.059147,113.020386 326.555474,112.734627 326.141074,112.407086 C325.726675,112.079544 325.406615,111.701874 325.180885,111.274064 C324.955155,110.846255 324.842292,110.344923 324.842292,109.770053 C324.842292,109.208553 324.963578,108.697195 325.206153,108.235963 C325.448729,107.77473 325.789003,107.378678 326.226986,107.047794 C326.66497,106.71691 327.187173,106.45956 327.793611,106.275735 C328.400049,106.091911 329.063753,106 329.784741,106 C330.559634,106 331.258712,106.113635 331.881996,106.340909 C332.50528,106.568183 333.035906,106.879009 333.473889,107.273396 C333.911873,107.667783 334.248778,108.129008 334.484615,108.657086 C334.720452,109.185163 334.838369,109.753339 334.838369,110.361631 L333.585069,110.361631 C333.585069,109.88703 333.500843,109.447529 333.332388,109.043115 C333.163933,108.638701 332.917992,108.28944 332.594558,107.995321 C332.271124,107.701202 331.873576,107.470589 331.401902,107.303476 C330.930227,107.136363 330.391179,107.052807 329.784741,107.052807 C329.178302,107.052807 328.644307,107.124665 328.18274,107.268382 C327.721173,107.4121 327.337101,107.605948 327.030513,107.849933 C326.723925,108.093918 326.49146,108.379678 326.333112,108.707219 C326.174765,109.034761 326.095592,109.382351 326.095592,109.75 C326.095592,110.097595 326.161288,110.418448 326.292683,110.712567 C326.424078,111.006686 326.644751,111.279076 326.954709,111.529746 C327.264666,111.780416 327.672321,112.014371 328.177687,112.231618 C328.683052,112.448865 329.306327,112.654411 330.047529,112.848262 C330.822423,113.062167 331.513078,113.296122 332.119517,113.550134 C332.725955,113.804146 333.238051,114.103274 333.65582,114.447527 C334.073589,114.79178 334.39028,115.187832 334.605902,115.635695 C334.821525,116.083558 334.929334,116.601601 334.929334,117.18984 C334.929334,117.784762 334.802995,118.317845 334.550312,118.789104 C334.29763,119.260363 333.947248,119.659758 333.499158,119.987299 C333.051067,120.314841 332.517072,120.565507 331.897157,120.739305 C331.277242,120.913102 330.603432,121 329.875706,121 C329.437723,121 328.998061,120.963236 328.556709,120.889706 C328.115356,120.816176 327.690856,120.704212 327.283195,120.55381 C326.875533,120.403408 326.49483,120.211231 326.141074,119.977273 C325.787319,119.743314 325.480735,119.46424 325.221314,119.14004 C324.961893,118.815841 324.756381,118.444855 324.604771,118.027072 C324.453162,117.609289 324.377358,117.143051 324.377358,116.628342 L325.620551,116.628342 C325.620551,117.243319 325.748575,117.763033 326.004627,118.1875 C326.260678,118.611967 326.590845,118.954544 326.995138,119.215241 C327.39943,119.475937 327.854252,119.664772 328.359617,119.781751 C328.864983,119.898731 329.370341,119.957219 329.875706,119.957219 C330.448453,119.957219 330.968972,119.892046 331.437277,119.761698 C331.905582,119.63135 332.3065,119.445857 332.640041,119.205214 C332.973582,118.964571 333.22963,118.67547 333.408192,118.337901 C333.586755,118.000333 333.676035,117.624334 333.676035,117.209893 Z M357.71302,116.247326 C357.632161,116.989309 357.45697,117.654409 357.187442,118.242647 C356.917914,118.830885 356.555741,119.328875 356.100912,119.736631 C355.646083,120.144387 355.100297,120.456884 354.463536,120.674131 C353.826776,120.891378 353.104114,121 352.29553,121 C351.459992,121 350.701956,120.842916 350.021397,120.528743 C349.340838,120.214571 348.757992,119.768385 348.272842,119.190174 C347.787691,118.611962 347.413726,117.918453 347.150936,117.109626 C346.888146,116.300798 346.756753,115.405085 346.756753,114.42246 L346.756753,112.587567 C346.756753,111.604942 346.888146,110.707558 347.150936,109.895388 C347.413726,109.083218 347.789375,108.389709 348.277895,107.81484 C348.766415,107.23997 349.357684,106.793785 350.051719,106.47627 C350.745754,106.158755 351.524005,106 352.386495,106 C353.168127,106 353.872259,106.106951 354.498912,106.320856 C355.125565,106.53476 355.662929,106.847257 356.111019,107.258356 C356.55911,107.669454 356.919599,108.170786 357.192496,108.762366 C357.465393,109.353947 357.638899,110.02406 357.71302,110.772727 L356.45972,110.772727 C356.385599,110.184489 356.250837,109.658091 356.055429,109.193516 C355.860022,108.728942 355.595551,108.339574 355.26201,108.025401 C354.928469,107.711228 354.524182,107.470589 354.049139,107.303476 C353.574096,107.136363 353.019886,107.052807 352.386495,107.052807 C351.699198,107.052807 351.086031,107.184825 350.546974,107.448864 C350.007918,107.712902 349.549727,108.085559 349.172388,108.566845 C348.795048,109.048131 348.506994,109.628005 348.308217,110.306484 C348.10944,110.984963 348.010053,111.738632 348.010053,112.567513 L348.010053,114.42246 C348.010053,115.224603 348.104386,115.964903 348.293056,116.643382 C348.481726,117.321862 348.757988,117.906749 349.121851,118.398061 C349.485714,118.889374 349.933798,119.272057 350.466116,119.546123 C350.998435,119.820189 351.608233,119.957219 352.29553,119.957219 C353.596003,119.957219 354.576398,119.648065 355.236742,119.029746 C355.897086,118.411427 356.304741,117.483963 356.45972,116.247326 L357.71302,116.247326 Z M361.861007,119.756684 L369.128124,119.756684 L369.128124,120.799465 L360.607707,120.799465 L360.607707,106.200535 L361.861007,106.200535 L361.861007,119.756684 Z M380.977841,106.200535 L380.977841,116.096925 C380.977841,116.919122 380.841395,117.636026 380.568497,118.24766 C380.2956,118.859295 379.925004,119.368982 379.456699,119.776738 C378.988394,120.184494 378.439238,120.490306 377.809216,120.694184 C377.179194,120.898063 376.507068,121 375.792819,121 C375.058354,121 374.376121,120.898063 373.746099,120.694184 C373.116077,120.490306 372.568606,120.184494 372.10367,119.776738 C371.638734,119.368982 371.274876,118.859295 371.012086,118.24766 C370.749296,117.636026 370.617903,116.919122 370.617903,116.096925 L370.617903,106.200535 L371.850988,106.200535 L371.850988,116.096925 C371.850988,116.73864 371.948691,117.300131 372.144099,117.781417 C372.339507,118.262703 372.6124,118.663768 372.962787,118.984626 C373.313173,119.305483 373.729251,119.547793 374.211033,119.711564 C374.692814,119.875335 375.220071,119.957219 375.792819,119.957219 C376.365566,119.957219 376.892823,119.875335 377.374604,119.711564 C377.856386,119.547793 378.270779,119.305483 378.617797,118.984626 C378.964814,118.663768 379.236023,118.262703 379.431431,117.781417 C379.626839,117.300131 379.724541,116.73864 379.724541,116.096925 L379.724541,106.200535 L380.977841,106.200535 Z M384.317248,120.799465 L384.317248,106.200535 L388.663368,106.200535 C389.411309,106.200535 390.08175,106.275735 390.674712,106.426136 C391.267675,106.576538 391.771348,106.807151 392.185747,107.117981 C392.600147,107.428812 392.918522,107.824864 393.140883,108.30615 C393.363244,108.787436 393.474423,109.358954 393.474423,110.020722 C393.474423,110.395055 393.422202,110.747659 393.31776,111.078543 C393.213318,111.409427 393.060026,111.711897 392.85788,111.985963 C392.655734,112.260028 392.411478,112.498996 392.125104,112.702874 C391.83873,112.906752 391.513617,113.06885 391.149754,113.189171 C391.580999,113.282754 391.971809,113.438167 392.322195,113.655414 C392.672582,113.872662 392.972428,114.136696 393.221741,114.447527 C393.471055,114.758357 393.663091,115.104276 393.797855,115.485294 C393.932619,115.866312 394,116.267378 394,116.688503 C394,117.356955 393.887137,117.946856 393.661407,118.458222 C393.435677,118.969588 393.115617,119.399062 392.701217,119.746658 C392.286818,120.094253 391.789883,120.356617 391.210397,120.533757 C390.630911,120.710897 389.990792,120.799465 389.290018,120.799465 L384.317248,120.799465 Z M385.560441,113.780749 L385.560441,119.756684 L389.290018,119.756684 C389.829075,119.756684 390.312534,119.686498 390.74041,119.546123 C391.168286,119.405748 391.532143,119.205215 391.831993,118.944519 C392.131844,118.683822 392.360939,118.364641 392.519287,117.986965 C392.677635,117.60929 392.756807,117.183157 392.756807,116.708556 C392.756807,116.3008 392.689426,115.918117 392.554662,115.560495 C392.419898,115.202873 392.212701,114.892047 391.933066,114.628008 C391.65343,114.363969 391.303049,114.156752 390.881911,114.00635 C390.460773,113.855948 389.963838,113.780749 389.391091,113.780749 L385.560441,113.780749 Z M385.560441,112.747995 L388.956479,112.747995 C389.994162,112.727941 390.797681,112.485631 391.36706,112.021056 C391.936438,111.556482 392.221123,110.879684 392.221123,109.990642 C392.221123,109.054808 391.926331,108.364641 391.336738,107.92012 C390.747145,107.475599 389.856031,107.253342 388.663368,107.253342 L385.560441,107.253342 L385.560441,112.747995 Z" id="UNDERGRAD-BUSINESS-A" fill="#303030"></path>
                </g>
                <polyline id="Path-2" stroke="#303030" stroke-width="9" points="3.12522804 49.3129664 23.3294154 29.3563304 36.4112715 41.885084 56.6744212 21.406638"></polyline>
            </g>
        </g>
    </g>
</svg>